<svg width="40" height="40" viewBox="0 0 40 40" fill="none" xmlns="http://www.w3.org/2000/svg">
<rect width="40" height="40" rx="12" fill="#07F4E2"/>
<path d="M28.0687 11.5617C28.836 11.854 29.5229 12.9634 29.2981 13.7789L28.4153 16.9803C30.5097 16.9316 31.2503 19.6447 29.4585 20.726C29.4834 20.9409 29.618 21.1134 29.6646 21.3238C29.853 22.1692 29.4305 23.0946 28.6863 23.5182C29.1741 24.5325 28.9156 25.7282 27.9177 26.3121C27.939 26.5172 28.0679 26.6812 28.1158 26.8792C28.294 27.6106 28.0141 28.393 27.4543 28.88C26.7679 29.477 25.8082 29.3478 24.976 29.5342C24.6393 30.3934 24.5229 31.397 24.199 32.2508C23.8347 33.2115 22.8897 33.7182 21.8949 33.5341L12.2818 30.8532C11.4505 30.619 10.7121 29.4502 10.9449 28.6066L11.5789 26.3077L6.77168 24.9672C6.57619 24.9127 6.3807 24.4583 6.4389 24.251L9.04955 14.8646C9.21616 14.6381 9.45164 14.5152 9.73909 14.5536C10.466 14.651 11.2803 15.0733 12.0276 15.164L15.0861 13.429C15.5104 12.4156 15.6433 11.2507 16.0147 10.2128C16.3435 9.29412 17.2556 8.66411 18.2406 8.82228L28.0683 11.5631L28.0687 11.5617ZM16.6523 12.9134L17.4 13.122C17.4329 13.131 17.7243 13.3361 17.7772 13.3785C18.7542 14.1618 18.7355 15.6814 17.7825 16.4915C17.113 17.0607 15.9929 17.4437 15.2598 17.9629L13.524 24.2586L22.6684 26.809C22.7963 26.3492 23.1753 26.0503 23.537 25.7786C23.0087 24.7411 23.337 23.608 24.3092 22.9856C23.752 21.9708 24.1066 20.7939 25.0773 20.1925C24.4416 18.92 25.0551 17.5424 26.4351 17.2073C26.5315 17.1841 26.9762 17.1559 27.0011 17.1112L27.9821 13.5505C28.0097 13.2771 27.9035 13.0461 27.6933 12.8816L17.9571 10.1413C17.6723 10.1569 17.4578 10.282 17.3125 10.5323L16.6527 12.9138L16.6523 12.9134ZM11.9339 25.0177L14.0963 17.1751C14.1798 16.8722 16.6514 15.7149 17.0108 15.3758C17.4689 14.8128 16.9184 14.0662 16.2395 14.3253L12.3924 16.5161C12.3351 16.546 12.1138 16.5992 12.0725 16.5876L10.0856 16.0335L7.91706 23.8975L11.9334 25.0177H11.9339ZM28.4539 18.298C28.2713 18.2828 26.7474 18.4857 26.579 18.5513C25.8993 18.8158 26.0517 19.7573 26.7643 19.8409C27.0256 19.8717 28.1896 19.7104 28.4935 19.6487C29.4287 19.4588 29.3221 18.3704 28.4539 18.298ZM25.4474 22.2921C25.5576 22.4887 25.7753 22.6085 25.9939 22.6339C26.2423 22.663 27.5049 22.4959 27.7884 22.4302C28.6032 22.2416 28.5468 21.1943 27.7204 21.0937C27.5489 21.0727 26.1005 21.2573 25.8988 21.3131C25.4785 21.4297 25.2213 21.8886 25.447 22.2917L25.4474 22.2921ZM26.9562 23.8966C26.7488 23.8725 25.2328 24.0624 25.0387 24.1375C24.3762 24.3939 24.514 25.3354 25.2235 25.4274C25.4559 25.4578 26.6719 25.2925 26.9531 25.2349C27.867 25.0485 27.7897 23.994 26.9562 23.8966ZM26.1432 26.6776C25.9513 26.6616 24.4469 26.8617 24.2683 26.9305C23.5867 27.1946 23.7556 28.1459 24.4536 28.2205C24.7121 28.2482 25.8828 28.0891 26.1823 28.0284C27.1015 27.8412 27.0149 26.7505 26.1427 26.6776H26.1432ZM22.5906 28.1749L13.1686 25.5472L12.2382 28.9207C12.1947 29.0789 12.4826 29.5453 12.6776 29.5766L22.3214 32.2437C22.5924 32.2164 22.7906 32.0931 22.9305 31.8536L23.621 29.3702C23.1376 29.0833 22.7884 28.7035 22.5902 28.1754L22.5906 28.1749Z" fill="#003A38"/>
<path d="M32.7529 9.5911C33.3133 10.4196 33.7606 11.9655 33.4904 12.9555C33.2963 13.6658 32.4314 13.6918 32.1769 12.9842C32.1156 12.8137 32.21 12.503 32.2091 12.3048C32.2019 11.171 31.7887 10.2329 30.8674 9.54187C30.438 9.21961 29.6853 9.11846 29.6938 8.49275C29.7014 7.94178 30.1916 7.75514 30.6648 7.90911C31.4282 8.15796 32.3079 8.93227 32.7534 9.59065L32.7529 9.5911Z" fill="#003A38"/>
<path d="M31.1376 10.8425C31.4344 11.3373 31.6572 12.2803 31.5066 12.8459C31.3193 13.5493 30.2783 13.5134 30.1955 12.7113C30.1241 12.021 30.3129 11.7023 29.6604 11.1257C29.4526 10.9421 29.0739 10.8425 28.918 10.6493C28.4985 10.1304 28.9968 9.43618 29.6325 9.60885C30.1649 9.75354 30.8608 10.3804 31.1381 10.842L31.1376 10.8425Z" fill="#003A38"/>
<path d="M21.7078 13.7216C21.4547 13.2614 21.8444 12.6626 22.3489 12.7219C22.7568 12.7696 24.6039 13.2953 24.9788 13.4697C25.6403 13.7774 25.355 14.8368 24.6322 14.7512C24.1755 14.6968 22.4798 14.205 22.0397 14.0177C21.9349 13.9731 21.7631 13.822 21.7078 13.7221V13.7216Z" fill="#003A38"/>
<path d="M19.7271 12.0923C20.681 12.1496 20.5542 13.3972 19.6523 13.3433C18.6984 13.286 18.8252 12.0384 19.7271 12.0923Z" fill="#003A38"/>
<path d="M16.2883 27.7701L19.9992 28.8077C20.6763 29.1903 20.4118 30.1488 19.6406 30.1214L15.9679 29.0865C15.3097 28.7176 15.5356 27.7847 16.2883 27.7701Z" fill="#003A38"/>
<path d="M21.3604 22.8051C21.1165 22.7364 20.9077 22.5715 20.7803 22.3458L20.0833 21.1199C20.031 21.0335 19.9229 21.0026 19.8372 21.0503L18.6541 21.7474C18.4378 21.8754 18.1794 21.9081 17.9359 21.8385L17.7509 21.7861L18.6338 23.3386C18.9094 23.8231 19.5111 23.9937 19.9765 23.7189L21.4734 22.8369L21.3604 22.8046V22.8051Z" fill="#003A38"/>
<path d="M18.7197 18.5729C18.9757 18.6381 19.1901 18.7909 19.3243 19.0031L20.0534 20.1558C20.1061 20.239 20.2211 20.2687 20.3099 20.2215L21.5383 19.5711C21.7637 19.4512 22.033 19.4206 22.2863 19.4854L22.404 19.5156L21.4815 18.0574C21.1944 17.6036 20.5678 17.4443 20.0823 17.7012L18.5264 18.5248L18.7193 18.5738L18.7197 18.5729Z" fill="#003A38"/>
<path d="M23.0421 20.7531L22.5029 19.8439C22.4848 19.8461 22.4666 19.8448 22.4489 19.8403L22.1191 19.7504C21.9487 19.7039 21.7641 19.7269 21.6131 19.8127L20.4262 20.4836C20.2049 20.6095 19.9184 20.5323 19.7865 20.3116C19.7861 20.3107 19.7856 20.3102 19.7852 20.3093L19.0804 19.1198C18.9901 18.9676 18.8427 18.8561 18.6714 18.8087L18.2663 18.6986C18.2495 18.6941 18.2335 18.6864 18.2198 18.676L17.3052 19.1933C16.8359 19.4583 16.6805 20.0533 16.9577 20.5219L17.4986 21.4343C17.5159 21.4325 17.5332 21.4334 17.5496 21.4379L17.9551 21.5481C18.1259 21.5946 18.3101 21.572 18.4615 21.4867L19.6528 20.8127C19.8764 20.6935 20.1584 20.7702 20.2943 20.9869L20.9964 22.1715C21.0854 22.3227 21.2346 22.4356 21.405 22.4816L21.7348 22.5715C21.753 22.5764 21.7694 22.5855 21.7835 22.5959L22.6946 22.0808C23.1639 21.8158 23.3193 21.2203 23.0421 20.7522V20.7531Z" fill="#003A38"/>
</svg>
