<svg width="65" height="65" viewBox="0 0 65 65" fill="none" xmlns="http://www.w3.org/2000/svg">
<path d="M44.56 32.069C54.6475 31.2755 61.4912 42.3321 56.1201 50.9725C51.1407 58.9831 39.2202 58.6907 34.7141 50.396C30.4425 42.5334 35.6582 32.7705 44.56 32.0699V32.069ZM47.0639 38.6389C46.8727 37.0465 44.8366 36.699 44.1895 38.2141C44.1132 38.3934 44.1555 38.6784 44.0296 38.7878C43.9441 38.8623 43.205 39.0848 42.9348 39.2521C40.0199 41.0642 41.1459 45.5922 44.5342 45.8956C45.1032 45.9471 46.3524 45.7375 46.7367 46.0786C47.1209 46.4197 46.9996 47.0541 46.4903 47.2122C45.4562 47.5349 43.4799 47.0642 42.352 47.294C41.2241 47.5239 40.8775 49.1328 41.7811 49.8426C42.4678 50.3822 43.3116 50.1708 44.116 50.214C44.1307 51.5443 45.9278 52.1309 46.7201 51.103C46.938 50.8199 47.0483 50.1561 47.1476 50.0715C47.2349 49.9979 47.7901 49.8527 48.0061 49.7377C51.0966 48.0911 50.1893 43.4032 46.7091 42.9867C46.1226 42.9168 45.1023 43.0759 44.6436 42.9426C44.0617 42.7734 44.0231 41.7988 44.7567 41.6251C45.857 41.364 47.5888 41.7584 48.7479 41.5791C49.828 41.4127 50.2812 39.9178 49.4879 39.1069C48.884 38.49 47.8443 38.683 47.0658 38.6389H47.0639Z" fill="#28B4AD"/>
<path d="M37.4223 30.5731C37.3846 30.826 37.5023 31.281 37.3764 31.4907C37.3139 31.5946 36.4314 32.125 36.2374 32.2786C35.787 32.6371 35.2134 33.1115 34.808 33.5096C34.5286 33.7845 33.8566 34.7398 33.6213 34.8924C33.4264 35.0184 33.2325 34.9797 33.0183 34.9779V30.5731H37.4223Z" fill="#28B4AD"/>
<path d="M37.4222 18.828H19.8071V21.7645H37.4222V18.828Z" fill="#28B4AD"/>
<path d="M24.2111 30.5731H19.8071V34.9779H24.2111V30.5731Z" fill="#28B4AD"/>
<path d="M24.2111 43.7865H19.8071V48.1913H24.2111V43.7865Z" fill="#28B4AD"/>
<path d="M30.1292 48.6851C30.1632 48.8818 30.2339 49.1052 30.3286 49.3286C30.2569 49.1144 30.1907 48.9002 30.1292 48.6851Z" fill="#28B4AD"/>
<path d="M31.4261 51.8553C30.9766 51.0278 30.6135 50.1829 30.3286 49.3288C30.233 49.1054 30.1631 48.882 30.1291 48.6852C29.015 44.7824 29.5445 40.7435 31.302 37.3519C30.6006 36.8086 30.1548 36.074 30.0794 35.1187C29.9976 34.0798 29.9489 30.5154 30.221 29.6566C30.5915 28.4863 31.6771 27.7287 32.8776 27.634C33.8915 27.554 37.4351 27.5034 38.2679 27.7544C39.2138 28.0404 39.9823 28.82 40.2176 29.7789C41.2995 29.4369 42.4439 29.2098 43.6426 29.1151C44.4074 29.0554 45.1566 29.0498 45.8883 29.0958C46.0014 29.0977 46.1144 29.1004 46.2284 29.105V13.9195C46.2284 12.3657 44.3899 10.3881 42.8539 10.1371C33.6194 9.86591 24.337 10.0948 15.0841 10.0213C12.9846 10.2116 11.4201 11.7534 11 13.7816V53.238C11.4182 55.2156 12.8578 56.6434 14.8534 57.0001H35.9744C34.1654 55.7204 32.5944 54.0048 31.4261 51.8543V51.8553ZM19.4201 15.9182L37.4719 15.8879C40.6937 16.1104 40.5329 19.3439 40.3619 21.8152C40.2534 23.3837 39.2156 24.5062 37.6493 24.7002C31.8067 24.3987 25.5513 25.1066 19.7565 24.7057C18.1654 24.5954 16.9943 23.5179 16.8674 21.9062C16.6872 19.6188 16.5025 16.3476 19.4192 15.9182H19.4201ZM27.0083 49.1081C26.7509 49.9227 25.942 50.7318 25.1276 50.9892C24.281 51.2558 20.5995 51.2181 19.5791 51.1262C18.4384 51.0223 17.3583 50.2123 17.0099 49.1081C16.7378 48.2494 16.7865 44.6859 16.8683 43.646C16.9796 42.2311 17.9889 41.057 19.4201 40.8768C20.3899 40.7546 24.3058 40.7297 25.1276 40.989C26.2306 41.3384 27.0414 42.4177 27.1453 43.5587C27.2381 44.5783 27.2758 48.2614 27.0083 49.1081ZM27.0083 35.8947C26.7509 36.7093 25.942 37.5183 25.1276 37.7758C24.281 38.0424 20.5995 38.0047 19.5791 37.9127C18.4384 37.8089 17.3583 36.9989 17.0099 35.8947C16.7378 35.036 16.7865 31.4724 16.8683 30.4326C16.9796 29.0177 17.9889 27.8436 19.4201 27.6634C20.3899 27.5411 24.3058 27.5163 25.1276 27.7756C26.2306 28.1249 27.0414 29.2043 27.1453 30.3453C27.2381 31.3649 27.2758 35.0479 27.0083 35.8947Z" fill="#28B4AD"/>
<path d="M44.56 32.069C54.6475 31.2755 61.4912 42.3321 56.1201 50.9725C51.1407 58.9831 39.2202 58.6907 34.7141 50.396C30.4425 42.5334 35.6582 32.7705 44.56 32.0699V32.069ZM47.0639 38.6389C46.8727 37.0465 44.8366 36.699 44.1895 38.2141C44.1132 38.3934 44.1555 38.6784 44.0296 38.7878C43.9441 38.8623 43.205 39.0848 42.9348 39.2521C40.0199 41.0642 41.1459 45.5922 44.5342 45.8956C45.1032 45.9471 46.3524 45.7375 46.7367 46.0786C47.1393 46.4353 46.9996 47.0541 46.4903 47.2122C45.4562 47.5349 43.4799 47.0642 42.352 47.294C41.2241 47.5239 40.8775 49.1328 41.7811 49.8426C42.4678 50.3822 43.3116 50.1708 44.116 50.214C44.1307 51.5443 45.9278 52.1309 46.7201 51.103C46.938 50.8199 47.0483 50.1561 47.1476 50.0715C47.2349 49.9979 47.7901 49.8527 48.0061 49.7377C51.0966 48.0911 50.1893 43.4032 46.7091 42.9867C46.1226 42.9168 45.1023 43.0759 44.6436 42.9426C44.0617 42.7734 44.0231 41.7988 44.7567 41.6251C45.857 41.364 47.5888 41.7584 48.7479 41.5791C49.828 41.4127 50.2812 39.9178 49.4879 39.1069C48.884 38.49 47.8443 38.683 47.0658 38.6389H47.0639Z" fill="url(#paint0_linear_73_316)"/>
<path d="M37.4223 30.5731C37.3846 30.826 37.5023 31.281 37.3764 31.4907C37.3139 31.5946 36.4314 32.125 36.2374 32.2786C35.787 32.6371 35.2134 33.1115 34.808 33.5096C34.5286 33.7845 33.8566 34.7398 33.6213 34.8924C33.4264 35.0184 33.2325 34.9797 33.0183 34.9779V30.5731H37.4223Z" fill="url(#paint1_linear_73_316)"/>
<path d="M37.4222 18.828H19.8071V21.7645H37.4222V18.828Z" fill="url(#paint2_linear_73_316)"/>
<path d="M24.2111 30.5731H19.8071V34.9779H24.2111V30.5731Z" fill="url(#paint3_linear_73_316)"/>
<path d="M24.2111 43.7865H19.8071V48.1913H24.2111V43.7865Z" fill="url(#paint4_linear_73_316)"/>
<path d="M30.1292 48.6851C30.1632 48.8818 30.2339 49.1052 30.3286 49.3286C30.2569 49.1144 30.1907 48.9002 30.1292 48.6851Z" fill="url(#paint5_linear_73_316)"/>
<path d="M31.4261 51.8553C30.9766 51.0278 30.6135 50.1829 30.3286 49.3288C30.233 49.1054 30.1631 48.882 30.1291 48.6852C29.015 44.7824 29.5445 40.7435 31.302 37.3519C30.6006 36.8086 30.1548 36.074 30.0794 35.1187C29.9976 34.0798 29.9489 30.5154 30.221 29.6566C30.5915 28.4863 31.6771 27.7287 32.8776 27.634C33.8915 27.554 37.4351 27.5034 38.2679 27.7544C39.2138 28.0404 39.9823 28.82 40.2176 29.7789C41.2995 29.4369 42.4439 29.2098 43.6426 29.1151C44.4074 29.0554 45.1566 29.0498 45.8883 29.0958C46.0014 29.0977 46.1144 29.1004 46.2284 29.105V13.9195C46.2284 12.3657 44.3899 10.3881 42.8539 10.1371C33.6194 9.86591 24.337 10.0948 15.0841 10.0213C12.9846 10.2116 11.4201 11.7534 11 13.7816V53.238C11.4182 55.2156 12.8578 56.6434 14.8534 57.0001H35.9744C34.1654 55.7204 32.5944 54.0048 31.4261 51.8543V51.8553ZM19.4201 15.9182L37.4719 15.8879C40.6937 16.1104 40.5329 19.3439 40.3619 21.8152C40.2534 23.3837 39.2156 24.5062 37.6493 24.7002C31.8067 24.3987 25.5513 25.1066 19.7565 24.7057C18.1654 24.5954 16.9943 23.5179 16.8674 21.9062C16.6872 19.6188 16.5025 16.3476 19.4192 15.9182H19.4201ZM27.0083 49.1081C26.7509 49.9227 25.942 50.7318 25.1276 50.9892C24.281 51.2558 20.5995 51.2181 19.5791 51.1262C18.4384 51.0223 17.3583 50.2123 17.0099 49.1081C16.7378 48.2494 16.7865 44.6859 16.8683 43.646C16.9796 42.2311 17.9889 41.057 19.4201 40.8768C20.3899 40.7546 24.3058 40.7297 25.1276 40.989C26.2306 41.3384 27.0414 42.4177 27.1453 43.5587C27.2381 44.5783 27.2758 48.2614 27.0083 49.1081ZM27.0083 35.8947C26.7509 36.7093 25.942 37.5183 25.1276 37.7758C24.281 38.0424 20.5995 38.0047 19.5791 37.9127C18.4384 37.8089 17.3583 36.9989 17.0099 35.8947C16.7378 35.036 16.7865 31.4724 16.8683 30.4326C16.9796 29.0177 17.9889 27.8436 19.4201 27.6634C20.3899 27.5411 24.3058 27.5163 25.1276 27.7756C26.2306 28.1249 27.0414 29.2043 27.1453 30.3453C27.2381 31.3649 27.2758 35.0479 27.0083 35.8947Z" fill="url(#paint6_linear_73_316)" fill-opacity="0.7"/>
<defs>
<linearGradient id="paint0_linear_73_316" x1="33.1965" y1="44.4154" x2="57.9999" y2="44.4154" gradientUnits="userSpaceOnUse">
<stop offset="0.07" stop-color="white" stop-opacity="0.45"/>
<stop offset="0.21" stop-color="white" stop-opacity="0.42"/>
<stop offset="0.41" stop-color="white" stop-opacity="0.35"/>
<stop offset="0.65" stop-color="white" stop-opacity="0.23"/>
<stop offset="0.91" stop-color="white" stop-opacity="0.06"/>
<stop offset="1" stop-color="white" stop-opacity="0"/>
</linearGradient>
<linearGradient id="paint1_linear_73_316" x1="33.0183" y1="32.7796" x2="37.4361" y2="32.7796" gradientUnits="userSpaceOnUse">
<stop offset="0.07" stop-color="white"/>
<stop offset="0.15" stop-color="white" stop-opacity="0.97"/>
<stop offset="0.27" stop-color="white" stop-opacity="0.9"/>
<stop offset="0.41" stop-color="white" stop-opacity="0.78"/>
<stop offset="0.57" stop-color="white" stop-opacity="0.61"/>
<stop offset="0.74" stop-color="white" stop-opacity="0.39"/>
<stop offset="0.92" stop-color="white" stop-opacity="0.13"/>
<stop offset="1" stop-color="white" stop-opacity="0"/>
</linearGradient>
<linearGradient id="paint2_linear_73_316" x1="19.8071" y1="20.2963" x2="37.4222" y2="20.2963" gradientUnits="userSpaceOnUse">
<stop offset="0.07" stop-color="white"/>
<stop offset="0.15" stop-color="white" stop-opacity="0.97"/>
<stop offset="0.27" stop-color="white" stop-opacity="0.9"/>
<stop offset="0.41" stop-color="white" stop-opacity="0.78"/>
<stop offset="0.57" stop-color="white" stop-opacity="0.61"/>
<stop offset="0.74" stop-color="white" stop-opacity="0.39"/>
<stop offset="0.92" stop-color="white" stop-opacity="0.13"/>
<stop offset="1" stop-color="white" stop-opacity="0"/>
</linearGradient>
<linearGradient id="paint3_linear_73_316" x1="19.8071" y1="32.776" x2="24.2111" y2="32.776" gradientUnits="userSpaceOnUse">
<stop offset="0.07" stop-color="white"/>
<stop offset="0.15" stop-color="white" stop-opacity="0.97"/>
<stop offset="0.27" stop-color="white" stop-opacity="0.9"/>
<stop offset="0.41" stop-color="white" stop-opacity="0.78"/>
<stop offset="0.57" stop-color="white" stop-opacity="0.61"/>
<stop offset="0.74" stop-color="white" stop-opacity="0.39"/>
<stop offset="0.92" stop-color="white" stop-opacity="0.13"/>
<stop offset="1" stop-color="white" stop-opacity="0"/>
</linearGradient>
<linearGradient id="paint4_linear_73_316" x1="19.8071" y1="45.9894" x2="24.2111" y2="45.9894" gradientUnits="userSpaceOnUse">
<stop offset="0.07" stop-color="white"/>
<stop offset="0.15" stop-color="white" stop-opacity="0.97"/>
<stop offset="0.27" stop-color="white" stop-opacity="0.9"/>
<stop offset="0.41" stop-color="white" stop-opacity="0.78"/>
<stop offset="0.57" stop-color="white" stop-opacity="0.61"/>
<stop offset="0.74" stop-color="white" stop-opacity="0.39"/>
<stop offset="0.92" stop-color="white" stop-opacity="0.13"/>
<stop offset="1" stop-color="white" stop-opacity="0"/>
</linearGradient>
<linearGradient id="paint5_linear_73_316" x1="30.1292" y1="49.0068" x2="30.3295" y2="49.0068" gradientUnits="userSpaceOnUse">
<stop offset="0.07" stop-color="white"/>
<stop offset="0.15" stop-color="white" stop-opacity="0.97"/>
<stop offset="0.27" stop-color="white" stop-opacity="0.9"/>
<stop offset="0.41" stop-color="white" stop-opacity="0.78"/>
<stop offset="0.57" stop-color="white" stop-opacity="0.61"/>
<stop offset="0.74" stop-color="white" stop-opacity="0.39"/>
<stop offset="0.92" stop-color="white" stop-opacity="0.13"/>
<stop offset="1" stop-color="white" stop-opacity="0"/>
</linearGradient>
<linearGradient id="paint6_linear_73_316" x1="11" y1="33.5006" x2="46.2293" y2="33.5006" gradientUnits="userSpaceOnUse">
<stop offset="0.07" stop-color="white"/>
<stop offset="0.15" stop-color="white" stop-opacity="0.97"/>
<stop offset="0.27" stop-color="white" stop-opacity="0.9"/>
<stop offset="0.41" stop-color="white" stop-opacity="0.78"/>
<stop offset="0.57" stop-color="white" stop-opacity="0.61"/>
<stop offset="0.74" stop-color="white" stop-opacity="0.39"/>
<stop offset="0.92" stop-color="white" stop-opacity="0.13"/>
<stop offset="1" stop-color="white" stop-opacity="0"/>
</linearGradient>
</defs>
</svg>
