<svg width="65" height="65" viewBox="0 0 65 65" fill="none" xmlns="http://www.w3.org/2000/svg">
<path d="M44.0572 25.9372C50.8704 25.3159 55.654 32.3991 52.4519 38.4879C52.0756 39.2029 51.5557 39.7962 51.0843 40.441C56.1239 42.7906 59.7428 47.7647 60.105 53.3835C60.2252 55.2461 60.2721 58.3201 60.1112 60.153C60.0191 61.2006 59.3369 61.9297 58.2706 61.9937H31.5518C30.487 61.9297 29.8032 61.2006 29.7111 60.153C29.5503 58.3186 29.5971 55.2476 29.7173 53.3835C30.0827 47.7225 33.6891 42.8343 38.7381 40.441C36.8209 38.2615 35.956 35.5512 36.5352 32.6614C37.2487 29.1049 40.4554 26.2651 44.0556 25.9372H44.0572Z" fill="#28B4AD"/>
<path d="M35.4157 28.0386V25.8419C35.4157 23.6156 33.5547 20.4651 31.9108 19.0194C25.3817 13.2725 15.098 17.5534 14.5187 26.1932C14.2081 30.816 14.7701 35.7744 14.5125 40.4331C14.0878 42.5876 11.159 42.5892 10.7343 40.4331C11.3182 31.9697 8.36596 22.4307 15.5897 16.1061C23.1102 9.52402 34.9505 12.634 38.3539 21.9545C38.5569 22.5103 39.0612 24.0075 38.98 24.5305C38.9332 24.8349 37.706 25.5953 37.3719 25.8981C36.6522 26.5492 36.0418 27.3032 35.4157 28.0386Z" fill="#28B4AD"/>
<path d="M24.2328 21.1879C28.0391 20.8101 31.3411 23.5688 31.6221 27.3813C31.7283 28.8301 31.8126 32.5536 31.5893 33.8869C31.2599 35.8431 28.2764 35.9009 27.8721 33.9806C27.4599 32.0213 28.3295 28.2462 27.5504 26.5866C26.4029 24.1449 22.8855 24.557 22.2048 27.1128C22.3203 31.0174 21.7646 35.5215 22.1158 39.3793C22.3766 42.2395 26.1828 43.0732 27.5099 40.4893C28.0688 39.4012 27.5333 37.6167 29.3302 37.3247C31.7923 36.9251 31.8391 39.4995 31.3146 41.2075C29.1991 48.0925 18.8607 46.9887 18.3174 39.615C18.027 35.6652 18.5484 31.3671 18.3174 27.3782C18.5391 24.212 21.0526 21.5017 24.2328 21.1848V21.1879Z" fill="#28B4AD"/>
<path d="M23.5208 5.04489C28.4605 4.7186 33.7921 6.1799 37.7576 9.13842C38.8333 9.94089 39.87 10.8823 38.8598 12.3108C37.4235 14.342 35.1426 11.83 33.7156 11.0431C21.7441 4.45319 8.30981 12.5918 6.92656 25.7249C6.80323 26.8958 7.1186 28.4461 5.41374 28.7224C2.68784 29.1642 3.06566 26.0355 3.26081 24.3135C4.43485 13.9189 13.095 5.73183 23.5208 5.04489Z" fill="#28B4AD"/>
<path d="M4.63942 31.6294C5.6589 31.4639 6.72053 32.0572 6.89695 33.1126C7.28101 35.3998 6.77049 38.8079 6.92661 41.2746C7.16704 45.0778 8.80945 49.1104 11.3152 51.9628C12.0584 52.8105 13.6336 53.9237 14.1691 54.6887C15.1262 56.0594 14.0833 57.8127 12.4518 57.7221C11.7071 57.68 10.3332 56.417 9.77428 55.8783C5.99456 52.2438 3.44196 46.7701 3.12815 41.5119C2.99389 39.2685 2.92676 35.6386 3.12191 33.4357C3.19841 32.5739 3.74484 31.7746 4.63942 31.6294Z" fill="#28B4AD"/>
<path d="M27.3428 50.3579C27.0525 51.6381 26.8526 52.9542 26.8698 54.275C22.1877 54.9198 17.2246 53.0401 14.1708 49.4633C13.6853 48.895 12.3098 47.0028 12.1771 46.3533C11.9461 45.2261 12.7064 44.1286 13.8679 44.0599C15.5962 43.9569 15.7664 45.3011 16.6126 46.4298C19.0809 49.7225 23.318 51.2322 27.3444 50.3579H27.3428Z" fill="#28B4AD"/>
<path d="M26.8681 58.0734V60.7447C26.8681 60.9632 27.1414 61.6143 27.2241 61.8719C24.3717 62.195 21.4507 61.8828 18.7045 61.0741C17.39 60.6869 15.401 60.2341 15.4603 58.4887C15.4931 57.5566 16.3876 56.6824 17.3228 56.6605C17.9863 56.6449 19.7474 57.4583 20.5749 57.6597C22.5966 58.1515 24.8026 58.3544 26.8666 58.075L26.8681 58.0734Z" fill="#28B4AD"/>
<path d="M46.4552 23.1707C45.1921 22.9646 43.8994 23.0021 42.6583 23.2909C42.4491 22.273 42.1696 21.2598 41.798 20.2903C41.4483 19.377 40.3086 17.6409 40.1915 16.9102C39.8762 14.9462 42.307 13.8892 43.5419 15.3412C44.0883 15.9828 45.0251 18.1311 45.3561 18.9866C45.5606 19.5143 46.6769 22.9459 46.4536 23.1707H46.4552Z" fill="#28B4AD"/>
<path d="M44.0572 25.9372C50.8704 25.3159 55.654 32.3991 52.4519 38.4879C52.0756 39.2029 51.5557 39.7962 51.0843 40.441C56.1239 42.7906 59.7428 47.7647 60.105 53.3835C60.2252 55.2461 60.2721 58.3201 60.1112 60.153C60.0191 61.2006 59.3369 61.9297 58.2706 61.9937H31.5518C30.487 61.9297 29.8032 61.2006 29.7111 60.153C29.5503 58.3186 29.5971 55.2476 29.7173 53.3835C30.0827 47.7225 33.6891 42.8343 38.7381 40.441C36.8209 38.2615 35.956 35.5512 36.5352 32.6614C37.2487 29.1049 40.4554 26.2651 44.0556 25.9372H44.0572Z" fill="url(#paint0_linear_73_315)"/>
<path d="M35.4157 28.0386V25.8419C35.4157 23.6156 33.5547 20.4651 31.9108 19.0194C25.3817 13.2725 15.098 17.5534 14.5187 26.1932C14.2081 30.816 14.7701 35.7744 14.5125 40.4331C14.0878 42.5876 11.159 42.5892 10.7343 40.4331C11.3182 31.9697 8.36596 22.4307 15.5897 16.1061C23.1102 9.52402 34.9505 12.634 38.3539 21.9545C38.5569 22.5103 39.0612 24.0075 38.98 24.5305C38.9332 24.8349 37.706 25.5953 37.3719 25.8981C36.6522 26.5492 36.0418 27.3032 35.4157 28.0386Z" fill="url(#paint1_linear_73_315)" fill-opacity="0.7"/>
<path d="M24.2328 21.1879C28.0391 20.8101 31.3411 23.5688 31.6221 27.3813C31.7283 28.8301 31.8126 32.5536 31.5893 33.8869C31.2599 35.8431 28.2764 35.9009 27.8721 33.9806C27.4599 32.0213 28.3295 28.2462 27.5504 26.5866C26.4029 24.1449 22.8855 24.557 22.2048 27.1128C22.3203 31.0174 21.7646 35.5215 22.1158 39.3793C22.3766 42.2395 26.1828 43.0732 27.5099 40.4893C28.0688 39.4012 27.5333 37.6167 29.3302 37.3247C31.7923 36.9251 31.8391 39.4995 31.3146 41.2075C29.1991 48.0925 18.8607 46.9887 18.3174 39.615C18.027 35.6652 18.5484 31.3671 18.3174 27.3782C18.5391 24.212 21.0526 21.5017 24.2328 21.1848V21.1879Z" fill="url(#paint2_linear_73_315)" fill-opacity="0.5"/>
<path d="M23.5208 5.04489C28.4605 4.7186 33.7921 6.1799 37.7576 9.13842C38.8333 9.94089 39.87 10.8823 38.8598 12.3108C37.4235 14.342 35.1426 11.83 33.7156 11.0431C21.7441 4.45319 8.30981 12.5918 6.92656 25.7249C6.80323 26.8958 7.1186 28.4461 5.41374 28.7224C2.68784 29.1642 3.06566 26.0355 3.26081 24.3135C4.43485 13.9189 13.095 5.73183 23.5208 5.04489Z" fill="url(#paint3_linear_73_315)" fill-opacity="0.7"/>
<path d="M4.63942 31.6294C5.6589 31.4639 6.72053 32.0572 6.89695 33.1126C7.28101 35.3998 6.77049 38.8079 6.92661 41.2746C7.16704 45.0778 8.80945 49.1104 11.3152 51.9628C12.0584 52.8105 13.6336 53.9237 14.1691 54.6887C15.1262 56.0594 14.0833 57.8127 12.4518 57.7221C11.7071 57.68 10.3332 56.417 9.77428 55.8783C5.99456 52.2438 3.44196 46.7701 3.12815 41.5119C2.99389 39.2685 2.92676 35.6386 3.12191 33.4357C3.19841 32.5739 3.74484 31.7746 4.63942 31.6294Z" fill="url(#paint4_linear_73_315)" fill-opacity="0.7"/>
<path d="M27.3428 50.3579C27.0525 51.6381 26.8526 52.9542 26.8698 54.275C22.1877 54.9198 17.2246 53.0401 14.1708 49.4633C13.6853 48.895 12.3098 47.0028 12.1771 46.3533C11.9461 45.2261 12.7064 44.1286 13.8679 44.0599C15.5962 43.9569 15.7664 45.3011 16.6126 46.4298C19.0809 49.7225 23.318 51.2322 27.3444 50.3579H27.3428Z" fill="url(#paint5_linear_73_315)" fill-opacity="0.7"/>
<path d="M26.8681 58.0734V60.7447C26.8681 60.9632 27.1414 61.6143 27.2241 61.8719C24.3717 62.195 21.4507 61.8828 18.7045 61.0741C17.39 60.6869 15.401 60.2341 15.4603 58.4887C15.4931 57.5566 16.3876 56.6824 17.3228 56.6605C17.9863 56.6449 19.7474 57.4583 20.5749 57.6597C22.5966 58.1515 24.8026 58.3544 26.8666 58.075L26.8681 58.0734Z" fill="url(#paint6_linear_73_315)" fill-opacity="0.7"/>
<path d="M46.4552 23.1707C45.1921 22.9646 43.8994 23.0021 42.6583 23.2909C42.4491 22.273 42.1696 21.2598 41.798 20.2903C41.4483 19.377 40.3086 17.6409 40.1915 16.9102C39.8762 14.9462 42.307 13.8892 43.5419 15.3412C44.0883 15.9828 45.0251 18.1311 45.3561 18.9866C45.5606 19.5143 46.6769 22.9459 46.4536 23.1707H46.4552Z" fill="url(#paint7_linear_73_315)"/>
<defs>
<linearGradient id="paint0_linear_73_315" x1="29.6096" y1="43.9475" x2="60.2158" y2="43.9475" gradientUnits="userSpaceOnUse">
<stop offset="0.07" stop-color="white" stop-opacity="0.45"/>
<stop offset="0.21" stop-color="white" stop-opacity="0.42"/>
<stop offset="0.41" stop-color="white" stop-opacity="0.35"/>
<stop offset="0.65" stop-color="white" stop-opacity="0.23"/>
<stop offset="0.91" stop-color="white" stop-opacity="0.06"/>
<stop offset="1" stop-color="white" stop-opacity="0"/>
</linearGradient>
<linearGradient id="paint1_linear_73_315" x1="10.6141" y1="27.3267" x2="38.9878" y2="27.3267" gradientUnits="userSpaceOnUse">
<stop offset="0.07" stop-color="white"/>
<stop offset="0.15" stop-color="white" stop-opacity="0.97"/>
<stop offset="0.27" stop-color="white" stop-opacity="0.9"/>
<stop offset="0.41" stop-color="white" stop-opacity="0.78"/>
<stop offset="0.57" stop-color="white" stop-opacity="0.61"/>
<stop offset="0.74" stop-color="white" stop-opacity="0.39"/>
<stop offset="0.92" stop-color="white" stop-opacity="0.13"/>
<stop offset="1" stop-color="white" stop-opacity="0"/>
</linearGradient>
<linearGradient id="paint2_linear_73_315" x1="18.2268" y1="33.481" x2="31.7298" y2="33.481" gradientUnits="userSpaceOnUse">
<stop offset="0.07" stop-color="white"/>
<stop offset="0.15" stop-color="white" stop-opacity="0.97"/>
<stop offset="0.27" stop-color="white" stop-opacity="0.9"/>
<stop offset="0.41" stop-color="white" stop-opacity="0.78"/>
<stop offset="0.57" stop-color="white" stop-opacity="0.61"/>
<stop offset="0.74" stop-color="white" stop-opacity="0.39"/>
<stop offset="0.92" stop-color="white" stop-opacity="0.13"/>
<stop offset="1" stop-color="white" stop-opacity="0"/>
</linearGradient>
<linearGradient id="paint3_linear_73_315" x1="3.12342" y1="16.8821" x2="39.2704" y2="16.8821" gradientUnits="userSpaceOnUse">
<stop offset="0.07" stop-color="white"/>
<stop offset="0.15" stop-color="white" stop-opacity="0.97"/>
<stop offset="0.27" stop-color="white" stop-opacity="0.9"/>
<stop offset="0.41" stop-color="white" stop-opacity="0.78"/>
<stop offset="0.57" stop-color="white" stop-opacity="0.61"/>
<stop offset="0.74" stop-color="white" stop-opacity="0.39"/>
<stop offset="0.92" stop-color="white" stop-opacity="0.13"/>
<stop offset="1" stop-color="white" stop-opacity="0"/>
</linearGradient>
<linearGradient id="paint4_linear_73_315" x1="3.00013" y1="44.6641" x2="14.5329" y2="44.6641" gradientUnits="userSpaceOnUse">
<stop offset="0.07" stop-color="white"/>
<stop offset="0.15" stop-color="white" stop-opacity="0.97"/>
<stop offset="0.27" stop-color="white" stop-opacity="0.9"/>
<stop offset="0.41" stop-color="white" stop-opacity="0.78"/>
<stop offset="0.57" stop-color="white" stop-opacity="0.61"/>
<stop offset="0.74" stop-color="white" stop-opacity="0.39"/>
<stop offset="0.92" stop-color="white" stop-opacity="0.13"/>
<stop offset="1" stop-color="white" stop-opacity="0"/>
</linearGradient>
<linearGradient id="paint5_linear_73_315" x1="12.135" y1="49.226" x2="27.3428" y2="49.226" gradientUnits="userSpaceOnUse">
<stop offset="0.07" stop-color="white"/>
<stop offset="0.15" stop-color="white" stop-opacity="0.97"/>
<stop offset="0.27" stop-color="white" stop-opacity="0.9"/>
<stop offset="0.41" stop-color="white" stop-opacity="0.78"/>
<stop offset="0.57" stop-color="white" stop-opacity="0.61"/>
<stop offset="0.74" stop-color="white" stop-opacity="0.39"/>
<stop offset="0.92" stop-color="white" stop-opacity="0.13"/>
<stop offset="1" stop-color="white" stop-opacity="0"/>
</linearGradient>
<linearGradient id="paint6_linear_73_315" x1="15.4603" y1="59.3271" x2="27.2257" y2="59.3271" gradientUnits="userSpaceOnUse">
<stop offset="0.07" stop-color="white"/>
<stop offset="0.15" stop-color="white" stop-opacity="0.97"/>
<stop offset="0.27" stop-color="white" stop-opacity="0.9"/>
<stop offset="0.41" stop-color="white" stop-opacity="0.78"/>
<stop offset="0.57" stop-color="white" stop-opacity="0.61"/>
<stop offset="0.74" stop-color="white" stop-opacity="0.39"/>
<stop offset="0.92" stop-color="white" stop-opacity="0.13"/>
<stop offset="1" stop-color="white" stop-opacity="0"/>
</linearGradient>
<linearGradient id="paint7_linear_73_315" x1="40.1634" y1="18.9788" x2="46.4848" y2="18.9788" gradientUnits="userSpaceOnUse">
<stop offset="0.07" stop-color="white"/>
<stop offset="0.15" stop-color="white" stop-opacity="0.97"/>
<stop offset="0.27" stop-color="white" stop-opacity="0.9"/>
<stop offset="0.41" stop-color="white" stop-opacity="0.78"/>
<stop offset="0.57" stop-color="white" stop-opacity="0.61"/>
<stop offset="0.74" stop-color="white" stop-opacity="0.39"/>
<stop offset="0.92" stop-color="white" stop-opacity="0.13"/>
<stop offset="1" stop-color="white" stop-opacity="0"/>
</linearGradient>
</defs>
</svg>
