<svg width="40" height="40" viewBox="0 0 40 40" fill="none" xmlns="http://www.w3.org/2000/svg">
<rect width="40" height="40" rx="12" fill="#07F4E2"/>
<path d="M23.8437 23.6741C23.3252 23.6783 22.8257 23.4856 22.4577 23.1388L20.4492 21.2521C20.3018 21.1201 20.0717 21.1222 19.9253 21.2552L17.9337 23.1744C17.57 23.5264 17.0737 23.7255 16.5551 23.7276L16.1617 23.7297L18.7058 26.1193C19.5001 26.8651 20.78 26.8568 21.5648 26.1014L24.0845 23.6721H23.8437V23.6741Z" fill="#003A38"/>
<path d="M16.5117 17.002C17.0345 16.9988 17.5265 17.1895 17.8977 17.5373L19.9136 19.4314C20.0589 19.5686 20.2944 19.5675 20.4375 19.4282L22.4217 17.5163C22.7854 17.1643 23.2817 16.9653 23.7992 16.9632H24.0399L21.4884 14.5652C20.6942 13.8193 19.4142 13.8277 18.6294 14.583L16.1161 17.0051L16.5095 17.003L16.5117 17.002Z" fill="#003A38"/>
<path d="M26.1524 18.9442L24.6105 17.4954C24.5765 17.509 24.5394 17.5163 24.5023 17.5163L23.8056 17.5205C23.445 17.5226 23.0929 17.664 22.8416 17.9081L20.8575 19.82C20.4874 20.1783 19.8829 20.1835 19.5064 19.8315C19.5054 19.8305 19.5043 19.8294 19.5032 19.8284L17.4873 17.9333C17.2285 17.6913 16.8796 17.5561 16.517 17.5572L15.6611 17.5624C15.6262 17.5624 15.5901 17.5561 15.5572 17.5446L14.028 19.0186C13.2433 19.7739 13.2518 20.9923 14.045 21.7392L15.5922 23.1933C15.6251 23.1807 15.659 23.1734 15.6951 23.1723L16.5519 23.1671C16.9136 23.165 17.2635 23.0246 17.517 22.7805L19.5075 20.8603C19.885 20.5135 20.481 20.5104 20.8638 20.8519L22.8724 22.7386C23.1279 22.9796 23.4811 23.1158 23.8416 23.1137L24.5384 23.1095C24.5765 23.1095 24.6136 23.1179 24.6465 23.1304L26.1694 21.6627C26.9541 20.9074 26.9456 19.688 26.1524 18.9421V18.9442Z" fill="#003A38"/>
<path d="M9.86364 18.8101C10.8541 14.8523 13.676 11.8572 17.4121 10.7981C20.514 9.91911 23.7951 10.5152 26.4982 12.3831L25.6339 12.4983C25.0973 12.5706 24.7208 13.0577 24.794 13.5889C24.8672 14.119 25.3603 14.4909 25.898 14.4186L29.142 13.9838C29.6786 13.9115 30.055 13.4244 29.9818 12.8933L29.5418 9.68864C29.4686 9.15855 28.9755 8.78665 28.4378 8.85894C27.9001 8.93122 27.5247 9.41836 27.5979 9.94949L27.7347 10.9468C26.1726 9.82483 24.2882 9.04436 22.3199 8.72589C22.0315 8.6798 21.742 8.64313 21.4504 8.61694C18.3156 8.33304 15.0409 9.32198 12.4671 11.3302C9.82546 13.3919 8.19234 16.2498 7.86995 19.379C7.82117 19.8567 7.91343 20.2621 8.12341 20.4905C8.28566 20.6665 8.52639 20.7513 8.85937 20.7492C9.41082 20.745 9.5508 20.5387 9.73745 19.4471C9.7735 19.2365 9.81062 19.0186 9.86258 18.8101H9.86364Z" fill="#003A38"/>
<path d="M31.9617 21.5506C31.8196 21.3579 31.5895 21.2479 31.2586 21.2144C30.7093 21.1588 30.5481 21.3485 30.2406 22.4128C30.1812 22.6182 30.1197 22.8308 30.0455 23.032C28.6213 26.8589 25.4844 29.5302 21.6529 30.1766C18.4725 30.714 15.2773 29.7659 12.798 27.6163L13.6697 27.5953C14.2116 27.5817 14.6389 27.1375 14.6262 26.6032C14.6124 26.0679 14.1628 25.6457 13.6219 25.6583L10.3493 25.7379C9.80743 25.7515 9.38006 26.1957 9.39278 26.73L9.47338 29.9629C9.48716 30.4982 9.9368 30.9204 10.4776 30.9078C11.0195 30.8942 11.4469 30.45 11.4342 29.9158L11.4087 28.909C12.8372 30.1934 14.623 31.1739 16.5446 31.703C16.8256 31.7805 17.1098 31.8486 17.3962 31.9062C20.4811 32.5274 23.8449 31.8999 26.6265 30.1839C29.4813 28.4219 31.422 25.7578 32.0901 22.6831C32.1919 22.2138 32.1452 21.801 31.9617 21.5506Z" fill="#003A38"/>
</svg>
