<svg width="40" height="40" viewBox="0 0 40 40" fill="none" xmlns="http://www.w3.org/2000/svg">
<rect width="40" height="40" rx="12" fill="#07F4E2"/>
<path d="M32.143 8.57153V12.1166H30.7622V9.95291H28.5979V8.57153H32.143Z" fill="#003A38"/>
<path d="M8.57153 32.143V28.5979H9.95291V30.7622H12.1166V32.143H8.57153Z" fill="#003A38"/>
<path d="M32.143 28.5979V32.143H28.5979V30.7622H30.7622V28.5979H32.143Z" fill="#003A38"/>
<path d="M13.2674 30.1631C13.6874 30.1472 14.1131 30.1853 14.5331 30.1631C19.6392 29.8913 23.6597 25.8603 23.9045 20.7506C23.9611 19.5642 23.9789 17.9657 23.9045 16.7872C23.7009 13.5404 19.6589 12.1849 17.596 14.7189C16.0031 16.6759 17.5075 19.2751 16.3432 21.2924C15.7318 22.3515 14.5073 23.0945 13.2674 23.0281V21.7162L13.3436 21.6541C14.3991 21.6682 15.3345 20.7807 15.4305 19.7358C15.6033 17.855 15.0571 16.2786 16.0849 14.4968C18.5432 10.234 25.0067 11.8214 25.2859 16.7417C25.546 21.3262 25.1881 25.4126 21.6245 28.6458C19.3434 30.7161 16.3506 31.6989 13.2674 31.5451V30.1631Z" fill="#003A38"/>
<path d="M13.9581 19.5285H12.6462C12.5804 19.4879 12.5828 19.4368 12.5748 19.3698C12.482 18.5776 12.5428 17.008 12.6234 16.1913C13.2305 10.063 20.443 7.02163 25.2588 10.921C28.5616 13.5952 28.2836 17.473 28.0917 21.3478C28.0818 21.5458 28.1064 21.7488 28.0911 21.9456C27.8014 25.586 25.9876 29.1274 23.1012 31.3588L22.247 30.3249C24.6413 28.3549 26.3081 25.4655 26.6586 22.3546C26.8468 20.6835 26.8917 17.9048 26.7042 16.2429C26.0485 10.416 18.4884 8.47682 15.1174 13.2987C13.7742 15.2201 13.939 17.2848 13.9581 19.5285Z" fill="#003A38"/>
<path d="M13.2674 28.6901V27.3087C16.4933 27.4545 19.4725 25.4667 20.5882 22.4524C21.2678 20.6171 21.0175 18.6853 21.0273 16.7633C20.817 16.0215 19.7505 16.0984 19.6663 16.8807C19.5703 17.7793 19.7192 18.8569 19.6681 19.7831C19.4824 23.1566 16.6852 25.936 13.2668 25.8812V24.5694C13.482 24.4623 13.8025 24.4894 14.0651 24.447C16.4127 24.0669 18.1453 22.1092 18.2867 19.737C18.3482 18.7037 18.0776 16.9035 18.4909 16.0277C19.363 14.1782 22.2267 14.6789 22.4278 16.6968C22.5256 17.6747 22.4813 19.328 22.4303 20.3354C22.191 25.0841 18.0302 28.9122 13.2668 28.6889L13.2674 28.6901Z" fill="#003A38"/>
<path d="M12.1166 8.57153V9.95291H9.95291V12.1166H8.57153V8.57153H12.1166Z" fill="#003A38"/>
</svg>
