<svg width="27" height="22" viewBox="0 0 27 22" fill="none" xmlns="http://www.w3.org/2000/svg">
<path fill-rule="evenodd" clip-rule="evenodd" d="M1.35 0H25.6499C26.008 0 26.3513 0.142232 26.6045 0.395405C26.8577 0.648578 26.9999 0.991955 26.9999 1.35V20.2499C26.9999 20.608 26.8577 20.9514 26.6045 21.2045C26.3513 21.4577 26.008 21.5999 25.6499 21.5999H1.35C0.991955 21.5999 0.648578 21.4577 0.395405 21.2045C0.142231 20.9514 0 20.608 0 20.2499V1.35C0 0.991955 0.142231 0.648578 0.395405 0.395405C0.648578 0.142232 0.991955 0 1.35 0ZM21.4362 16.0362C22.1957 15.2766 23.2258 14.85 24.2999 14.85V6.74998C23.2258 6.74998 22.1957 6.32329 21.4362 5.56377C20.6766 4.80425 20.2499 3.77412 20.2499 2.69999H6.74998C6.74998 3.77412 6.32329 4.80425 5.56377 5.56377C4.80425 6.32329 3.77412 6.74998 2.69999 6.74998V14.85C3.77412 14.85 4.80425 15.2766 5.56377 16.0362C6.32329 16.7957 6.74998 17.8258 6.74998 18.8999H20.2499C20.2499 17.8258 20.6766 16.7957 21.4362 16.0362ZM8.09998 10.8C8.09998 7.82188 10.5219 5.39998 13.5 5.39998C16.4781 5.39998 18.8999 7.82188 18.8999 10.8C18.8999 13.7781 16.4781 16.2 13.5 16.2C10.5219 16.2 8.09998 13.7781 8.09998 10.8ZM10.8 10.8C10.8 12.289 12.0109 13.5 13.5 13.5C14.989 13.5 16.2 12.289 16.2 10.8C16.2 9.31092 14.989 8.09998 13.5 8.09998C12.0109 8.09998 10.8 9.31092 10.8 10.8Z" fill="#003A38"/>
</svg>
