<svg width="27" height="27" viewBox="0 0 27 27" fill="none" xmlns="http://www.w3.org/2000/svg">
<path fill-rule="evenodd" clip-rule="evenodd" d="M0 0H4.04999H26.9999V2.69999H24.2999V25.6499C24.2999 26.008 24.1577 26.3513 23.9045 26.6045C23.6514 26.8577 23.308 26.9999 22.9499 26.9999H4.04999C3.69195 26.9999 3.34857 26.8577 3.0954 26.6045C2.84222 26.3513 2.69999 26.008 2.69999 25.6499V2.69999H0V0ZM5.39998 2.69999V24.2999H21.5999V2.69999H5.39998ZM10.8 16.2C10.8 16.389 11.016 17.5499 13.5 17.5499C15.363 17.5499 16.2 16.632 16.2 16.2C16.2 15.768 16.2 14.85 13.5 14.85C8.80197 14.85 8.09998 12.312 8.09998 10.8C8.09998 9.05847 9.44997 7.31698 12.15 6.87148V5.39998H14.85V6.91198C15.7513 7.09577 16.5632 7.58091 17.152 8.28756C17.7409 8.99422 18.0717 9.88029 18.0899 10.8H15.39C15.3765 10.314 15.255 9.44997 13.5 9.44997C11.745 9.44997 10.8 10.3005 10.8 10.8C10.8 11.2995 10.8 12.15 13.5 12.15C18.1979 12.15 18.8999 14.688 18.8999 16.2C18.8999 17.9414 17.5499 19.6829 14.85 20.1419V21.5999H12.15V20.1419C8.99097 19.6424 8.09998 17.4419 8.09998 16.2H10.8Z" fill="#003A38"/>
</svg>
