<svg width="27" height="26" viewBox="0 0 27 26" fill="none" xmlns="http://www.w3.org/2000/svg">
<path d="M23.1497 1.31085C22.9092 0.911953 22.5699 0.581781 22.1646 0.352175C21.7593 0.122569 21.3017 0.00127795 20.8358 0H6.16408C5.22178 0 4.33484 0.502198 3.85019 1.31085L0.19305 7.40473C0.0664952 7.61453 -0.000263202 7.85496 7.79864e-07 8.09998C0.00539227 9.40301 0.485316 10.6595 1.35 11.6343V22.9499C1.35 24.439 2.56094 25.6499 4.04999 25.6499H22.9499C24.439 25.6499 25.6499 24.439 25.6499 22.9499V11.6343C26.5146 10.6595 26.9945 9.40301 26.9999 8.09998C27.0002 7.85496 26.9334 7.61453 26.8069 7.40473L23.1497 1.31085ZM24.2783 8.43882C24.195 9.09063 23.8772 9.68979 23.3843 10.1243C22.8913 10.5589 22.257 10.799 21.5999 10.8C20.1109 10.8 18.8999 9.58902 18.8999 8.09998C18.8999 8.00818 18.8662 7.92718 18.8473 7.84078L18.8743 7.83538L17.8469 2.69999H20.8358L24.2783 8.43882ZM11.9056 2.69999H15.093L16.1905 8.18772C16.1433 9.63492 14.958 10.8 13.5 10.8C12.042 10.8 10.8567 9.63492 10.8094 8.18772L11.9056 2.69999ZM6.16408 2.69999H9.15297L8.12698 7.83538L8.15398 7.84078C8.13373 7.92718 8.09998 8.00818 8.09998 8.09998C8.09998 9.58902 6.88903 10.8 5.39998 10.8C4.74287 10.799 4.10859 10.5589 3.61567 10.1243C3.12274 9.68979 2.80492 9.09063 2.72159 8.43882L6.16408 2.69999ZM10.8 22.9499V18.8999H16.2V22.9499H10.8ZM18.8999 22.9499V18.8999C18.8999 17.4109 17.689 16.2 16.2 16.2H10.8C9.31092 16.2 8.09998 17.4109 8.09998 18.8999V22.9499H4.04999V13.3083C4.48334 13.4203 4.93019 13.5 5.39998 13.5C6.16653 13.5004 6.92434 13.3371 7.62276 13.0212C8.32118 12.7053 8.94413 12.244 9.44997 11.668C10.4395 12.7912 11.8894 13.5 13.5 13.5C15.1105 13.5 16.5604 12.7912 17.5499 11.668C18.0558 12.244 18.6787 12.7053 19.3772 13.0212C20.0756 13.3371 20.8334 13.5004 21.5999 13.5C22.0697 13.5 22.5166 13.4203 22.9499 13.3083V22.9499H18.8999Z" fill="#003A38"/>
</svg>
