<svg width="24" height="27" viewBox="0 0 24 27" fill="none" xmlns="http://www.w3.org/2000/svg">
<path fill-rule="evenodd" clip-rule="evenodd" d="M8 0H21.3333C22.804 0 24 1.196 24 2.66667V25.3333C24 25.687 23.8595 26.0261 23.6095 26.2761C23.3594 26.5262 23.0203 26.6667 22.6667 26.6667H1.33333C0.979711 26.6667 0.640573 26.5262 0.390524 26.2761C0.140476 26.0261 0 25.687 0 25.3333V13.3333C0 11.8627 1.196 10.6667 2.66667 10.6667H5.33333V2.66667C5.33333 1.196 6.52933 0 8 0ZM10.6667 13.3333H2.66667V24H10.6667V13.3333ZM13.3333 24H21.3333V2.66667H8V10.6667H10.6667C12.1373 10.6667 13.3333 11.8627 13.3333 13.3333V24ZM13.3333 5.33333H10.6667V8H13.3333V5.33333ZM18.6667 5.33333H16V8H18.6667V5.33333ZM18.6667 10.708H16V13.3333H18.6667V10.708ZM18.6667 16H16V18.6667H18.6667V16ZM8 16.0013H5.33333V18.668H8V16.0013Z" fill="#003A38"/>
</svg>
