<svg width="89" height="66" viewBox="0 0 89 66" fill="none" xmlns="http://www.w3.org/2000/svg">
<path d="M49.3253 19.9091C49.3253 13.9091 51.1124 9.09091 54.6867 5.45455C58.4398 1.81818 63.2651 0 69.1627 0C75.0602 0 79.7962 1.90909 83.3705 5.72728C87.1235 9.54546 89 14.9091 89 21.8182C89 26.3636 88.1958 31 86.5873 35.7273C84.9789 40.2727 82.9237 44.5454 80.4217 48.5454C78.0984 52.5454 75.4177 56.0909 72.3795 59.1818C69.3414 62.0909 66.4819 64.3636 63.8012 66L56.5633 63C59.244 58.8182 61.2098 54.8182 62.4608 51C63.8906 47.1818 64.7841 43.4545 65.1416 39.8182C60.3163 38.9091 56.4739 36.7273 53.6145 33.2727C50.755 29.8182 49.3253 25.3636 49.3253 19.9091ZM0 19.9091C0 13.9091 1.78715 9.09091 5.36145 5.45455C9.11446 1.81818 13.9398 0 19.8373 0C25.7349 0 30.4709 1.90909 34.0452 5.72728C37.7982 9.54546 39.6747 14.9091 39.6747 21.8182C39.6747 26.3636 38.8705 31 37.2621 35.7273C35.6536 40.2727 33.5984 44.5454 31.0964 48.5454C28.7731 52.5454 26.0924 56.0909 23.0542 59.1818C20.0161 62.0909 17.1566 64.3636 14.4759 66L7.23795 63C9.91868 58.8182 11.8845 54.8182 13.1355 51C14.5653 47.1818 15.4588 43.4545 15.8163 39.8182C10.991 38.9091 7.1486 36.7273 4.28916 33.2727C1.42972 29.8182 0 25.3636 0 19.9091Z" fill="#07F4E2"/>
</svg>
