<svg width="185" height="34" viewBox="0 0 185 34" fill="none" xmlns="http://www.w3.org/2000/svg">
<g clip-path="url(#clip0_0_97)">
<path d="M33.0899 0.117273C32.9827 0.0902111 32.8756 0.0811904 32.7594 0.0811904C32.295 0.0811904 31.8842 0.270626 31.5895 0.57733C31.2947 0.875014 31.1161 1.28997 31.1161 1.741V31.7259C31.1161 32.4385 31.5627 33.0519 32.1968 33.2865C32.3754 33.3496 32.563 33.3857 32.7594 33.3857C32.9202 33.3857 33.072 33.3586 33.2239 33.3225C33.9026 33.1241 34.4028 32.4836 34.4028 31.7259V1.741C34.4028 0.938159 33.8401 0.270626 33.0899 0.108253V0.117273Z" fill="#009895"/>
<path d="M90.303 3.45493C91.5712 3.45493 93.2324 3.99618 93.9469 6.56708L98.725 25.1768L100.52 32.1949C100.601 32.5197 100.77 32.8084 101.002 33.0249C101.235 33.2414 101.529 33.3947 101.851 33.4308C102.967 33.5571 103.816 32.5287 103.548 31.4733L101.976 25.3482L97.2782 7.00008C96.1618 2.37245 93.8754 0.135307 90.303 0.135307C86.7305 0.135307 84.4441 2.38147 83.3277 6.99105L77.0759 31.4011C76.9777 31.798 77.0223 32.222 77.192 32.5738C77.3796 32.9707 77.7279 33.2865 78.1744 33.3947C79.0408 33.6112 79.8624 33.088 80.0768 32.2671L81.4879 26.7464L86.659 6.58512C87.3735 3.99618 89.0437 3.45493 90.3119 3.45493H90.303Z" fill="#009895"/>
<path d="M8.55603 33.4488H19.6485C20.2916 33.4488 20.8364 33.061 21.0775 32.5017C21.1936 32.231 21.2383 31.9153 21.1758 31.5906C21.1132 31.2568 20.9435 30.9681 20.7024 30.7426C20.3987 30.463 19.979 30.3006 19.5503 30.3006H8.5471C6.78766 30.3006 5.59981 29.9578 4.90318 29.2632C3.80465 28.1086 3.26878 26.99 3.26878 25.8354V1.80415C3.26878 1.3441 3.08123 0.929145 2.7865 0.631461C2.49177 0.333777 2.08094 0.144342 1.62545 0.144342C1.16996 0.144342 0.785919 0.315736 0.500121 0.595378C0.187531 0.902082 -0.0178858 1.32606 -0.0178858 1.80415V25.2941C0.0089077 30.3277 3.27771 33.4488 8.53817 33.4488H8.55603Z" fill="#009895"/>
<path d="M68.6002 0.0992319C67.6714 0.0721697 66.9033 0.82089 66.9033 1.75904C66.9033 1.75904 66.948 26.8637 66.948 27.1253C66.948 27.874 66.9122 28.4694 66.8408 28.9204C66.7068 29.6872 66.037 30.2826 65.2332 30.2826C64.6616 30.2826 64.1614 29.9849 63.8667 29.5429C63.7863 29.4166 63.5273 28.8122 63.4648 28.6318L61.5178 21.9474L57.1773 8.41634C57.0701 8.10061 56.9272 7.62251 56.7307 6.97302C56.043 4.80805 55.3553 3.28355 54.6676 2.39952C54.3997 2.05673 53.5244 1.2178 52.9796 0.865993C52.2026 0.378874 51.2916 0.0992319 50.3181 0.0992319C48.7641 0.0992319 45.9776 0.938159 45.3167 4.31191C45.1381 5.19594 45.0398 6.32353 45.0398 7.67664V31.6627C45.0398 32.1769 45.2542 32.664 45.6114 32.9978C45.8258 33.1872 46.0848 33.3316 46.3795 33.3857C47.4245 33.5751 48.3354 32.7723 48.3354 31.7529V7.53231C48.3354 6.52198 48.389 5.75522 48.4337 5.14181C48.4426 5.0065 48.4962 4.6547 48.7373 4.23072C49.0767 3.67144 49.6751 3.29257 50.3717 3.29257C50.9165 3.29257 51.4077 3.52711 51.7561 3.88793C51.8722 3.98716 51.9793 4.10443 52.0687 4.23072C52.4973 4.79903 52.9975 5.99878 53.5691 7.81195C53.7656 8.4434 53.9263 8.94856 54.0603 9.31841L60.33 29.5068C60.7319 30.6975 61.3481 31.6176 62.1877 32.2761C62.8218 32.7903 63.5184 33.1151 64.2865 33.2594C64.5991 33.3045 64.9117 33.3316 65.2064 33.3316C65.3582 33.3316 65.519 33.3316 65.6708 33.3135C65.8137 33.2955 65.9655 33.2774 66.1084 33.2504C66.1263 33.2504 66.1352 33.2504 66.1531 33.2504C68.1983 32.8535 69.797 31.1756 70.1007 29.0828C70.181 28.4514 70.2257 27.7117 70.2257 26.8547L70.1989 1.80415C70.1989 0.893055 69.5023 0.108253 68.6002 0.0811904V0.0992319Z" fill="#009895"/>
<path d="M146.775 3.31059C148.043 3.31059 149.704 3.85183 150.419 6.42274L155.197 25.0325L156.992 32.0506C157.072 32.3753 157.242 32.664 157.474 32.8805C157.707 33.097 158.001 33.2504 158.323 33.2864C159.439 33.4127 160.288 32.3844 160.02 31.3289L158.448 25.2039L153.75 6.85573C152.634 2.2281 150.347 -0.00903477 146.775 -0.00903477C143.202 -0.00903477 140.916 2.23712 139.8 6.84671L133.548 31.2568C133.449 31.6537 133.494 32.0777 133.664 32.4295C133.851 32.8264 134.2 33.1421 134.646 33.2504C135.513 33.4669 136.334 32.9437 136.549 32.1228L137.96 26.6021L143.131 6.44078C143.845 3.85183 145.515 3.31059 146.784 3.31059H146.775Z" fill="#003A38"/>
<path d="M130.761 14.7489C131.538 13.2695 131.931 11.6007 131.931 9.78749C131.931 7.97432 131.538 6.26941 130.761 4.82609C129.984 3.38278 128.912 2.22813 127.555 1.40724C126.206 0.577334 124.688 0.162381 123.053 0.162381H112.077C111.604 0.162381 111.211 0.324754 110.871 0.667541C110.532 1.01033 110.371 1.40724 110.371 1.88534V31.1666C110.371 31.6537 110.523 32.0506 110.827 32.3844C111.13 32.7182 111.523 32.8805 112.023 32.8805C112.497 32.8805 112.872 32.7182 113.176 32.3844C113.479 32.0416 113.631 31.6447 113.631 31.1666V19.6111H123.053C124.688 19.6111 126.206 19.169 127.555 18.294C128.912 17.419 129.984 16.2283 130.761 14.7489ZM127.849 13.0801C127.367 14.0723 126.706 14.8752 125.876 15.4615C125.045 16.0569 124.089 16.3546 123.053 16.3546H113.631V3.3918H123.053C124.098 3.3918 125.045 3.67144 125.876 4.23975C126.697 4.79903 127.367 5.56579 127.849 6.53101C128.332 7.49623 128.582 8.58773 128.582 9.78749C128.582 10.9872 128.341 12.0968 127.858 13.0891L127.849 13.0801Z" fill="#003A38"/>
<path d="M183.348 0C182.794 0 182.33 0.261601 181.937 0.811865L172.863 13.7746L163.467 0.757741C163.101 0.243559 162.654 0 162.101 0C161.716 0 161.306 0.162373 160.895 0.478098C160.493 0.784803 160.305 1.17269 160.305 1.66883C160.305 1.85827 160.35 2.06574 160.43 2.27322C160.52 2.48972 160.645 2.71524 160.823 2.9588L171.094 17.0401V31.1485C171.094 31.6266 171.246 32.0236 171.568 32.3663C171.889 32.7001 172.282 32.8625 172.791 32.8625C173.229 32.8625 173.604 32.7001 173.916 32.3663C174.238 32.0236 174.39 31.6266 174.39 31.1485V17.2747L184.705 2.72426C184.812 2.56188 184.884 2.39951 184.929 2.22812C184.973 2.05672 184.991 1.86729 184.991 1.66883C184.991 1.2178 184.839 0.838927 184.509 0.49614C184.187 0.162373 183.803 0 183.33 0L183.348 0Z" fill="#003A38"/>
</g>
<defs>
<clipPath id="clip0_0_97">
<rect width="184.343" height="33.33" fill="white" transform="scale(1.00356)"/>
</clipPath>
</defs>
</svg>
