<svg width="16" height="16" viewBox="0 0 16 16" fill="none" xmlns="http://www.w3.org/2000/svg">
<path d="M8 16C12.4183 16 16 12.4183 16 8C16 3.58172 12.4183 0 8 0C3.58172 0 0 3.58172 0 8C0 12.4183 3.58172 16 8 16Z" fill="#07F4E2"/>
<path d="M12.243 4.89695C11.7447 4.39861 10.9361 4.39861 10.4378 4.89695L6.93916 8.39556L5.56108 7.01747C5.06273 6.51912 4.25419 6.51912 3.75584 7.01747C3.25749 7.51582 3.25749 8.32436 3.75584 8.82271L6.03603 11.1029C6.53438 11.6013 7.34292 11.6013 7.84127 11.1029L12.242 6.70219C12.7403 6.20384 12.7403 5.3953 12.242 4.89695H12.243Z" fill="white"/>
</svg>
