<svg width="40" height="40" viewBox="0 0 40 40" fill="none" xmlns="http://www.w3.org/2000/svg">
<rect width="40" height="40" rx="12" fill="#07F4E2"/>
<path d="M19.6428 30.7143C25.3629 30.7143 29.9999 26.0772 29.9999 20.3571C29.9999 14.6371 25.3629 10 19.6428 10C13.9227 10 9.28564 14.6371 9.28564 20.3571C9.28564 26.0772 13.9227 30.7143 19.6428 30.7143Z" fill="#003A38"/>
<path d="M25.2242 16.2519C24.5688 15.5352 23.5056 15.5352 22.8502 16.2519L18.2493 21.2833L16.4371 19.3015C15.7817 18.5848 14.7184 18.5848 14.0631 19.3015C13.4077 20.0181 13.4077 21.1809 14.0631 21.8976L17.0617 25.1768C17.717 25.8935 18.7803 25.8935 19.4357 25.1768L25.2229 18.848C25.8782 18.1314 25.8782 16.9686 25.2229 16.2519H25.2242Z" fill="#07F4E2"/>
</svg>
