<svg width="65" height="65" viewBox="0 0 65 65" fill="none" xmlns="http://www.w3.org/2000/svg">
<path d="M50.9706 12.4639C52.7424 13.1349 54.3285 15.6823 53.8093 17.5546L51.7708 24.9054C56.6071 24.7936 58.3173 31.023 54.1797 33.5058C54.2372 33.9993 54.548 34.3953 54.6557 34.8785C55.0907 36.8195 54.1151 38.9443 52.3966 39.9168C53.5231 42.2457 52.926 44.9911 50.6218 46.332C50.671 46.8029 50.9685 47.1794 51.0793 47.6339C51.4907 49.3133 50.8444 51.1098 49.5517 52.228C47.9667 53.5987 45.7506 53.3022 43.8291 53.73C43.0514 55.7029 42.7826 58.0071 42.0347 59.9677C41.1935 62.1734 39.0113 63.3368 36.7142 62.9141L14.5161 56.7585C12.5966 56.221 10.8915 53.5371 11.4291 51.6002L12.8931 46.3217L1.79252 43.2439C1.34111 43.1188 0.889699 42.0754 1.0241 41.5994L7.05247 20.0476C7.4372 19.5275 7.98094 19.2453 8.64472 19.3336C10.3231 19.5572 12.2037 20.5267 13.9293 20.735L20.9918 16.7513C21.9716 14.4245 22.2783 11.7499 23.136 9.36662C23.8952 7.25731 26.0014 5.81074 28.2759 6.17392L50.9696 12.467L50.9706 12.4639ZM24.6082 15.5674L26.3349 16.0465C26.4108 16.067 27.0838 16.5379 27.2059 16.6354C29.4619 18.4338 29.4188 21.923 27.2182 23.783C25.6721 25.0901 23.0857 25.9693 21.393 27.1614L17.3846 41.6168L38.5004 47.4728C38.7958 46.4171 39.671 45.7308 40.5061 45.107C39.2862 42.7248 40.0444 40.123 42.2891 38.6939C41.0026 36.364 41.8213 33.6617 44.063 32.2808C42.5949 29.359 44.0117 26.196 47.1982 25.4266C47.4209 25.3732 48.4478 25.3086 48.5053 25.206L50.7705 17.0303C50.8341 16.4025 50.5889 15.8721 50.1037 15.4945L27.6214 9.20247C26.9638 9.23838 26.4682 9.52564 26.1328 10.1002L24.6093 15.5684L24.6082 15.5674ZM13.7128 43.3599L18.706 25.3527C18.8989 24.6571 24.6062 22 25.4362 21.2213C26.4939 19.9286 25.2228 18.2143 23.6551 18.8093L14.7716 23.8395C14.6392 23.9082 14.1283 24.0303 14.0329 24.0036L9.44495 22.7314L4.43737 40.7878L13.7118 43.3599H13.7128ZM51.8601 27.9309C51.4384 27.896 47.9195 28.3618 47.5306 28.5126C45.961 29.1199 46.3129 31.2816 47.9585 31.4734C48.5617 31.5442 51.2496 31.1738 51.9514 31.0323C54.111 30.5962 53.8647 28.0971 51.8601 27.9309ZM44.9176 37.1017C45.172 37.5531 45.6747 37.828 46.1795 37.8865C46.753 37.9532 49.6687 37.5695 50.3232 37.4187C52.2048 36.9857 52.0745 34.581 50.1663 34.3501C49.7702 34.3019 46.4257 34.7256 45.9599 34.8539C44.9894 35.1216 44.3954 36.1753 44.9166 37.1007L44.9176 37.1017ZM48.4017 40.7858C47.9225 40.7304 44.4221 41.1664 43.9737 41.3388C42.4441 41.9277 42.7621 44.0893 44.4005 44.3006C44.9371 44.3704 47.7451 43.9908 48.3945 43.8585C50.5048 43.4307 50.3263 41.0095 48.4017 40.7858ZM46.5242 47.1712C46.081 47.1343 42.6072 47.5939 42.1948 47.7519C40.621 48.3582 41.0108 50.5424 42.6226 50.7137C43.2197 50.7774 45.923 50.4121 46.6145 50.2726C48.7371 49.8427 48.5371 47.3384 46.5232 47.1712H46.5242ZM38.3208 50.6091L16.5639 44.5756L14.4156 52.3214C14.3151 52.6846 14.9799 53.7556 15.4302 53.8274L37.6991 59.9512C38.3249 59.8887 38.7825 59.6055 39.1057 59.0556L40.7 53.3535C39.5838 52.6948 38.7774 51.8228 38.3198 50.6101L38.3208 50.6091Z" fill="#28B4AD"/>
<path d="M61.9297 7.97448C63.2151 9.87348 64.2411 13.4171 63.6214 15.6864C63.1762 17.3146 61.192 17.3741 60.6083 15.7521C60.4677 15.3612 60.6842 14.6492 60.6821 14.1947C60.6657 11.596 59.7177 9.44567 57.6043 7.86163C56.6194 7.12296 54.8928 6.8911 54.9123 5.45685C54.9297 4.19392 56.0541 3.76611 57.1396 4.11903C58.8908 4.68945 60.9088 6.46431 61.9307 7.97346L61.9297 7.97448Z" fill="#28B4AD"/>
<path d="M58.3686 10.8163C59.056 11.9777 59.5721 14.1906 59.2232 15.5181C58.7893 17.1689 56.3783 17.0847 56.1865 15.2022C56.0213 13.5822 56.4584 12.8343 54.9472 11.4811C54.466 11.0502 53.5888 10.8163 53.2277 10.3628C52.2561 9.14505 53.4103 7.51587 54.8825 7.92112C56.1157 8.2607 57.7274 9.73189 58.3697 10.8153L58.3686 10.8163Z" fill="#28B4AD"/>
<path d="M36.3264 17.5053C35.7293 16.4466 36.6485 15.0687 37.8386 15.2052C38.8009 15.315 43.1581 16.5245 44.0424 16.9257C45.6029 17.6336 44.9299 20.0712 43.2248 19.8742C42.1475 19.7491 38.1474 18.6174 37.1092 18.1866C36.8619 18.084 36.4567 17.7362 36.3264 17.5064V17.5053Z" fill="#28B4AD"/>
<path d="M31.8307 13.5566C33.9 13.6981 33.6251 16.7842 31.6686 16.6508C29.5993 16.5092 29.8743 13.4232 31.8307 13.5566Z" fill="#28B4AD"/>
<path d="M23.8008 49.7946L32.2627 52.1234C33.8067 52.9821 33.2035 55.1335 31.445 55.072L23.0703 52.7492C21.5694 51.9213 22.0844 49.8274 23.8008 49.7946Z" fill="#28B4AD"/>
<path d="M35.6298 38.223C35.0604 38.0722 34.5731 37.71 34.2756 37.2145L32.6485 34.5225C32.5264 34.3327 32.274 34.2649 32.074 34.3696L29.3121 35.9003C28.8074 36.1814 28.2041 36.2532 27.6358 36.1003L27.2039 35.9854L29.265 39.3946C29.9082 40.4585 31.3127 40.833 32.3992 40.2297L35.8935 38.2928L35.6298 38.222V38.223Z" fill="#28B4AD"/>
<path d="M29.6251 28.6358C30.1986 28.7886 30.6787 29.1467 30.9793 29.6443L32.6126 32.3466C32.7306 32.5415 32.9881 32.6113 33.1871 32.5005L35.9387 30.9759C36.4434 30.6948 37.0467 30.623 37.614 30.7748L37.8777 30.8456L35.8115 27.4272C35.1682 26.3633 33.7647 25.9899 32.6772 26.5921L29.1921 28.5229L29.6241 28.6378L29.6251 28.6358Z" fill="#28B4AD"/>
<path d="M39.5899 33.672L38.3403 31.6057C38.2982 31.6109 38.2562 31.6078 38.2151 31.5975L37.4508 31.3934C37.0558 31.2877 36.628 31.34 36.2782 31.535L33.5276 33.0595C33.0147 33.3457 32.3509 33.1703 32.0452 32.6686C32.0441 32.6666 32.0431 32.6655 32.0421 32.6635L30.4088 29.9602C30.1995 29.6144 29.8579 29.361 29.4608 29.2533L28.5221 29.003C28.4831 28.9927 28.4462 28.9753 28.4144 28.9517L26.2948 30.1274C25.2073 30.7296 24.8472 32.0818 25.4895 33.1467L26.7432 35.2201C26.7832 35.216 26.8232 35.2181 26.8611 35.2283L27.8009 35.4786C28.1969 35.5843 28.6237 35.533 28.9746 35.3391L31.7353 33.8074C32.2534 33.5366 32.907 33.711 33.2219 34.2034L34.849 36.8955C35.0553 37.2391 35.401 37.4956 35.796 37.6003L36.5603 37.8044C36.6024 37.8157 36.6403 37.8362 36.6732 37.8598L38.7845 36.6892C39.872 36.087 40.2321 34.7338 39.5899 33.6699V33.672Z" fill="#28B4AD"/>
<path d="M50.9706 12.4639C52.7424 13.1349 54.3285 15.6823 53.8093 17.5546L51.7708 24.9054C56.6071 24.7936 58.3173 31.023 54.1797 33.5058C54.2372 33.9993 54.548 34.3953 54.6557 34.8785C55.0907 36.8195 54.1151 38.9443 52.3966 39.9168C53.5231 42.2457 52.926 44.9911 50.6218 46.332C50.671 46.8029 50.9685 47.1794 51.0793 47.6339C51.4907 49.3133 50.8444 51.1098 49.5517 52.228C47.9667 53.5987 45.7506 53.3022 43.8291 53.73C43.0514 55.7029 42.7826 58.0071 42.0347 59.9677C41.1935 62.1734 39.0113 63.3368 36.7142 62.9141L14.5161 56.7585C12.5966 56.221 10.8915 53.5371 11.4291 51.6002L12.8931 46.3217L1.79252 43.2439C1.34111 43.1188 0.889699 42.0754 1.0241 41.5994L7.05247 20.0476C7.4372 19.5275 7.98094 19.2453 8.64472 19.3336C10.3231 19.5572 12.2037 20.5267 13.9293 20.735L20.9918 16.7513C21.9716 14.4245 22.2783 11.7499 23.136 9.36662C23.8952 7.25731 26.0014 5.81074 28.2759 6.17392L50.9696 12.467L50.9706 12.4639ZM24.6082 15.5674L26.3349 16.0465C26.4108 16.067 27.0838 16.5379 27.2059 16.6354C29.4619 18.4338 29.4188 21.923 27.2182 23.783C25.6721 25.0901 23.0857 25.9693 21.393 27.1614L17.3846 41.6168L38.5004 47.4728C38.7958 46.4171 39.671 45.7308 40.5061 45.107C39.2862 42.7248 40.0444 40.123 42.2891 38.6939C41.0026 36.364 41.8213 33.6617 44.063 32.2808C42.5949 29.359 44.0117 26.196 47.1982 25.4266C47.4209 25.3732 48.4478 25.3086 48.5053 25.206L50.7705 17.0303C50.8341 16.4025 50.5889 15.8721 50.1037 15.4945L27.6214 9.20247C26.9638 9.23838 26.4682 9.52564 26.1328 10.1002L24.6093 15.5684L24.6082 15.5674ZM13.7128 43.3599L18.706 25.3527C18.8989 24.6571 24.6062 22 25.4362 21.2213C26.4939 19.9286 25.2228 18.2143 23.6551 18.8093L14.7716 23.8395C14.6392 23.9082 14.1283 24.0303 14.0329 24.0036L9.44495 22.7314L4.43737 40.7878L13.7118 43.3599H13.7128ZM51.8601 27.9309C51.4384 27.896 47.9195 28.3618 47.5306 28.5126C45.961 29.1199 46.3129 31.2816 47.9585 31.4734C48.5617 31.5442 51.2496 31.1738 51.9514 31.0323C54.111 30.5962 53.8647 28.0971 51.8601 27.9309ZM44.9176 37.1017C45.172 37.5531 45.6747 37.828 46.1795 37.8865C46.753 37.9532 49.6687 37.5695 50.3232 37.4187C52.2048 36.9857 52.0745 34.581 50.1663 34.3501C49.7702 34.3019 46.4257 34.7256 45.9599 34.8539C44.9894 35.1216 44.3954 36.1753 44.9166 37.1007L44.9176 37.1017ZM48.4017 40.7858C47.9225 40.7304 44.4221 41.1664 43.9737 41.3388C42.4441 41.9277 42.7621 44.0893 44.4005 44.3006C44.9371 44.3704 47.7451 43.9908 48.3945 43.8585C50.5048 43.4307 50.3263 41.0095 48.4017 40.7858ZM46.5242 47.1712C46.081 47.1343 42.6072 47.5939 42.1948 47.7519C40.621 48.3582 41.0108 50.5424 42.6226 50.7137C43.2197 50.7774 45.923 50.4121 46.6145 50.2726C48.7371 49.8427 48.5371 47.3384 46.5232 47.1712H46.5242ZM38.3208 50.6091L16.5639 44.5756L14.4156 52.3214C14.3151 52.6846 14.9799 53.7556 15.4302 53.8274L37.6991 59.9512C38.3249 59.8887 38.7825 59.6055 39.1057 59.0556L40.7 53.3535C39.5838 52.6948 38.7774 51.8228 38.3198 50.6101L38.3208 50.6091Z" fill="url(#paint0_linear_73_314)" fill-opacity="0.7"/>
<path d="M61.9297 7.97448C63.2151 9.87348 64.2411 13.4171 63.6214 15.6864C63.1762 17.3146 61.192 17.3741 60.6083 15.7521C60.4677 15.3612 60.6842 14.6492 60.6821 14.1947C60.6657 11.596 59.7177 9.44567 57.6043 7.86163C56.6194 7.12296 54.8928 6.8911 54.9123 5.45685C54.9297 4.19392 56.0541 3.76611 57.1396 4.11903C58.8908 4.68945 60.9088 6.46431 61.9307 7.97346L61.9297 7.97448Z" fill="url(#paint1_linear_73_314)"/>
<path d="M58.3686 10.8163C59.056 11.9777 59.5721 14.1906 59.2232 15.5181C58.7893 17.1689 56.3783 17.0847 56.1865 15.2022C56.0213 13.5822 56.4584 12.8343 54.9472 11.4811C54.466 11.0502 53.5888 10.8163 53.2277 10.3628C52.2561 9.14505 53.4103 7.51587 54.8825 7.92112C56.1157 8.2607 57.7274 9.73189 58.3697 10.8153L58.3686 10.8163Z" fill="url(#paint2_linear_73_314)"/>
<path d="M36.3264 17.5053C35.7293 16.4466 36.6485 15.0687 37.8386 15.2052C38.8009 15.315 43.1581 16.5245 44.0424 16.9257C45.6029 17.6336 44.9299 20.0712 43.2248 19.8742C42.1475 19.7491 38.1474 18.6174 37.1092 18.1866C36.8619 18.084 36.4567 17.7362 36.3264 17.5064V17.5053Z" fill="url(#paint3_linear_73_314)"/>
<path d="M31.8307 13.5566C33.9 13.6981 33.6251 16.7842 31.6686 16.6508C29.5993 16.5092 29.8743 13.4232 31.8307 13.5566Z" fill="url(#paint4_linear_73_314)"/>
<path d="M23.8008 49.7946L32.2627 52.1234C33.8067 52.9821 33.2035 55.1335 31.445 55.072L23.0703 52.7492C21.5694 51.9213 22.0844 49.8274 23.8008 49.7946Z" fill="url(#paint5_linear_73_314)"/>
<path d="M35.6298 38.223C35.0604 38.0722 34.5731 37.71 34.2756 37.2145L32.6485 34.5225C32.5264 34.3327 32.274 34.2649 32.074 34.3696L29.3121 35.9003C28.8074 36.1814 28.2041 36.2532 27.6358 36.1003L27.2039 35.9854L29.265 39.3946C29.9082 40.4585 31.3127 40.833 32.3992 40.2297L35.8935 38.2928L35.6298 38.222V38.223Z" fill="url(#paint6_linear_73_314)"/>
<path d="M29.6251 28.6358C30.1986 28.7886 30.6787 29.1467 30.9793 29.6443L32.6126 32.3466C32.7306 32.5415 32.9881 32.6113 33.1871 32.5005L35.9387 30.9759C36.4434 30.6948 37.0467 30.623 37.614 30.7748L37.8777 30.8456L35.8115 27.4272C35.1682 26.3633 33.7647 25.9899 32.6772 26.5921L29.1921 28.5229L29.6241 28.6378L29.6251 28.6358Z" fill="url(#paint7_linear_73_314)"/>
<path d="M39.5899 33.672L38.3403 31.6057C38.2982 31.6109 38.2562 31.6078 38.2151 31.5975L37.4508 31.3934C37.0558 31.2877 36.628 31.34 36.2782 31.535L33.5276 33.0595C33.0147 33.3457 32.3509 33.1703 32.0452 32.6686C32.0441 32.6666 32.0431 32.6655 32.0421 32.6635L30.4088 29.9602C30.1995 29.6144 29.8579 29.361 29.4608 29.2533L28.5221 29.003C28.4831 28.9927 28.4462 28.9753 28.4144 28.9517L26.2948 30.1274C25.2073 30.7296 24.8472 32.0818 25.4895 33.1467L26.7432 35.2201C26.7832 35.216 26.8232 35.2181 26.8611 35.2283L27.8009 35.4786C28.1969 35.5843 28.6237 35.533 28.9746 35.3391L31.7353 33.8074C32.2534 33.5366 32.907 33.711 33.2219 34.2034L34.849 36.8955C35.0553 37.2391 35.401 37.4956 35.796 37.6003L36.5603 37.8044C36.6024 37.8157 36.6403 37.8362 36.6732 37.8598L38.7845 36.6892C39.872 36.087 40.2321 34.7338 39.5899 33.6699V33.672Z" fill="url(#paint8_linear_73_314)"/>
<defs>
<linearGradient id="paint0_linear_73_314" x1="0.999473" y1="34.5563" x2="56.5137" y2="34.5563" gradientUnits="userSpaceOnUse">
<stop offset="0.07" stop-color="white"/>
<stop offset="0.15" stop-color="white" stop-opacity="0.97"/>
<stop offset="0.27" stop-color="white" stop-opacity="0.9"/>
<stop offset="0.41" stop-color="white" stop-opacity="0.78"/>
<stop offset="0.57" stop-color="white" stop-opacity="0.61"/>
<stop offset="0.74" stop-color="white" stop-opacity="0.39"/>
<stop offset="0.92" stop-color="white" stop-opacity="0.13"/>
<stop offset="1" stop-color="white" stop-opacity="0"/>
</linearGradient>
<linearGradient id="paint1_linear_73_314" x1="54.9112" y1="10.4696" x2="63.8071" y2="10.4696" gradientUnits="userSpaceOnUse">
<stop offset="0.07" stop-color="white"/>
<stop offset="0.15" stop-color="white" stop-opacity="0.97"/>
<stop offset="0.27" stop-color="white" stop-opacity="0.9"/>
<stop offset="0.41" stop-color="white" stop-opacity="0.78"/>
<stop offset="0.57" stop-color="white" stop-opacity="0.61"/>
<stop offset="0.74" stop-color="white" stop-opacity="0.39"/>
<stop offset="0.92" stop-color="white" stop-opacity="0.13"/>
<stop offset="1" stop-color="white" stop-opacity="0"/>
</linearGradient>
<linearGradient id="paint2_linear_73_314" x1="52.8686" y1="12.2741" x2="59.3351" y2="12.2741" gradientUnits="userSpaceOnUse">
<stop offset="0.07" stop-color="white"/>
<stop offset="0.15" stop-color="white" stop-opacity="0.97"/>
<stop offset="0.27" stop-color="white" stop-opacity="0.9"/>
<stop offset="0.41" stop-color="white" stop-opacity="0.78"/>
<stop offset="0.57" stop-color="white" stop-opacity="0.61"/>
<stop offset="0.74" stop-color="white" stop-opacity="0.39"/>
<stop offset="0.92" stop-color="white" stop-opacity="0.13"/>
<stop offset="1" stop-color="white" stop-opacity="0"/>
</linearGradient>
<linearGradient id="paint3_linear_73_314" x1="36.1397" y1="17.5402" x2="44.9196" y2="17.5402" gradientUnits="userSpaceOnUse">
<stop offset="0.07" stop-color="white"/>
<stop offset="0.15" stop-color="white" stop-opacity="0.97"/>
<stop offset="0.27" stop-color="white" stop-opacity="0.9"/>
<stop offset="0.41" stop-color="white" stop-opacity="0.78"/>
<stop offset="0.57" stop-color="white" stop-opacity="0.61"/>
<stop offset="0.74" stop-color="white" stop-opacity="0.39"/>
<stop offset="0.92" stop-color="white" stop-opacity="0.13"/>
<stop offset="1" stop-color="white" stop-opacity="0"/>
</linearGradient>
<linearGradient id="paint4_linear_73_314" x1="30.2364" y1="15.1037" x2="33.264" y2="15.1037" gradientUnits="userSpaceOnUse">
<stop offset="0.07" stop-color="white"/>
<stop offset="0.15" stop-color="white" stop-opacity="0.97"/>
<stop offset="0.27" stop-color="white" stop-opacity="0.9"/>
<stop offset="0.41" stop-color="white" stop-opacity="0.78"/>
<stop offset="0.57" stop-color="white" stop-opacity="0.61"/>
<stop offset="0.74" stop-color="white" stop-opacity="0.39"/>
<stop offset="0.92" stop-color="white" stop-opacity="0.13"/>
<stop offset="1" stop-color="white" stop-opacity="0"/>
</linearGradient>
<linearGradient id="paint5_linear_73_314" x1="22.1839" y1="52.4333" x2="33.1481" y2="52.4333" gradientUnits="userSpaceOnUse">
<stop offset="0.07" stop-color="white"/>
<stop offset="0.15" stop-color="white" stop-opacity="0.97"/>
<stop offset="0.27" stop-color="white" stop-opacity="0.9"/>
<stop offset="0.41" stop-color="white" stop-opacity="0.78"/>
<stop offset="0.57" stop-color="white" stop-opacity="0.61"/>
<stop offset="0.74" stop-color="white" stop-opacity="0.39"/>
<stop offset="0.92" stop-color="white" stop-opacity="0.13"/>
<stop offset="1" stop-color="white" stop-opacity="0"/>
</linearGradient>
<linearGradient id="paint6_linear_73_314" x1="27.2039" y1="37.4197" x2="35.8935" y2="37.4197" gradientUnits="userSpaceOnUse">
<stop offset="0.07" stop-color="white"/>
<stop offset="0.15" stop-color="white" stop-opacity="0.97"/>
<stop offset="0.27" stop-color="white" stop-opacity="0.9"/>
<stop offset="0.41" stop-color="white" stop-opacity="0.78"/>
<stop offset="0.57" stop-color="white" stop-opacity="0.61"/>
<stop offset="0.74" stop-color="white" stop-opacity="0.39"/>
<stop offset="0.92" stop-color="white" stop-opacity="0.13"/>
<stop offset="1" stop-color="white" stop-opacity="0"/>
</linearGradient>
<linearGradient id="paint7_linear_73_314" x1="29.1932" y1="29.4278" x2="37.8787" y2="29.4278" gradientUnits="userSpaceOnUse">
<stop offset="0.07" stop-color="white"/>
<stop offset="0.15" stop-color="white" stop-opacity="0.97"/>
<stop offset="0.27" stop-color="white" stop-opacity="0.9"/>
<stop offset="0.41" stop-color="white" stop-opacity="0.78"/>
<stop offset="0.57" stop-color="white" stop-opacity="0.61"/>
<stop offset="0.74" stop-color="white" stop-opacity="0.39"/>
<stop offset="0.92" stop-color="white" stop-opacity="0.13"/>
<stop offset="1" stop-color="white" stop-opacity="0"/>
</linearGradient>
<linearGradient id="paint8_linear_73_314" x1="25.1704" y1="33.4063" x2="39.9089" y2="33.4063" gradientUnits="userSpaceOnUse">
<stop offset="0.07" stop-color="white"/>
<stop offset="0.15" stop-color="white" stop-opacity="0.97"/>
<stop offset="0.27" stop-color="white" stop-opacity="0.9"/>
<stop offset="0.41" stop-color="white" stop-opacity="0.78"/>
<stop offset="0.57" stop-color="white" stop-opacity="0.61"/>
<stop offset="0.74" stop-color="white" stop-opacity="0.39"/>
<stop offset="0.92" stop-color="white" stop-opacity="0.13"/>
<stop offset="1" stop-color="white" stop-opacity="0"/>
</linearGradient>
</defs>
</svg>
