<svg width="40" height="40" viewBox="0 0 40 40" fill="none" xmlns="http://www.w3.org/2000/svg">
<rect width="40" height="40" rx="12" fill="#07F4E2"/>
<path d="M11.7433 31.4287C10.0309 31.1754 8.6853 29.812 8.57181 28.061V13.7288C8.54665 12.2032 10.2378 10.3611 11.7657 10.3611H13.2611V9.31148C13.2611 8.91164 13.7973 8.56492 14.1758 8.57163C14.5369 8.57834 15.0462 8.93289 15.0462 9.31148V10.3606H19.0636V9.31148C19.0641 8.91164 19.6002 8.56492 19.9787 8.57163C20.3399 8.57834 20.8492 8.93289 20.8492 9.31148V10.3606H24.9112V9.31148C24.9112 8.91164 25.4474 8.56492 25.8264 8.57163C26.1876 8.57834 26.6969 8.93289 26.6969 9.31148V10.3606H28.237C29.4983 10.3606 31.0653 11.7721 31.3074 13.004L31.4287 13.5297V19.1985C31.1436 20.2124 29.7364 20.1386 29.6414 19.0436C29.4983 17.3905 29.7761 15.5233 29.6447 13.8624C29.5832 13.0834 28.8984 12.1456 28.0587 12.1456H26.6974V13.1947C26.6974 13.5733 26.1876 13.9278 25.827 13.9346C25.4664 13.9413 24.9124 13.5946 24.9124 13.1947V12.1456H20.8503V13.1947C20.8503 13.5733 20.3404 13.9278 19.9798 13.9346C19.6192 13.9413 19.0652 13.5946 19.0652 13.1947V12.1456H15.0479V13.1947C15.0479 13.5733 14.538 13.9278 14.1774 13.9346C13.8168 13.9413 13.2628 13.5946 13.2628 13.1947V12.1456H11.9463C11.1915 12.1456 10.3664 13.0706 10.3625 13.8199L10.3602 27.9257C10.434 28.8563 11.0758 29.5229 11.9966 29.6369C14.2596 29.7935 16.7658 29.4474 19.0009 29.6408C20.0956 29.7359 20.1694 31.1429 19.1558 31.4281H11.7433V31.4287Z" fill="#003A38"/>
<path d="M25.5317 31.4211C20.9596 31.0464 18.8663 25.3836 22.1266 22.1256C25.3868 18.8675 31.0538 20.959 31.4287 25.5284V26.4279L31.1908 27.5623C30.6631 29.2835 29.2898 30.6564 27.5675 31.1833L26.4326 31.4211C26.1394 31.4037 25.822 31.4448 25.5323 31.4211H25.5317ZM25.6123 22.3476C22.8933 22.6125 21.441 25.7228 22.9474 27.998C24.3827 30.166 27.6188 30.152 29.0338 27.9709C30.7031 25.3988 28.6465 22.0517 25.6123 22.3476Z" fill="#003A38"/>
<path d="M14.1529 17.2889C15.3123 17.136 15.4335 18.8091 14.3845 18.9068C13.2724 19.0106 13.1487 17.4213 14.1529 17.2889Z" fill="#003A38"/>
<path d="M17.9624 17.2889C19.1219 17.136 19.2431 18.8091 18.194 18.9068C17.082 19.0106 16.9582 17.4213 17.9624 17.2889Z" fill="#003A38"/>
<path d="M21.7719 17.2889C22.9314 17.136 23.0526 18.8091 22.0035 18.9068C20.8915 19.0106 20.7677 17.4213 21.7719 17.2889Z" fill="#003A38"/>
<path d="M25.5814 17.2889C26.7409 17.136 26.8621 18.8091 25.813 18.9068C24.701 19.0106 24.5772 17.4213 25.5814 17.2889Z" fill="#003A38"/>
<path d="M14.1529 21.0984C15.3123 20.9455 15.4335 22.6187 14.3845 22.7163C13.2724 22.8201 13.1487 21.2308 14.1529 21.0984Z" fill="#003A38"/>
<path d="M17.9624 21.0984C19.1219 20.9455 19.2431 22.6187 18.194 22.7163C17.082 22.8201 16.9582 21.2308 17.9624 21.0984Z" fill="#003A38"/>
<path d="M14.1529 24.9079C15.3123 24.755 15.4335 26.4282 14.3845 26.5258C13.2724 26.6297 13.1487 25.0404 14.1529 24.9079Z" fill="#003A38"/>
<path d="M17.9624 24.9079C19.1219 24.755 19.2431 26.4282 18.194 26.5258C17.082 26.6297 16.9582 25.0404 17.9624 24.9079Z" fill="#003A38"/>
<path d="M26.8065 25.184C26.9667 25.1945 27.1393 25.1676 27.2983 25.184C28.4552 25.3076 28.4341 26.9171 27.3406 27.0483C26.9978 27.0893 25.7829 27.0939 25.4953 26.9827C25.1677 26.8561 24.967 26.5258 24.933 26.1879C24.8819 25.6853 24.8919 24.7342 24.9306 24.2229C25.0275 22.932 26.6715 23.0052 26.8018 24.0899C26.8435 24.4361 26.7824 24.8314 26.8065 25.1834V25.184Z" fill="#003A38"/>
</svg>
