<svg width="40" height="40" viewBox="0 0 40 40" fill="none" xmlns="http://www.w3.org/2000/svg">
<rect width="40" height="40" rx="12" fill="#07F4E2"/>
<path d="M24.0203 26.9126C23.5896 26.916 23.1756 26.7543 22.8696 26.4624L21.2023 24.877C21.0795 24.7663 20.889 24.7677 20.7675 24.8797L19.1143 26.4926C18.8123 26.7885 18.4004 26.9555 17.9696 26.9576L17.6429 26.9596L19.755 28.9676C20.4139 29.5943 21.4774 29.5875 22.1282 28.9529L24.2203 26.9119L24.0203 26.9133V26.9126Z" fill="#003A38"/>
<path d="M17.934 21.3064C18.3682 21.3037 18.7761 21.4634 19.0847 21.7566L20.7588 23.348C20.8796 23.4634 21.0748 23.4621 21.1942 23.346L22.8414 21.7398C23.1434 21.4439 23.5547 21.2769 23.9854 21.2749L24.1854 21.2735L22.0678 19.2601C21.4083 18.6335 20.3461 18.6402 19.6946 19.2749L17.608 21.3097L17.9347 21.3077L17.934 21.3064Z" fill="#003A38"/>
<path d="M25.9365 22.9381L24.6563 21.721C24.6282 21.7324 24.5973 21.7385 24.5664 21.7391L23.9881 21.7425C23.6888 21.7445 23.397 21.8633 23.1876 22.0686L21.5404 23.6747C21.2331 23.976 20.7312 23.98 20.4186 23.6848C20.4172 23.6841 20.4166 23.6828 20.4159 23.6821L18.7418 22.09C18.5271 21.8867 18.2373 21.7733 17.9367 21.7747L17.2262 21.7794C17.1966 21.7794 17.1678 21.774 17.1403 21.764L15.8715 23.0025C15.2207 23.6372 15.2267 24.661 15.8862 25.2883L17.1711 26.51C17.198 26.4993 17.2268 26.4933 17.2563 26.4926L17.9676 26.4879C18.2675 26.4859 18.5587 26.3678 18.7687 26.1632L20.4213 24.5496C20.7346 24.2584 21.2298 24.2557 21.5464 24.5422L23.2138 26.1276C23.4258 26.3302 23.719 26.4443 24.0183 26.4423L24.5966 26.4389C24.6282 26.4389 24.659 26.4463 24.6865 26.4564L25.9513 25.2232C26.6021 24.5885 26.5961 23.564 25.9365 22.9374V22.9381Z" fill="#003A38"/>
<path d="M20.2683 33.5715C14.3142 33.0991 10.0818 27.5875 11.3533 21.6687C11.5834 20.5979 12.0222 19.5761 12.5791 18.6382C12.1256 18.1242 11.5264 17.7237 11.3144 17.038C10.736 15.1648 12.5429 13.4895 14.3598 14.2443C14.963 14.4946 15.3025 15.0239 15.7803 15.4372C16.5297 15.0004 17.3168 14.6187 18.1588 14.3879V12.3792H16.7277C16.7055 12.3792 16.3861 12.1933 16.3499 12.1544C16.2687 12.0672 16.1641 11.825 16.1493 11.7022C16.0728 11.0762 16.0728 9.16211 16.1493 8.53615C16.1963 8.15372 16.5009 7.88334 16.8759 7.85718H24.967C25.3414 7.88334 25.6474 8.15305 25.6937 8.53615C25.7628 9.1024 25.7742 11.2064 25.6896 11.7485C25.6755 11.8404 25.5554 12.088 25.493 12.1544C25.4568 12.1933 25.1368 12.3792 25.1153 12.3792H23.6841V14.3879C24.5235 14.6234 25.3166 14.9944 26.0627 15.4372C26.5303 15.03 26.8933 14.4926 27.4831 14.2443C29.298 13.4801 31.1036 15.1756 30.5286 17.038C30.3166 17.7237 29.7174 18.1242 29.2638 18.6382C32.0349 23.1367 30.7131 29.026 26.3418 31.9351C24.9616 32.8536 23.2232 33.4655 21.5747 33.5715H20.2683ZM24.1854 9.36473H17.6563V10.8716H24.1854V9.36473ZM22.1765 12.3785H19.6651V14.086C20.4884 13.9397 21.3519 13.9397 22.1765 14.086V12.3785ZM20.3582 15.507C14.0894 15.9364 10.5226 22.9911 13.9693 28.294C17.3033 33.4239 24.8644 33.2763 28.0232 28.0431C31.4793 22.3175 26.9967 15.0521 20.3582 15.507ZM13.5373 17.4003C13.5607 17.185 14.5571 16.3966 14.541 16.3242C14.1646 15.8854 13.5211 15.2218 12.9408 15.7733C12.5939 16.1028 12.6912 16.5583 12.9602 16.8991C13.0226 16.9783 13.4755 17.4439 13.5373 17.4003ZM28.305 17.4003C28.3668 17.4439 28.8197 16.9783 28.8821 16.8991C29.4436 16.188 28.8841 15.3245 28.0668 15.6318C27.8018 15.7317 27.5234 16.1377 27.3006 16.3222L28.2319 17.2487L28.305 17.4003Z" fill="#003A38"/>
<path d="M5 23.9793V23.5775C5.14694 23.3151 5.30327 23.0796 5.6307 23.028C6.71698 22.8582 8.21456 23.1494 9.34512 23.0239C10.2462 23.1816 10.2462 24.3752 9.34512 24.5328C8.21456 24.4067 6.71631 24.6986 5.6307 24.5288C5.3026 24.4778 5.14694 24.2417 5 23.9793Z" fill="#003A38"/>
<path d="M7.09538 20.023C7.37114 19.9673 9.1579 19.9673 9.433 20.023C10.2093 20.1806 10.2073 21.3494 9.433 21.507C9.1579 21.5627 7.37047 21.5627 7.09538 21.507C6.32109 21.3494 6.31908 20.1806 7.09538 20.023Z" fill="#003A38"/>
<path d="M7.09538 26.0498C7.37114 25.9941 9.1579 25.9941 9.433 26.0498C10.2093 26.2075 10.2073 27.3762 9.433 27.5339C9.1579 27.5896 7.37047 27.5896 7.09538 27.5339C6.32109 27.3762 6.31908 26.2075 7.09538 26.0498Z" fill="#003A38"/>
</svg>
