<svg width="18" height="18" viewBox="0 0 18 18" fill="none" xmlns="http://www.w3.org/2000/svg">
<path d="M1.92403 0V15.3962H17.3202V17.3202H0.962013C0.706809 17.3202 0.46166 17.2184 0.281204 17.038C0.101023 16.8576 6.24124e-05 16.6131 0 16.3582V0H1.92403ZM18 6.45387L13.1889 11.2649C13.0998 11.3542 12.9937 11.4247 12.8772 11.4731C12.7605 11.5215 12.6354 11.5471 12.5091 11.5471C12.3828 11.5471 12.2578 11.5215 12.1411 11.4731C12.0244 11.4247 11.9176 11.3544 11.8283 11.2649L9.6221 9.05871L5.49087 13.1889L4.13024 11.8283L8.94228 7.01727C9.03151 6.92795 9.13745 6.85646 9.25407 6.80809C9.3707 6.75977 9.49585 6.73508 9.6221 6.73508C9.74833 6.73508 9.87351 6.75979 9.99013 6.80809C10.1069 6.8565 10.2136 6.92783 10.3029 7.01727L12.5091 9.22348L16.6394 5.09324L18 6.45387Z" fill="#003A38"/>
</svg>
