<svg width="24" height="27" viewBox="0 0 24 27" fill="none" xmlns="http://www.w3.org/2000/svg">
<path d="M21.333 0C22.8037 0 24 1.19633 24 2.66699V21.3203H22.7324C22.7085 21.3216 22.6908 21.3329 22.667 21.333H4.01465C3.47598 21.3463 2.84757 21.5361 2.69824 22.3027C2.67825 22.4121 2.66699 22.5324 2.66699 22.667C2.6671 23.7399 3.39975 23.9839 4.01562 24H24V26.667H4C2.39204 26.667 0.000133437 25.6015 0 22.667V4C4.42212e-05 1.0654 2.39201 5.26507e-08 4 0H21.333ZM4 2.66699C3.40002 2.68299 2.66703 2.92541 2.66699 4V18.667H21.333V2.66699H18.667V12L16 10.667L13.333 12V2.66699H4Z" fill="#003A38"/>
</svg>
