<svg width="26" height="27" viewBox="0 0 26 27" fill="none" xmlns="http://www.w3.org/2000/svg">
<path d="M22.95 0C24.4389 0 25.6502 1.21047 25.6504 2.69941V25.6503C25.6504 26.0082 25.5079 26.3513 25.2548 26.6045C25.0018 26.8576 24.6585 26.9999 24.3007 27H2.69947C2.34148 26.9999 1.99842 26.8576 1.74528 26.6045C1.49216 26.3513 1.34977 26.0083 1.34977 25.6503V18.8998C1.0828 18.8997 0.82123 18.8207 0.599271 18.6724C0.377497 18.524 0.204994 18.3128 0.102896 18.0662C0.000872594 17.8198 -0.0262037 17.5487 0.0257704 17.2871C0.0778379 17.0252 0.206832 16.7847 0.395579 16.5959L6.74957 10.2409V2.69941C6.74975 1.21047 7.96099 0 9.44996 0H22.95ZM4.05016 16.7591V24.3006H12.1504V16.7591L8.10026 12.709L4.05016 16.7591ZM9.44996 2.69941V10.2409L15.804 16.5959C15.9934 16.7845 16.1233 17.025 16.1757 17.2871C16.2281 17.549 16.2008 17.8205 16.0986 18.0672C15.9964 18.314 15.8235 18.5251 15.6012 18.6734C15.3789 18.8216 15.117 18.9004 14.8498 18.8998V24.3006H22.95V2.69941H9.44996ZM9.44996 20.2505H6.74957V17.5501H9.44996V20.2505ZM20.2506 18.8998H17.5502V16.2004H20.2506V18.8998ZM20.2506 13.5H17.5502V10.8421H20.2506V13.5ZM14.8498 8.1002H12.1504V5.3998H14.8498V8.1002ZM20.2506 8.1002H17.5502V5.3998H20.2506V8.1002Z" fill="#003A38"/>
</svg>
