<svg width="20" height="20" viewBox="0 0 20 20" fill="none" xmlns="http://www.w3.org/2000/svg">
<path d="M20 0V2.00051H18.0005V19.0003C18.0005 19.2655 17.8948 19.5202 17.7073 19.7078C17.5199 19.895 17.2657 19.9999 17.0008 20H3.00026C2.73531 19.9999 2.48122 19.895 2.29377 19.7078C2.10624 19.5202 2.00051 19.2655 2.00051 19.0003V2.00051H0V0H20ZM4 2.00051V18.0005H16V2.00051H4ZM11.0003 4V5.12074C11.6678 5.25685 12.2693 5.61567 12.7055 6.13894C13.1416 6.66228 13.3871 7.3189 13.4007 8H11.4002C11.3901 7.63995 11.2999 7.0003 10.0005 7.00026C8.70099 7.00026 8.00049 7.62995 8 8C8 8.37 8.00054 9.00077 10.0005 9.00077C13.48 9.00082 14.0004 10.88 14.0005 12C14.0005 13.29 13.0002 14.5803 11.0003 14.9203V16H9.00077V14.9203C6.6608 14.5503 6.00051 12.92 6.00051 12H8C8 12.14 8.16054 13.0008 10.0005 13.0008C11.3804 13.0007 12 12.32 12 12C12 11.6799 11.9996 11.0003 10.0005 11.0003C6.52056 11.0003 6.00051 9.11999 6.00051 8C6.00071 6.71015 7.001 5.41994 9.00077 5.08998V4H11.0003Z" fill="#003A38"/>
</svg>
