<svg width="21" height="33" viewBox="0 0 21 33" fill="none" xmlns="http://www.w3.org/2000/svg">
<path d="M8.44065 33H19.388C20.0183 33 20.562 32.6125 20.7977 32.0589C20.9132 31.7886 20.9549 31.4793 20.8987 31.1569C20.841 30.8231 20.671 30.5366 20.4353 30.32C20.1337 30.0432 19.7232 29.8804 19.2982 29.8804H8.44065C6.70697 29.8804 5.53141 29.5434 4.8498 28.853C3.76726 27.71 3.24122 26.5996 3.24122 25.4599V1.64609C3.24122 1.19183 3.06 0.779899 2.76651 0.481942C2.47462 0.183985 2.06886 0 1.62141 0C1.17396 0 0.797074 0.170959 0.506792 0.451006C0.194056 0.750592 0 1.17555 0 1.64609V24.8933C0 24.8933 0 24.9079 0 24.9161C0.0240566 29.9032 3.25245 33 8.43904 33H8.44065Z" fill="#009895"/>
</svg>
