<svg width="25" height="33" viewBox="0 0 25 33" fill="none" xmlns="http://www.w3.org/2000/svg">
<path d="M23.25 0.0211665C22.331 -0.00651277 21.5773 0.739199 21.5773 1.66238C21.5773 1.66238 21.6206 26.5395 21.6206 26.7935C21.6206 27.5392 21.5837 28.1286 21.5115 28.5699C21.5115 28.5666 21.5083 28.565 21.5067 28.5617C21.3768 29.3253 20.7176 29.9082 19.9189 29.9082C19.3528 29.9082 18.8605 29.6152 18.5734 29.1739C18.4916 29.0469 18.2366 28.451 18.1756 28.2687L16.2527 21.6452L11.969 8.2419C11.8664 7.92929 11.7188 7.45223 11.528 6.81235C10.8512 4.66802 10.1728 3.15706 9.49598 2.27784C9.23296 1.93592 8.36692 1.10554 7.83126 0.758737C7.06786 0.278421 6.16653 0 5.20106 0C3.66464 0 0.917361 0.828749 0.269434 4.1698C0.0898105 5.04902 0 6.15945 0 7.50433V31.2727C0 31.7807 0.213303 32.2659 0.566134 32.5915C0.774626 32.7836 1.03123 32.9204 1.32151 32.9725C2.35114 33.1597 3.24765 32.3652 3.24765 31.359V7.39199C3.24765 6.39065 3.29737 5.63191 3.34548 5.02785C3.35671 4.88946 3.40803 4.54265 3.64218 4.12584C3.97256 3.57062 4.57077 3.19614 5.25879 3.19614C5.79606 3.19614 6.2788 3.42571 6.62361 3.79043C6.73427 3.89138 6.84012 4.00209 6.93474 4.12909C7.36135 4.6957 7.85532 5.8794 8.41503 7.68018C8.60588 8.3054 8.76787 8.80526 8.90098 9.17648L15.0868 29.1804C15.4845 30.356 16.0955 31.2727 16.9199 31.9272C17.5438 32.4385 18.235 32.7608 18.9936 32.8992C19.3031 32.9464 19.6078 32.9725 19.8981 32.9725C20.0521 32.9725 20.2028 32.966 20.3536 32.9513C20.4979 32.9367 20.6423 32.9171 20.7866 32.8895C20.801 32.8878 20.8139 32.8846 20.8283 32.8829C22.8491 32.4889 24.424 30.8314 24.7239 28.7555C24.8073 28.127 24.8506 27.3927 24.8506 26.5477L24.8281 1.73077C24.8281 0.832006 24.1433 0.0488457 23.2548 0.0211665H23.25Z" fill="#009895"/>
</svg>
