<svg width="30" height="30" viewBox="0 0 30 30" fill="none" xmlns="http://www.w3.org/2000/svg">
<rect width="30" height="30" rx="12" fill="#07F4E2"/>
<path d="M21.0517 8.67124C21.6272 8.8904 22.1424 9.72249 21.9738 10.3341L21.3117 12.7352C22.8824 12.6986 23.4379 14.7335 22.094 15.5444C22.1127 15.7056 22.2137 15.835 22.2487 15.9928C22.3899 16.6269 22.0731 17.3209 21.5149 17.6386C21.8808 18.3993 21.6869 19.2961 20.9384 19.734C20.9544 19.8879 21.0511 20.0109 21.0871 20.1593C21.2207 20.7079 21.0108 21.2947 20.5909 21.66C20.0761 22.1077 19.3563 22.0108 18.7322 22.1506C18.4796 22.795 18.3923 23.5477 18.1494 24.1881C17.8762 24.9086 17.1674 25.2886 16.4213 25.1505L9.21151 23.1398C8.58806 22.9642 8.03425 22.0876 8.20886 21.4549L8.68436 19.7307L5.07894 18.7254C4.93232 18.6845 4.78571 18.3437 4.82936 18.1882L6.78735 11.1484C6.9123 10.9785 7.08891 10.8863 7.3045 10.9152C7.84965 10.9882 8.46044 11.3049 9.02091 11.3729L11.3148 10.0717C11.633 9.31164 11.7326 8.438 12.0112 7.65953C12.2578 6.97053 12.9419 6.49802 13.6806 6.61665L21.0514 8.67224L21.0517 8.67124ZM12.4894 9.68496L13.0502 9.84146C13.0748 9.84816 13.2934 10.002 13.3331 10.0338C14.0658 10.6213 14.0518 11.761 13.3371 12.3686C12.8349 12.7955 11.9949 13.0827 11.4451 13.4721L10.1432 18.1939L17.0015 20.1067C17.0974 19.7619 17.3817 19.5377 17.6529 19.3339C17.2567 18.5558 17.503 17.7059 18.2321 17.2391C17.8142 16.4781 18.0801 15.5954 18.8082 15.1443C18.3314 14.1899 18.7915 13.1568 19.8265 12.9054C19.8988 12.888 20.2324 12.8669 20.251 12.8334L20.9868 10.1628C21.0074 9.95774 20.9278 9.78449 20.7702 9.66117L13.468 7.60591C13.2544 7.61764 13.0935 7.71147 12.9845 7.89913L12.4897 9.6853L12.4894 9.68496ZM8.9506 18.7632L10.5724 12.8813C10.635 12.6541 12.4887 11.7861 12.7583 11.5318C13.1018 11.1095 12.689 10.5496 12.1798 10.7439L9.29448 12.387C9.25149 12.4094 9.08555 12.4493 9.05456 12.4406L7.56441 12.0251L5.93798 17.9231L8.95027 18.7632H8.9506ZM21.3406 13.7234C21.2037 13.712 20.0608 13.8642 19.9345 13.9134C19.4246 14.1118 19.5389 14.8179 20.0734 14.8806C20.2693 14.9037 21.1424 14.7827 21.3703 14.7365C22.0717 14.5941 21.9917 13.7777 21.3406 13.7234ZM19.0858 16.719C19.1684 16.8665 19.3317 16.9563 19.4956 16.9754C19.6819 16.9972 20.6289 16.8718 20.8415 16.8226C21.4526 16.6812 21.4103 15.8956 20.7905 15.8202C20.6619 15.8045 19.5756 15.9429 19.4243 15.9848C19.1091 16.0722 18.9161 16.4164 19.0854 16.7187L19.0858 16.719ZM20.2174 17.9224C20.0618 17.9043 18.9248 18.0467 18.7792 18.103C18.2824 18.2954 18.3857 19.0015 18.9178 19.0705C19.0921 19.0933 20.0041 18.9693 20.215 18.9261C20.9005 18.7863 20.8425 17.9955 20.2174 17.9224ZM19.6076 20.0082C19.4636 19.9961 18.3353 20.1462 18.2014 20.1978C17.6902 20.3959 17.8169 21.1094 18.3403 21.1653C18.5343 21.1861 19.4123 21.0668 19.6369 21.0212C20.3263 20.8808 20.2613 20.0628 19.6072 20.0082H19.6076ZM16.9432 21.1311L9.87661 19.1603L9.17885 21.6904C9.1462 21.8091 9.36212 22.1589 9.50841 22.1824L16.7412 24.1827C16.9445 24.1623 17.0931 24.0698 17.1981 23.8901L17.7159 22.0276C17.3534 21.8124 17.0914 21.5276 16.9428 21.1315L16.9432 21.1311Z" fill="#003A38"/>
<path d="M24.5649 7.19326C24.9852 7.81461 25.3206 8.97406 25.118 9.71659C24.9724 10.2493 24.3237 10.2688 24.1329 9.73808C24.0869 9.61018 24.1577 9.37722 24.157 9.22851C24.1516 8.37822 23.8417 7.67463 23.1507 7.15634C22.8287 6.91465 22.2642 6.83878 22.2706 6.3695C22.2763 5.95627 22.6439 5.81629 22.9988 5.93177C23.5714 6.11841 24.2311 6.69914 24.5652 7.19293L24.5649 7.19326Z" fill="#003A38"/>
<path d="M23.3534 8.1318C23.576 8.50293 23.7431 9.21013 23.6302 9.63438C23.4896 10.1619 22.7089 10.135 22.6468 9.5334C22.5933 9.01571 22.7348 8.7767 22.2455 8.34425C22.0897 8.20655 21.8056 8.1318 21.6887 7.98688C21.374 7.59771 21.7478 7.07707 22.2245 7.20658C22.6239 7.3151 23.1458 7.78525 23.3537 8.13147L23.3534 8.1318Z" fill="#003A38"/>
<path d="M16.2811 10.2912C16.0912 9.94602 16.3835 9.49688 16.7619 9.54136C17.0678 9.57714 18.4531 9.97144 18.7343 10.1022C19.2304 10.333 19.0164 11.1276 18.4743 11.0634C18.1318 11.0226 16.86 10.6537 16.5299 10.5132C16.4513 10.4798 16.3225 10.3664 16.2811 10.2915V10.2912Z" fill="#003A38"/>
<path d="M14.7955 9.06918C15.5109 9.11211 15.4158 10.0478 14.7394 10.0074C14.024 9.96447 14.1191 9.02874 14.7955 9.06918Z" fill="#003A38"/>
<path d="M12.2164 20.8275L14.9996 21.6057C15.5074 21.8927 15.309 22.6116 14.7307 22.591L11.9761 21.8148C11.4825 21.5382 11.6519 20.8385 12.2164 20.8275Z" fill="#003A38"/>
<path d="M16.0205 17.1038C15.8376 17.0523 15.681 16.9286 15.5854 16.7593L15.0626 15.8399C15.0234 15.775 14.9423 15.7519 14.8781 15.7877L13.9907 16.3105C13.8286 16.4065 13.6347 16.431 13.4521 16.3788L13.3134 16.3395L13.9756 17.5039C14.1822 17.8673 14.6335 17.9952 14.9825 17.7891L16.1052 17.1276L16.0205 17.1034V17.1038Z" fill="#003A38"/>
<path d="M14.04 13.9296C14.232 13.9785 14.3928 14.0931 14.4934 14.2523L15.0403 15.1168C15.0798 15.1792 15.166 15.2015 15.2326 15.166L16.1539 14.6783C16.3229 14.5884 16.5249 14.5654 16.7149 14.614L16.8032 14.6366L16.1113 13.543C15.896 13.2026 15.426 13.0832 15.0619 13.2758L13.895 13.8935L14.0396 13.9303L14.04 13.9296Z" fill="#003A38"/>
<path d="M17.2818 15.5647L16.8774 14.8828C16.8638 14.8845 16.8501 14.8835 16.8369 14.8801L16.5895 14.8128C16.4617 14.7779 16.3232 14.7952 16.21 14.8595L15.3198 15.3626C15.1538 15.4571 14.939 15.3992 14.8401 15.2336C14.8397 15.2329 14.8394 15.2326 14.8391 15.2319L14.3105 14.3398C14.2428 14.2257 14.1322 14.142 14.0037 14.1065L13.6999 14.0239C13.6873 14.0205 13.6753 14.0147 13.665 14.0069L12.9791 14.3949C12.6271 14.5937 12.5106 15.0399 12.7184 15.3914L13.1242 16.0757C13.1371 16.0743 13.1501 16.075 13.1623 16.0784L13.4665 16.161C13.5946 16.1959 13.7328 16.1789 13.8463 16.1149L14.7398 15.6094C14.9075 15.5201 15.119 15.5776 15.2209 15.7401L15.7475 16.6286C15.8142 16.742 15.9261 16.8266 16.054 16.8612L16.3013 16.9285C16.3149 16.9323 16.3272 16.939 16.3378 16.9468L17.0211 16.5605C17.3731 16.3618 17.4896 15.9152 17.2818 15.5641V15.5647Z" fill="#003A38"/>
</svg>
