<svg width="65" height="65" viewBox="0 0 65 65" fill="none" xmlns="http://www.w3.org/2000/svg">
<path d="M53.2725 17.7622C51.2162 17.9739 49.583 19.6907 49.4524 21.7644C49.4141 22.3804 49.5029 22.9702 49.6979 23.5092L40.1929 30.0314C38.5649 28.2254 36.27 27.0389 33.6966 26.8692V16.3237C35.5039 15.8477 36.8359 14.1957 36.8359 12.2305C36.8359 9.81896 34.8283 7.87822 32.3994 8.00597C30.1968 8.12147 28.4278 9.99396 28.4173 12.2095C28.4086 14.1835 29.7441 15.8459 31.5567 16.3219V26.9619C31.4139 26.9847 31.2711 27.0109 31.1301 27.0389C31.0761 27.0494 31.0221 27.0634 30.9699 27.0757C30.8828 27.0949 30.7958 27.1124 30.7105 27.1352C30.6495 27.1509 30.5886 27.1684 30.5276 27.1859C30.451 27.2069 30.3727 27.2262 30.2978 27.2489C30.2299 27.2699 30.162 27.2927 30.0941 27.3154C30.0262 27.3364 29.9583 27.3574 29.8921 27.3819C29.819 27.4082 29.7476 27.4362 29.6762 27.4624C29.6153 27.4852 29.5543 27.5062 29.4951 27.5307C29.422 27.5604 29.3506 27.5919 29.2792 27.6234C29.2218 27.6479 29.1643 27.6707 29.1068 27.6969C29.0337 27.7302 28.9606 27.7669 28.8892 27.8019C28.8352 27.8282 28.7812 27.8527 28.7273 27.8789C28.6541 27.9157 28.581 27.9559 28.5096 27.9962C28.4591 28.0242 28.4086 28.0487 28.3581 28.0784C28.285 28.1187 28.2136 28.1624 28.1422 28.2062C28.0935 28.2342 28.0447 28.2622 27.9977 28.2919C27.9246 28.3374 27.8532 28.3847 27.7818 28.4319C27.7365 28.4617 27.6913 28.4897 27.6477 28.5194C27.5746 28.5702 27.5032 28.6209 27.4318 28.6734C27.39 28.7032 27.3483 28.7312 27.3082 28.7627C27.2351 28.8169 27.1637 28.8747 27.0923 28.9307C27.0557 28.9604 27.0174 28.9884 26.9791 29.0199C26.9077 29.0777 26.8381 29.1389 26.7684 29.2002C26.7336 29.2299 26.6971 29.2597 26.6622 29.2912C26.5926 29.3542 26.5247 29.4172 26.4568 29.4819C26.4237 29.5134 26.3906 29.5432 26.3575 29.5747C26.2896 29.6412 26.2235 29.7094 26.1573 29.7777C26.126 29.8092 26.0946 29.8407 26.065 29.8722C25.9989 29.9422 25.9362 30.0139 25.8717 30.0857C25.8439 30.1172 25.8143 30.1487 25.7847 30.1819C25.7203 30.2554 25.6593 30.3324 25.5984 30.4077C25.5723 30.4392 25.5461 30.4707 25.52 30.5022C25.4591 30.5792 25.3999 30.6597 25.3407 30.7384C25.3163 30.7699 25.2919 30.8014 25.2676 30.8347C25.2084 30.9152 25.1526 30.9974 25.0969 31.0814C25.0743 31.1147 25.0517 31.1462 25.029 31.1794C24.9733 31.2634 24.9211 31.3492 24.8671 31.4349C24.8462 31.4682 24.8253 31.4997 24.8062 31.5347C24.7539 31.6222 24.7052 31.7097 24.6547 31.7989C24.6355 31.8322 24.6164 31.8654 24.5972 31.8987C24.5485 31.9879 24.5014 32.0807 24.4562 32.1717C24.4388 32.2049 24.4214 32.2382 24.4039 32.2732C24.3587 32.3659 24.3169 32.4587 24.2734 32.5532C24.2577 32.5882 24.242 32.6214 24.2263 32.6564C24.1846 32.7509 24.1462 32.8472 24.1079 32.9434C24.094 32.9784 24.0783 33.0134 24.0644 33.0502C24.0279 33.1464 23.993 33.2444 23.9599 33.3407C23.9478 33.3774 23.9338 33.4142 23.9216 33.4509C23.8886 33.5489 23.859 33.6487 23.8294 33.7467C23.8189 33.7852 23.8067 33.8219 23.7945 33.8587C23.7667 33.9584 23.7406 34.0582 23.7162 34.1597C23.7057 34.1982 23.6953 34.2367 23.6866 34.2752C23.6622 34.3767 23.6413 34.4782 23.6204 34.5797C23.6117 34.6199 23.603 34.6584 23.596 34.6987C23.5769 34.8002 23.5612 34.9034 23.5438 35.0049C23.5368 35.0469 23.5299 35.0872 23.5247 35.1292C23.5107 35.2307 23.4985 35.3339 23.4863 35.4372C23.4811 35.4792 23.4759 35.5229 23.4724 35.5649C23.462 35.6682 23.455 35.7714 23.448 35.8747C23.4446 35.9184 23.4411 35.9622 23.4393 36.0077C23.4341 36.1109 23.4324 36.2142 23.4289 36.3174C23.4289 36.3542 23.4254 36.3909 23.4254 36.4277C23.4254 36.4574 23.4237 36.4889 23.4237 36.5187C23.4237 38.8199 24.2246 40.9339 25.5601 42.5946L18.4248 50.3296C17.784 49.9709 17.0458 49.7679 16.2605 49.7679C13.795 49.7679 11.7979 51.7769 11.7961 54.2531C11.7961 56.8991 14.0753 59.0096 16.7672 58.7104C18.8305 58.4811 20.4863 56.8029 20.697 54.7274C20.8084 53.6371 20.5316 52.6169 19.9866 51.7874L27.0749 44.1049C28.7151 45.4104 30.7871 46.1909 33.0401 46.1909C37.9293 46.1944 41.9114 42.6244 42.5713 37.9029C42.5783 37.8574 42.5835 37.8137 42.5887 37.7682C42.6009 37.6702 42.6131 37.5704 42.6218 37.4707C42.6322 37.3587 42.6409 37.2467 42.6479 37.1347C42.6514 37.0892 42.6531 37.0419 42.6549 36.9964C42.6601 36.8774 42.6636 36.7567 42.6653 36.6359C42.6653 36.6149 42.6671 36.5939 42.6671 36.5747C42.6671 36.5694 42.6671 36.5624 42.6671 36.5572C42.6671 36.5449 42.6671 36.5327 42.6671 36.5187C42.6671 36.4119 42.6601 36.3052 42.6566 36.1984C42.6531 36.0987 42.6531 35.9989 42.6462 35.9009C42.6392 35.7854 42.6253 35.6717 42.6148 35.5562C42.6061 35.4599 42.5992 35.3619 42.587 35.2657C42.5713 35.1502 42.5504 35.0382 42.533 34.9244C42.5173 34.8317 42.5051 34.7372 42.4877 34.6444C42.4651 34.5289 42.4372 34.4169 42.4094 34.3032C42.3885 34.2139 42.3711 34.1247 42.3484 34.0372C42.3171 33.9199 42.2805 33.8062 42.2457 33.6924C42.2213 33.6102 42.1987 33.5262 42.1708 33.4439C42.1308 33.3249 42.0855 33.2094 42.042 33.0922C42.0141 33.0169 41.988 32.9417 41.9584 32.8682C41.9062 32.7404 41.8487 32.6179 41.793 32.4919C41.7651 32.4307 41.7408 32.3694 41.7112 32.3082C41.6224 32.1244 41.5301 31.9459 41.4308 31.7692L50.8923 25.2784C51.7229 26.0117 52.8372 26.4264 54.0491 26.3337C56.0984 26.1779 57.7787 24.5312 57.9789 22.4749C58.2435 19.7502 55.9783 17.4804 53.2638 17.7604L53.2725 17.7622ZM16.2657 56.4284C14.9877 56.4284 13.9517 55.3871 13.9517 54.1026C13.9517 52.8181 14.9877 51.7769 16.2657 51.7769C17.5437 51.7769 18.5797 52.8181 18.5797 54.1026C18.5797 55.3871 17.5437 56.4284 16.2657 56.4284ZM32.6553 14.32C31.4679 14.32 30.505 13.3522 30.505 12.1587C30.505 10.9652 31.4679 9.99746 32.6553 9.99746C33.8428 9.99746 34.8057 10.9652 34.8057 12.1587C34.8057 13.3522 33.8428 14.32 32.6553 14.32ZM53.7409 24.3212C52.4629 24.3212 51.4269 23.2799 51.4269 21.9954C51.4269 20.7109 52.4629 19.6697 53.7409 19.6697C55.0189 19.6697 56.0549 20.7109 56.0549 21.9954C56.0549 23.2799 55.0189 24.3212 53.7409 24.3212Z" fill="#28B4AD"/>
<path d="M15.3847 32.7877C15.4074 32.7667 15.43 32.7422 15.4526 32.7212C15.524 32.6547 15.5937 32.5847 15.6633 32.5147C15.7103 32.4675 15.7573 32.4202 15.8026 32.3712C15.8723 32.296 15.9384 32.2207 16.0028 32.142C16.0429 32.093 16.0847 32.0457 16.1247 31.9967C16.1944 31.9092 16.2605 31.82 16.3267 31.729C16.358 31.6852 16.3911 31.645 16.4207 31.6012C16.5147 31.4647 16.6035 31.3265 16.6871 31.1847L19.9657 32.485C19.9031 32.6915 19.8456 32.9015 19.7934 33.1115C19.7794 33.1675 19.7655 33.2217 19.7533 33.2777C19.708 33.465 19.6663 33.654 19.6297 33.8465C19.6245 33.8727 19.6175 33.899 19.6123 33.927C19.5722 34.1405 19.5374 34.3557 19.5061 34.5727C19.4974 34.6287 19.4904 34.6865 19.4834 34.7425C19.4591 34.9262 19.4399 35.1117 19.4225 35.299C19.4208 35.3287 19.4155 35.3585 19.412 35.3882C19.3824 35.761 19.365 36.1372 19.365 36.5187C19.365 38.8445 19.9396 41.0354 20.953 42.9569C21.2995 43.6114 22.1822 43.7304 22.6837 43.1879C22.9971 42.8484 23.0511 42.3497 22.8369 41.9402C21.9855 40.3215 21.5032 38.477 21.5032 36.5205C21.5032 36.349 21.5084 36.1792 21.5154 36.0112C21.5189 35.915 21.5258 35.8205 21.5328 35.7242C21.5398 35.6262 21.5467 35.53 21.5554 35.432C21.5641 35.334 21.5746 35.243 21.5868 35.1485C21.5972 35.0522 21.6094 34.9577 21.6233 34.8615C21.6373 34.7687 21.6512 34.6742 21.6669 34.5815C21.6825 34.487 21.6982 34.3925 21.7174 34.2997C21.7348 34.207 21.7539 34.116 21.7748 34.025C21.7957 33.9322 21.8166 33.8395 21.8392 33.7485C21.8619 33.6592 21.8845 33.5682 21.9089 33.479C21.9333 33.388 21.9594 33.297 21.9855 33.206C22.0116 33.1185 22.0377 33.031 22.0656 32.9435C22.0952 32.8525 22.1248 32.7632 22.1561 32.674C22.1857 32.5882 22.2171 32.5025 22.2484 32.4185C22.2815 32.3292 22.3163 32.2417 22.3529 32.1525C22.386 32.0702 22.4208 31.9862 22.4556 31.9057C22.4939 31.8182 22.534 31.7307 22.5723 31.645C22.6088 31.5645 22.6454 31.4857 22.6837 31.4052C22.7255 31.3195 22.7708 31.2337 22.8143 31.148C22.8543 31.071 22.8944 30.994 22.9362 30.9187C22.9832 30.833 23.0319 30.749 23.0824 30.6632C23.1242 30.5897 23.166 30.5162 23.2113 30.4445C23.2635 30.3587 23.3192 30.2747 23.3732 30.1907C23.4167 30.1225 23.4603 30.0525 23.5073 29.986C23.5647 29.9002 23.6257 29.8162 23.6866 29.7322C23.7319 29.6692 23.7772 29.6045 23.8224 29.5432C23.8886 29.4557 23.9565 29.37 24.0244 29.2842C24.0697 29.2282 24.1132 29.1705 24.1585 29.1145C24.2368 29.02 24.3169 28.929 24.397 28.838C24.4353 28.7942 24.4736 28.747 24.5137 28.7032C24.6356 28.5685 24.7592 28.4372 24.888 28.3095C26.079 27.1125 27.5276 26.1762 29.1434 25.5917C29.5613 25.4412 29.8469 25.051 29.8469 24.6047V24.54C29.8469 23.8172 29.133 23.3132 28.4557 23.5565C26.5247 24.2477 24.7957 25.3625 23.3749 26.7905C22.3076 27.8632 21.4161 29.1127 20.7475 30.49L17.4689 29.1897C17.4985 29.0567 17.5229 28.922 17.5438 28.7855C17.5507 28.7417 17.556 28.698 17.5612 28.656C17.5751 28.5615 17.5856 28.467 17.596 28.3707C17.6012 28.32 17.6047 28.2692 17.6082 28.2185C17.6152 28.1275 17.6204 28.0347 17.6221 27.942C17.6221 27.8912 17.6256 27.8405 17.6256 27.788C17.6256 27.76 17.6273 27.7337 17.6273 27.7057C17.6273 27.6182 17.6239 27.5325 17.6204 27.4467C17.6204 27.4275 17.6204 27.4065 17.6204 27.3872C17.6204 27.382 17.6204 27.3767 17.6204 27.3697C17.6169 27.3155 17.6134 27.2612 17.6082 27.207C17.6047 27.1475 17.6012 27.0862 17.5943 27.0267C17.5873 26.9585 17.5786 26.892 17.5699 26.8237C17.5647 26.78 17.5594 26.7362 17.5542 26.6942C17.5403 26.5945 17.5229 26.4965 17.5037 26.3985C17.5037 26.3897 17.5002 26.381 17.4985 26.3722C16.9378 23.5215 14.6186 21.306 11.723 20.9175C11.7109 20.9175 11.6969 20.914 11.6847 20.9122C11.5959 20.9 11.5054 20.8912 11.4149 20.8825C11.3766 20.879 11.3383 20.8772 11.2999 20.8737C11.232 20.8685 11.1624 20.865 11.0927 20.8615C11.037 20.8597 10.9831 20.858 10.9273 20.858C10.889 20.858 10.8507 20.8545 10.8124 20.8545C10.7933 20.8545 10.7741 20.8545 10.755 20.8545C10.7358 20.8545 10.7149 20.8545 10.6958 20.8545C10.6679 20.8545 10.64 20.858 10.6122 20.858C10.5129 20.8615 10.4137 20.865 10.3144 20.8737C10.2709 20.8772 10.2256 20.8807 10.1821 20.8842C10.0672 20.8947 9.95228 20.9087 9.8391 20.9245C9.81647 20.928 9.79383 20.9297 9.77294 20.9332C9.63713 20.9542 9.50306 20.9787 9.37073 21.0085C9.33765 21.0155 9.30457 21.0242 9.27148 21.0312C9.1705 21.054 9.07125 21.0802 8.972 21.1082C8.9337 21.1187 8.89365 21.131 8.85534 21.1415C8.75262 21.173 8.65337 21.2045 8.55238 21.2412C8.52452 21.25 8.4984 21.2587 8.47055 21.2692C8.34344 21.3165 8.21634 21.3672 8.09271 21.4215C8.07878 21.4267 8.0666 21.4337 8.05267 21.4407C7.94297 21.4897 7.83676 21.5405 7.73055 21.5947C7.69921 21.6105 7.66961 21.6262 7.63827 21.6437C7.54599 21.6927 7.4537 21.7435 7.3649 21.7977C7.34749 21.8082 7.32834 21.817 7.31093 21.8275C5.27724 23.056 3.93132 25.3222 4.00271 27.9C4.10021 31.3895 6.85997 34.2945 10.3249 34.5377C12.2733 34.6742 14.0614 33.9847 15.3812 32.7842C15.3812 32.7842 15.383 32.786 15.3847 32.786V32.7877ZM14.1642 27.872C14.1624 27.8947 14.1589 27.9175 14.1572 27.9402C14.145 28.0435 14.1311 28.145 14.1119 28.2447C14.1119 28.2465 14.1119 28.25 14.1102 28.2517C14.0893 28.3497 14.0649 28.446 14.0371 28.5405C14.0301 28.5615 14.0249 28.5842 14.0179 28.6052C13.9883 28.698 13.9552 28.7907 13.9169 28.88C13.91 28.8957 13.903 28.9097 13.896 28.9255C13.8612 29.006 13.8229 29.0847 13.7829 29.16C13.7741 29.1775 13.7654 29.195 13.7567 29.2107C13.7115 29.2947 13.661 29.3752 13.6087 29.4557C13.5965 29.475 13.5826 29.4925 13.5704 29.5117C13.5199 29.5852 13.4677 29.657 13.412 29.7252C13.405 29.734 13.3998 29.7427 13.3928 29.7497C13.3319 29.8232 13.2675 29.8932 13.2013 29.9615C13.1839 29.979 13.1682 29.9965 13.1508 30.0122C12.531 30.6212 11.6847 30.9992 10.7497 30.9992C8.8536 30.9992 7.31789 29.454 7.31789 27.55C7.31789 26.2515 8.03351 25.121 9.08866 24.533C9.12 24.5155 9.15308 24.4997 9.18443 24.4822C9.24363 24.4507 9.30457 24.4227 9.36551 24.3947C9.40207 24.379 9.43864 24.3632 9.4752 24.3492C9.53614 24.3247 9.59882 24.302 9.66151 24.281C9.69807 24.2687 9.73463 24.2565 9.7712 24.246C9.84433 24.225 9.91746 24.2057 9.99233 24.1882C10.0202 24.1812 10.048 24.1742 10.0759 24.169C10.1786 24.148 10.2831 24.1322 10.3893 24.1217C10.4119 24.12 10.4363 24.1182 10.459 24.1165C10.5425 24.1095 10.6279 24.1042 10.7132 24.1042C10.7515 24.1042 10.7898 24.1042 10.8281 24.106C10.9012 24.106 10.9726 24.1112 11.0457 24.1165C11.084 24.12 11.1206 24.1235 11.1589 24.1287C11.2425 24.1392 11.3261 24.1515 11.4079 24.1672C11.4253 24.1707 11.4445 24.1742 11.4619 24.1777C11.7875 24.246 12.0974 24.3615 12.383 24.5172C12.3899 24.5207 12.3969 24.526 12.4038 24.5295C12.4874 24.575 12.5675 24.6257 12.6459 24.6782C12.665 24.6905 12.6824 24.7027 12.7016 24.7167C12.7677 24.7622 12.8322 24.8112 12.8966 24.862C12.9175 24.8795 12.9384 24.8952 12.9593 24.9127C13.022 24.9652 13.0812 25.0212 13.1404 25.0772C13.1578 25.093 13.1752 25.1087 13.1909 25.1245C13.264 25.198 13.3336 25.275 13.3998 25.3555C13.4068 25.3625 13.412 25.3712 13.4172 25.3782C13.4764 25.45 13.5321 25.5252 13.5844 25.6022C13.6 25.6267 13.6157 25.6512 13.6314 25.6757C13.6732 25.7405 13.7132 25.8052 13.7498 25.8717C13.7637 25.898 13.7776 25.9242 13.7933 25.9522C13.8299 26.0222 13.8647 26.094 13.896 26.1675C13.9065 26.1902 13.9152 26.213 13.9256 26.2357C13.9622 26.325 13.9953 26.416 14.0249 26.5087C14.0266 26.5175 14.0301 26.5245 14.0336 26.5332C14.098 26.7415 14.1415 26.9585 14.1659 27.1807C14.1676 27.2 14.1694 27.2175 14.1711 27.2367C14.1798 27.3295 14.1851 27.424 14.1851 27.5202C14.1851 27.536 14.1851 27.5517 14.1851 27.5657C14.1851 27.669 14.1781 27.7722 14.1694 27.8737L14.1642 27.872Z" fill="#28B4AD"/>
<path d="M55.5431 50.0934C55.5396 50.0322 55.5344 49.9727 55.5309 49.9114C55.5274 49.8677 55.5257 49.8239 55.5205 49.7802C55.5135 49.7172 55.5048 49.6542 55.4978 49.5912C55.4926 49.5509 55.4891 49.5107 55.4822 49.4704C55.4717 49.3987 55.4578 49.3287 55.4456 49.2569C55.4404 49.2272 55.4352 49.1957 55.4299 49.1659C55.409 49.0662 55.3864 48.9664 55.362 48.8667C55.3568 48.8474 55.3516 48.8299 55.3463 48.8107C55.3255 48.7302 55.3028 48.6514 55.2784 48.5727C55.268 48.5377 55.2558 48.5044 55.2436 48.4712C55.2227 48.4099 55.2036 48.3469 55.1809 48.2874C55.167 48.2489 55.1513 48.2104 55.1357 48.1719C55.1148 48.1159 55.0921 48.0617 55.0695 48.0074C55.0521 47.9672 55.0347 47.9287 55.0155 47.8902C54.9929 47.8377 54.9685 47.7869 54.9441 47.7344C54.925 47.6942 54.9041 47.6557 54.8832 47.6154C54.8588 47.5664 54.8327 47.5174 54.8066 47.4684C54.7857 47.4282 54.7613 47.3897 54.7387 47.3512C54.7108 47.3039 54.6847 47.2567 54.6568 47.2112C54.6325 47.1727 54.6081 47.1342 54.5837 47.0957C54.5541 47.0502 54.5263 47.0047 54.4949 46.9609C54.4688 46.9224 54.4427 46.8857 54.4148 46.8489C54.3835 46.8052 54.3539 46.7632 54.3208 46.7212C54.2929 46.6844 54.2651 46.6494 54.2355 46.6127C54.2024 46.5707 54.1693 46.5304 54.1362 46.4902C54.1066 46.4552 54.077 46.4202 54.0457 46.3852C54.0109 46.3449 53.976 46.3064 53.9412 46.2679C53.9099 46.2347 53.8785 46.2014 53.8455 46.1682C53.8089 46.1297 53.7723 46.0929 53.734 46.0562C53.701 46.0229 53.6679 45.9914 53.6348 45.9599C53.5965 45.9249 53.5582 45.8882 53.5199 45.8532C53.485 45.8217 53.4502 45.7919 53.4154 45.7622C53.3753 45.7289 53.3353 45.6957 53.2953 45.6624C53.2587 45.6327 53.2239 45.6047 53.1856 45.5767C53.1438 45.5452 53.102 45.5137 53.0602 45.4822C53.0236 45.4542 52.9853 45.4279 52.947 45.4017C52.9035 45.3719 52.86 45.3422 52.8164 45.3142C52.7781 45.2879 52.7398 45.2634 52.6998 45.2389C52.6545 45.2109 52.6092 45.1847 52.564 45.1567C52.5239 45.1339 52.4839 45.1094 52.4438 45.0867C52.3968 45.0604 52.3498 45.0359 52.3028 45.0114C52.261 44.9904 52.221 44.9677 52.1792 44.9484C52.1322 44.9239 52.0834 44.9029 52.0347 44.8802C51.9929 44.8609 51.9511 44.8417 51.9093 44.8224C51.8605 44.8014 51.81 44.7804 51.7595 44.7612C51.716 44.7437 51.6742 44.7262 51.6307 44.7104C51.5802 44.6912 51.528 44.6737 51.4775 44.6562C51.4339 44.6404 51.3904 44.6247 51.3451 44.6107C51.2929 44.5932 51.2389 44.5792 51.1867 44.5634C51.1432 44.5512 51.0996 44.5372 51.0544 44.5249C51.0004 44.5109 50.9447 44.4987 50.889 44.4847C50.8454 44.4742 50.8019 44.4637 50.7566 44.4549C50.6992 44.4427 50.6417 44.4322 50.5825 44.4217C50.539 44.4147 50.4972 44.4059 50.4537 44.3989C50.3927 44.3884 50.33 44.3814 50.2674 44.3744C50.2273 44.3692 50.1873 44.3639 50.1455 44.3587C50.0758 44.3517 50.0062 44.3464 49.9365 44.3429C49.9017 44.3412 49.8686 44.3377 49.8338 44.3359C49.7293 44.3307 49.6231 44.3272 49.5169 44.3272C49.4246 44.3272 49.3341 44.3289 49.2436 44.3342C49.2035 44.3359 49.1635 44.3394 49.1252 44.3429C49.0747 44.3464 49.0242 44.3482 48.9737 44.3534C48.9197 44.3587 48.8675 44.3657 48.8135 44.3709C48.7787 44.3744 48.7421 44.3779 48.7073 44.3832C48.6498 44.3902 48.5941 44.4007 48.5384 44.4094C48.507 44.4147 48.4757 44.4182 48.4444 44.4234C48.3921 44.4322 48.3399 44.4444 48.2877 44.4549C48.2528 44.4619 48.2198 44.4689 48.1849 44.4759C48.1379 44.4864 48.0909 44.4987 48.0422 44.5109C48.0038 44.5197 47.9673 44.5284 47.929 44.5389C47.8889 44.5494 47.8489 44.5634 47.8088 44.5739C47.7653 44.5862 47.7218 44.5984 47.6782 44.6124C47.6504 44.6212 47.6208 44.6317 47.5929 44.6422C47.5407 44.6597 47.4885 44.6772 47.4362 44.6964C46.7833 44.9379 46.1826 45.2897 45.6567 45.7307L44.1976 44.5022C44.7374 43.7427 45.1988 42.9237 45.5784 42.0609C45.5784 42.0609 45.5784 42.0609 45.5784 42.0627C45.5923 42.0294 45.6045 41.9944 45.6202 41.9612C45.6829 41.8159 45.7421 41.6707 45.7995 41.5237C45.8204 41.4712 45.8413 41.4169 45.8622 41.3644C45.9371 41.1667 46.0067 40.9672 46.0711 40.7659C46.0764 40.7484 46.0816 40.7327 46.0868 40.7152C46.146 40.5297 46.2 40.3442 46.2505 40.1552C46.2662 40.0957 46.2818 40.0344 46.2975 39.9732C46.3375 39.8192 46.3741 39.6634 46.4089 39.5077C46.4211 39.4482 46.4351 39.3904 46.4472 39.3309C46.4908 39.1209 46.5308 38.9092 46.5639 38.6957C46.5639 38.6852 46.5674 38.6747 46.5691 38.6642C46.6005 38.4612 46.6266 38.2582 46.6492 38.0517C46.6562 37.9869 46.6614 37.9222 46.6684 37.8574C46.684 37.6982 46.6962 37.5372 46.7067 37.3744C46.7102 37.3097 46.7154 37.2449 46.7189 37.1802C46.7293 36.9597 46.7363 36.7392 46.7363 36.5169C46.7363 35.0557 46.5099 33.6469 46.0903 32.3257C45.8727 31.6415 45.0595 31.3632 44.4693 31.7675C44.0827 32.0335 43.9086 32.5235 44.0514 32.9732C44.4066 34.0897 44.5999 35.2797 44.5999 36.5169C44.5999 36.7024 44.5946 36.8879 44.5859 37.0717C44.5825 37.1312 44.579 37.1889 44.5755 37.2467C44.5685 37.3727 44.5581 37.4987 44.5476 37.6229C44.5407 37.6894 44.5337 37.7559 44.5267 37.8242C44.5145 37.9414 44.4989 38.0569 44.4832 38.1742C44.4745 38.2407 44.464 38.3072 44.4536 38.3737C44.4344 38.4927 44.4136 38.6117 44.3909 38.7307C44.3787 38.7902 44.3683 38.8497 44.3561 38.9074C44.3265 39.0527 44.2917 39.1962 44.2569 39.3397C44.2499 39.3694 44.2429 39.3992 44.236 39.4289C44.1924 39.6004 44.1437 39.7719 44.0914 39.9399C44.0758 39.9889 44.0584 40.0379 44.0427 40.0887C43.4733 41.8579 42.4965 43.4417 41.2203 44.7244C39.1309 46.8244 36.2423 48.1247 33.0542 48.1247C31.1911 48.1247 29.4325 47.6819 27.8742 46.8944C27.4546 46.6827 26.9444 46.7842 26.624 47.1307C26.1383 47.6574 26.2932 48.5044 26.9322 48.8247C28.7744 49.7522 30.8533 50.2737 33.0542 50.2737C36.8325 50.2737 40.2556 48.7337 42.7333 46.2434L42.8326 46.1437L44.2917 47.3722C43.7867 48.2577 43.496 49.2849 43.496 50.3804C43.496 53.8542 46.4072 56.6454 49.9104 56.4267C51.4514 56.3304 52.846 55.6339 53.8611 54.5717C53.8646 54.5734 53.8664 54.5752 53.8698 54.5787C54.636 53.7772 55.1844 52.7622 55.4212 51.6334C55.4247 51.6212 55.4264 51.6072 55.4299 51.5949C55.4404 51.5459 55.4473 51.4969 55.456 51.4479C55.4648 51.3989 55.4735 51.3517 55.4822 51.3027C55.4874 51.2677 55.4909 51.2309 55.4961 51.1959C55.5048 51.1347 55.5118 51.0734 55.5187 51.0122C55.5222 50.9772 55.5257 50.9404 55.5274 50.9054C55.5309 50.8599 55.5361 50.8144 55.5396 50.7689C55.5396 50.7549 55.5396 50.7409 55.5396 50.7287C55.5431 50.6674 55.5448 50.6062 55.5466 50.5449C55.5466 50.5012 55.5501 50.4574 55.5501 50.4137C55.5501 50.4032 55.5501 50.3944 55.5501 50.3839C55.5501 50.3332 55.5483 50.2842 55.5466 50.2334C55.5466 50.1862 55.5466 50.1407 55.5431 50.0934ZM52.665 50.9299C52.6615 50.9632 52.6562 50.9964 52.651 51.0297C52.6423 51.0962 52.6336 51.1644 52.6214 51.2292C52.6145 51.2677 52.604 51.3062 52.5953 51.3447C52.5814 51.4042 52.5674 51.4619 52.55 51.5197C52.5378 51.5599 52.5239 51.5984 52.5117 51.6387C52.4926 51.6929 52.4734 51.7472 52.4525 51.7997C52.4369 51.8382 52.4194 51.8767 52.402 51.9152C52.3794 51.9659 52.355 52.0167 52.3289 52.0657C52.3098 52.1042 52.2889 52.1409 52.268 52.1777C52.2401 52.2267 52.2122 52.2739 52.1827 52.3194C52.16 52.3544 52.1374 52.3894 52.113 52.4244C52.0817 52.4699 52.0468 52.5137 52.0138 52.5574C51.9876 52.5907 51.9633 52.6222 51.9371 52.6537C51.3608 53.3379 50.5024 53.7719 49.543 53.7719C47.8106 53.7719 46.4055 52.3597 46.4055 50.6184C46.4055 49.0119 47.6016 47.6872 49.1495 47.4929C49.1844 47.4877 49.2192 47.4842 49.254 47.4807C49.3498 47.4719 49.4455 47.4667 49.5448 47.4667C51.2772 47.4667 52.6824 48.8789 52.6824 50.6202C52.6824 50.7252 52.6771 50.8267 52.6667 50.9282L52.665 50.9299Z" fill="#28B4AD"/>
<path d="M35.4082 24.267V24.3317C35.4082 24.7955 35.7112 25.2085 36.1552 25.3327C37.5533 25.723 38.847 26.3722 39.977 27.2245C40.3357 27.4957 40.8232 27.5132 41.1941 27.2595L41.2481 27.2227C41.8366 26.8185 41.854 25.954 41.2829 25.5217C39.93 24.498 38.3839 23.721 36.7071 23.2555C36.0524 23.0735 35.4082 23.5827 35.4082 24.2652V24.267Z" fill="#28B4AD"/>
<path d="M53.2725 17.7622C51.2162 17.9739 49.583 19.6907 49.4524 21.7644C49.4141 22.3804 49.5029 22.9702 49.6979 23.5092L40.1929 30.0314C38.5649 28.2254 36.27 27.0389 33.6966 26.8692V16.3237C35.5039 15.8477 36.8359 14.1957 36.8359 12.2305C36.8359 9.81896 34.8283 7.87822 32.3994 8.00597C30.1968 8.12147 28.4278 9.99396 28.4173 12.2095C28.4086 14.1835 29.7441 15.8459 31.5567 16.3219V26.9619C31.4139 26.9847 31.2711 27.0109 31.1301 27.0389C31.0761 27.0494 31.0221 27.0634 30.9699 27.0757C30.8828 27.0949 30.7958 27.1124 30.7105 27.1352C30.6495 27.1509 30.5886 27.1684 30.5276 27.1859C30.451 27.2069 30.3727 27.2262 30.2978 27.2489C30.2299 27.2699 30.162 27.2927 30.0941 27.3154C30.0262 27.3364 29.9583 27.3574 29.8921 27.3819C29.819 27.4082 29.7476 27.4362 29.6762 27.4624C29.6153 27.4852 29.5543 27.5062 29.4951 27.5307C29.422 27.5604 29.3506 27.5919 29.2792 27.6234C29.2218 27.6479 29.1643 27.6707 29.1068 27.6969C29.0337 27.7302 28.9606 27.7669 28.8892 27.8019C28.8352 27.8282 28.7812 27.8527 28.7273 27.8789C28.6541 27.9157 28.581 27.9559 28.5096 27.9962C28.4591 28.0242 28.4086 28.0487 28.3581 28.0784C28.285 28.1187 28.2136 28.1624 28.1422 28.2062C28.0935 28.2342 28.0447 28.2622 27.9977 28.2919C27.9246 28.3374 27.8532 28.3847 27.7818 28.4319C27.7365 28.4617 27.6913 28.4897 27.6477 28.5194C27.5746 28.5702 27.5032 28.6209 27.4318 28.6734C27.39 28.7032 27.3483 28.7312 27.3082 28.7627C27.2351 28.8169 27.1637 28.8747 27.0923 28.9307C27.0557 28.9604 27.0174 28.9884 26.9791 29.0199C26.9077 29.0777 26.8381 29.1389 26.7684 29.2002C26.7336 29.2299 26.6971 29.2597 26.6622 29.2912C26.5926 29.3542 26.5247 29.4172 26.4568 29.4819C26.4237 29.5134 26.3906 29.5432 26.3575 29.5747C26.2896 29.6412 26.2235 29.7094 26.1573 29.7777C26.126 29.8092 26.0946 29.8407 26.065 29.8722C25.9989 29.9422 25.9362 30.0139 25.8717 30.0857C25.8439 30.1172 25.8143 30.1487 25.7847 30.1819C25.7203 30.2554 25.6593 30.3324 25.5984 30.4077C25.5723 30.4392 25.5461 30.4707 25.52 30.5022C25.4591 30.5792 25.3999 30.6597 25.3407 30.7384C25.3163 30.7699 25.2919 30.8014 25.2676 30.8347C25.2084 30.9152 25.1526 30.9974 25.0969 31.0814C25.0743 31.1147 25.0517 31.1462 25.029 31.1794C24.9733 31.2634 24.9211 31.3492 24.8671 31.4349C24.8462 31.4682 24.8253 31.4997 24.8062 31.5347C24.7539 31.6222 24.7052 31.7097 24.6547 31.7989C24.6355 31.8322 24.6164 31.8654 24.5972 31.8987C24.5485 31.9879 24.5014 32.0807 24.4562 32.1717C24.4388 32.2049 24.4214 32.2382 24.4039 32.2732C24.3587 32.3659 24.3169 32.4587 24.2734 32.5532C24.2577 32.5882 24.242 32.6214 24.2263 32.6564C24.1846 32.7509 24.1462 32.8472 24.1079 32.9434C24.094 32.9784 24.0783 33.0134 24.0644 33.0502C24.0279 33.1464 23.993 33.2444 23.9599 33.3407C23.9478 33.3774 23.9338 33.4142 23.9216 33.4509C23.8886 33.5489 23.859 33.6487 23.8294 33.7467C23.8189 33.7852 23.8067 33.8219 23.7945 33.8587C23.7667 33.9584 23.7406 34.0582 23.7162 34.1597C23.7057 34.1982 23.6953 34.2367 23.6866 34.2752C23.6622 34.3767 23.6413 34.4782 23.6204 34.5797C23.6117 34.6199 23.603 34.6584 23.596 34.6987C23.5769 34.8002 23.5612 34.9034 23.5438 35.0049C23.5368 35.0469 23.5299 35.0872 23.5247 35.1292C23.5107 35.2307 23.4985 35.3339 23.4863 35.4372C23.4811 35.4792 23.4759 35.5229 23.4724 35.5649C23.462 35.6682 23.455 35.7714 23.448 35.8747C23.4446 35.9184 23.4411 35.9622 23.4393 36.0077C23.4341 36.1109 23.4324 36.2142 23.4289 36.3174C23.4289 36.3542 23.4254 36.3909 23.4254 36.4277C23.4254 36.4574 23.4237 36.4889 23.4237 36.5187C23.4237 38.8199 24.2246 40.9339 25.5601 42.5946L18.4248 50.3296C17.784 49.9709 17.0458 49.7679 16.2605 49.7679C13.795 49.7679 11.7979 51.7769 11.7961 54.2531C11.7961 56.8991 14.0753 59.0096 16.7672 58.7104C18.8305 58.4811 20.4863 56.8029 20.697 54.7274C20.8084 53.6371 20.5316 52.6169 19.9866 51.7874L27.0749 44.1049C28.7151 45.4104 30.7871 46.1909 33.0401 46.1909C37.9293 46.1944 41.9114 42.6244 42.5713 37.9029C42.5783 37.8574 42.5835 37.8137 42.5887 37.7682C42.6009 37.6702 42.6131 37.5704 42.6218 37.4707C42.6322 37.3587 42.6409 37.2467 42.6479 37.1347C42.6514 37.0892 42.6531 37.0419 42.6549 36.9964C42.6601 36.8774 42.6636 36.7567 42.6653 36.6359C42.6653 36.6149 42.6671 36.5939 42.6671 36.5747C42.6671 36.5694 42.6671 36.5624 42.6671 36.5572C42.6671 36.5449 42.6671 36.5327 42.6671 36.5187C42.6671 36.4119 42.6601 36.3052 42.6566 36.1984C42.6531 36.0987 42.6531 35.9989 42.6462 35.9009C42.6392 35.7854 42.6253 35.6717 42.6148 35.5562C42.6061 35.4599 42.5992 35.3619 42.587 35.2657C42.5713 35.1502 42.5504 35.0382 42.533 34.9244C42.5173 34.8317 42.5051 34.7372 42.4877 34.6444C42.4651 34.5289 42.4372 34.4169 42.4094 34.3032C42.3885 34.2139 42.3711 34.1247 42.3484 34.0372C42.3171 33.9199 42.2805 33.8062 42.2457 33.6924C42.2213 33.6102 42.1987 33.5262 42.1708 33.4439C42.1308 33.3249 42.0855 33.2094 42.042 33.0922C42.0141 33.0169 41.988 32.9417 41.9584 32.8682C41.9062 32.7404 41.8487 32.6179 41.793 32.4919C41.7651 32.4307 41.7408 32.3694 41.7112 32.3082C41.6224 32.1244 41.5301 31.9459 41.4308 31.7692L50.8923 25.2784C51.7229 26.0117 52.8372 26.4264 54.0491 26.3337C56.0984 26.1779 57.7787 24.5312 57.9789 22.4749C58.2435 19.7502 55.9783 17.4804 53.2638 17.7604L53.2725 17.7622ZM16.2657 56.4284C14.9877 56.4284 13.9517 55.3871 13.9517 54.1026C13.9517 52.8181 14.9877 51.7769 16.2657 51.7769C17.5437 51.7769 18.5797 52.8181 18.5797 54.1026C18.5797 55.3871 17.5437 56.4284 16.2657 56.4284ZM30.505 12.1587C30.505 10.9652 31.4679 9.99746 32.6553 9.99746C33.8428 9.99746 34.8057 10.9652 34.8057 12.1587C34.8057 13.3522 33.8428 14.32 32.6553 14.32C31.4679 14.32 30.505 13.3522 30.505 12.1587ZM53.7409 24.3212C52.4629 24.3212 51.4269 23.2799 51.4269 21.9954C51.4269 20.7109 52.4629 19.6697 53.7409 19.6697C55.0189 19.6697 56.0549 20.7109 56.0549 21.9954C56.0549 23.2799 55.0189 24.3212 53.7409 24.3212Z" fill="url(#paint0_linear_269_952)"/>
<path d="M15.3847 32.7877C15.4074 32.7667 15.43 32.7422 15.4526 32.7212C15.524 32.6547 15.5937 32.5847 15.6633 32.5147C15.7103 32.4675 15.7573 32.4202 15.8026 32.3712C15.8723 32.296 15.9384 32.2207 16.0028 32.142C16.0429 32.093 16.0847 32.0457 16.1247 31.9967C16.1944 31.9092 16.2605 31.82 16.3267 31.729C16.358 31.6852 16.3911 31.645 16.4207 31.6012C16.5147 31.4647 16.6035 31.3265 16.6871 31.1847L19.9657 32.485C19.9031 32.6915 19.8456 32.9015 19.7934 33.1115C19.7794 33.1675 19.7655 33.2217 19.7533 33.2777C19.708 33.465 19.6663 33.654 19.6297 33.8465C19.6245 33.8727 19.6175 33.899 19.6123 33.927C19.5722 34.1405 19.5374 34.3557 19.5061 34.5727C19.4974 34.6287 19.4904 34.6865 19.4834 34.7425C19.4591 34.9262 19.4399 35.1117 19.4225 35.299C19.4208 35.3287 19.4155 35.3585 19.412 35.3882C19.3824 35.761 19.365 36.1372 19.365 36.5187C19.365 38.8445 19.9396 41.0354 20.953 42.9569C21.2995 43.6114 22.1822 43.7304 22.6837 43.1879C22.9971 42.8484 23.0511 42.3497 22.8369 41.9402C21.9855 40.3215 21.5032 38.477 21.5032 36.5205C21.5032 36.349 21.5084 36.1792 21.5154 36.0112C21.5189 35.915 21.5258 35.8205 21.5328 35.7242C21.5398 35.6262 21.5467 35.53 21.5554 35.432C21.5641 35.334 21.5746 35.243 21.5868 35.1485C21.5972 35.0522 21.6094 34.9577 21.6233 34.8615C21.6373 34.7687 21.6512 34.6742 21.6669 34.5815C21.6825 34.487 21.6982 34.3925 21.7174 34.2997C21.7348 34.207 21.7539 34.116 21.7748 34.025C21.7957 33.9322 21.8166 33.8395 21.8392 33.7485C21.8619 33.6592 21.8845 33.5682 21.9089 33.479C21.9333 33.388 21.9594 33.297 21.9855 33.206C22.0116 33.1185 22.0377 33.031 22.0656 32.9435C22.0952 32.8525 22.1248 32.7632 22.1561 32.674C22.1857 32.5882 22.2171 32.5025 22.2484 32.4185C22.2815 32.3292 22.3163 32.2417 22.3529 32.1525C22.386 32.0702 22.4208 31.9862 22.4556 31.9057C22.4939 31.8182 22.534 31.7307 22.5723 31.645C22.6088 31.5645 22.6454 31.4857 22.6837 31.4052C22.7255 31.3195 22.7708 31.2337 22.8143 31.148C22.8543 31.071 22.8944 30.994 22.9362 30.9187C22.9832 30.833 23.0319 30.749 23.0824 30.6632C23.1242 30.5897 23.166 30.5162 23.2113 30.4445C23.2635 30.3587 23.3192 30.2747 23.3732 30.1907C23.4167 30.1225 23.4603 30.0525 23.5073 29.986C23.5647 29.9002 23.6257 29.8162 23.6866 29.7322C23.7319 29.6692 23.7772 29.6045 23.8224 29.5432C23.8886 29.4557 23.9565 29.37 24.0244 29.2842C24.0697 29.2282 24.1132 29.1705 24.1585 29.1145C24.2368 29.02 24.3169 28.929 24.397 28.838C24.4353 28.7942 24.4736 28.747 24.5137 28.7032C24.6356 28.5685 24.7592 28.4372 24.888 28.3095C26.079 27.1125 27.5276 26.1762 29.1434 25.5917C29.5613 25.4412 29.8469 25.051 29.8469 24.6047V24.54C29.8469 23.8172 29.133 23.3132 28.4557 23.5565C26.5247 24.2477 24.7957 25.3625 23.3749 26.7905C22.3076 27.8632 21.4161 29.1127 20.7475 30.49L17.4689 29.1897C17.4985 29.0567 17.5229 28.922 17.5438 28.7855C17.5507 28.7417 17.556 28.698 17.5612 28.656C17.5751 28.5615 17.5856 28.467 17.596 28.3707C17.6012 28.32 17.6047 28.2692 17.6082 28.2185C17.6152 28.1275 17.6204 28.0347 17.6221 27.942C17.6221 27.8912 17.6256 27.8405 17.6256 27.788C17.6256 27.76 17.6273 27.7337 17.6273 27.7057C17.6273 27.6182 17.6239 27.5325 17.6204 27.4467C17.6204 27.4275 17.6204 27.4065 17.6204 27.3872C17.6204 27.382 17.6204 27.3767 17.6204 27.3697C17.6169 27.3155 17.6134 27.2612 17.6082 27.207C17.6047 27.1475 17.6012 27.0862 17.5943 27.0267C17.5873 26.9585 17.5786 26.892 17.5699 26.8237C17.5647 26.78 17.5594 26.7362 17.5542 26.6942C17.5403 26.5945 17.5229 26.4965 17.5037 26.3985C17.5037 26.3897 17.5002 26.381 17.4985 26.3722C16.9378 23.5215 14.6186 21.306 11.723 20.9175C11.7109 20.9175 11.6969 20.914 11.6847 20.9122C11.5959 20.9 11.5054 20.8912 11.4149 20.8825C11.3766 20.879 11.3383 20.8772 11.2999 20.8737C11.232 20.8685 11.1624 20.865 11.0927 20.8615C11.037 20.8597 10.9831 20.858 10.9273 20.858C10.889 20.858 10.8507 20.8545 10.8124 20.8545C10.7933 20.8545 10.7741 20.8545 10.755 20.8545C10.7358 20.8545 10.7149 20.8545 10.6958 20.8545C10.6679 20.8545 10.64 20.858 10.6122 20.858C10.5129 20.8615 10.4137 20.865 10.3144 20.8737C10.2709 20.8772 10.2256 20.8807 10.1821 20.8842C10.0672 20.8947 9.95228 20.9087 9.8391 20.9245C9.81647 20.928 9.79383 20.9297 9.77294 20.9332C9.63713 20.9542 9.50306 20.9787 9.37073 21.0085C9.33765 21.0155 9.30457 21.0242 9.27148 21.0312C9.1705 21.054 9.07125 21.0802 8.972 21.1082C8.9337 21.1187 8.89365 21.131 8.85534 21.1415C8.75262 21.173 8.65337 21.2045 8.55238 21.2412C8.52452 21.25 8.4984 21.2587 8.47055 21.2692C8.34344 21.3165 8.21634 21.3672 8.09271 21.4215C8.07878 21.4267 8.0666 21.4337 8.05267 21.4407C7.94297 21.4897 7.83676 21.5405 7.73055 21.5947C7.69921 21.6105 7.66961 21.6262 7.63827 21.6437C7.54599 21.6927 7.4537 21.7435 7.3649 21.7977C7.34749 21.8082 7.32834 21.817 7.31093 21.8275C5.27724 23.056 3.93132 25.3222 4.00271 27.9C4.10021 31.3895 6.85997 34.2945 10.3249 34.5377C12.2733 34.6742 14.0614 33.9847 15.3812 32.7842C15.3812 32.7842 15.383 32.786 15.3847 32.786V32.7877ZM10.748 31.001C8.85186 31.001 7.31615 29.4557 7.31615 27.5517C7.31615 26.2532 8.03177 25.1227 9.08692 24.5347C9.11826 24.5172 9.15134 24.5015 9.18268 24.484C9.24188 24.4525 9.30282 24.4245 9.36377 24.3965C9.40033 24.3807 9.43689 24.365 9.47346 24.351C9.5344 24.3265 9.59708 24.3037 9.65976 24.2827C9.69633 24.2705 9.73289 24.2582 9.76946 24.2477C9.84259 24.2267 9.91572 24.2075 9.99059 24.19C10.0184 24.183 10.0463 24.176 10.0742 24.1707C10.1769 24.1497 10.2814 24.134 10.3876 24.1235C10.4102 24.1217 10.4346 24.12 10.4572 24.1182C10.5408 24.1112 10.6261 24.106 10.7114 24.106C10.7497 24.106 10.788 24.106 10.8263 24.1077C10.8995 24.1077 10.9709 24.113 11.044 24.1182C11.0823 24.1217 11.1189 24.1252 11.1572 24.1305C11.2407 24.141 11.3243 24.1532 11.4062 24.169C11.4236 24.1725 11.4427 24.176 11.4601 24.1795C11.7857 24.2477 12.0957 24.3632 12.3812 24.519C12.3882 24.5225 12.3951 24.5277 12.4021 24.5312C12.4857 24.5767 12.5658 24.6275 12.6441 24.68C12.6633 24.6922 12.6807 24.7045 12.6998 24.7185C12.766 24.764 12.8304 24.813 12.8949 24.8637C12.9157 24.8812 12.9366 24.897 12.9575 24.9145C13.0202 24.967 13.0794 25.023 13.1386 25.079C13.156 25.0947 13.1734 25.1105 13.1891 25.1262C13.2622 25.1997 13.3319 25.2767 13.3981 25.3572C13.405 25.3642 13.4102 25.373 13.4155 25.38C13.4747 25.4517 13.5304 25.527 13.5826 25.604C13.5983 25.6285 13.614 25.653 13.6296 25.6775C13.6714 25.7422 13.7115 25.807 13.748 25.8735C13.762 25.8997 13.7759 25.926 13.7916 25.954C13.8281 26.024 13.8629 26.0957 13.8943 26.1692C13.9047 26.192 13.9134 26.2147 13.9239 26.2375C13.9604 26.3267 13.9935 26.4177 14.0231 26.5105C14.0249 26.5192 14.0284 26.5262 14.0318 26.535C14.0963 26.7432 14.1398 26.9602 14.1642 27.1825C14.1659 27.2017 14.1676 27.2192 14.1694 27.2385C14.1781 27.3312 14.1833 27.4257 14.1833 27.522C14.1833 27.5377 14.1833 27.5535 14.1833 27.5675C14.1833 27.6707 14.1764 27.774 14.1676 27.8755C14.1659 27.8982 14.1624 27.921 14.1607 27.9437C14.1485 28.047 14.1346 28.1485 14.1154 28.2482C14.1154 28.25 14.1154 28.2535 14.1137 28.2552C14.0928 28.3532 14.0684 28.4495 14.0405 28.544C14.0336 28.565 14.0284 28.5877 14.0214 28.6087C13.9918 28.7015 13.9587 28.7942 13.9204 28.8835C13.9134 28.8992 13.9065 28.9132 13.8995 28.929C13.8647 29.0095 13.8264 29.0882 13.7863 29.1635C13.7776 29.181 13.7689 29.1985 13.7602 29.2142C13.7149 29.2982 13.6645 29.3787 13.6122 29.4592C13.6 29.4785 13.5861 29.496 13.5739 29.5152C13.5234 29.5887 13.4712 29.6605 13.4155 29.7287C13.4085 29.7375 13.4033 29.7462 13.3963 29.7532C13.3354 29.8267 13.2709 29.8967 13.2048 29.965C13.1874 29.9825 13.1717 30 13.1543 30.0157C12.5344 30.6247 11.6882 31.0027 10.7532 31.0027L10.748 31.001Z" fill="url(#paint1_linear_269_952)"/>
<path d="M55.5466 50.2316C55.5466 50.1843 55.5466 50.1388 55.5431 50.0916C55.5396 50.0303 55.5344 49.9708 55.5309 49.9096C55.5274 49.8658 55.5257 49.8221 55.5205 49.7783C55.5135 49.7153 55.5048 49.6523 55.4978 49.5893C55.4926 49.5491 55.4891 49.5088 55.4822 49.4686C55.4717 49.3968 55.4578 49.3268 55.4456 49.2551C55.4404 49.2253 55.4352 49.1938 55.4299 49.1641C55.409 49.0643 55.3864 48.9646 55.362 48.8648C55.3568 48.8456 55.3516 48.8281 55.3463 48.8088C55.3255 48.7283 55.3028 48.6496 55.2784 48.5708C55.268 48.5358 55.2558 48.5026 55.2436 48.4693C55.2227 48.4081 55.2036 48.3451 55.1809 48.2856C55.167 48.2471 55.1513 48.2086 55.1357 48.1701C55.1148 48.1141 55.0921 48.0598 55.0695 48.0056C55.0521 47.9653 55.0347 47.9268 55.0155 47.8883C54.9929 47.8358 54.9685 47.7851 54.9441 47.7326C54.925 47.6923 54.9041 47.6538 54.8832 47.6136C54.8588 47.5646 54.8327 47.5156 54.8066 47.4666C54.7857 47.4263 54.7613 47.3878 54.7387 47.3493C54.7108 47.3021 54.6847 47.2548 54.6568 47.2093C54.6325 47.1708 54.6081 47.1323 54.5837 47.0938C54.5541 47.0483 54.5263 47.0028 54.4949 46.9591C54.4688 46.9206 54.4427 46.8838 54.4148 46.8471C54.3835 46.8033 54.3539 46.7613 54.3208 46.7193C54.2929 46.6826 54.2651 46.6476 54.2355 46.6108C54.2024 46.5688 54.1693 46.5286 54.1362 46.4883C54.1066 46.4533 54.077 46.4183 54.0457 46.3833C54.0109 46.3431 53.976 46.3046 53.9412 46.2661C53.9099 46.2328 53.8785 46.1996 53.8455 46.1663C53.8089 46.1278 53.7723 46.0911 53.734 46.0543C53.701 46.0211 53.6679 45.9896 53.6348 45.9581C53.5965 45.9231 53.5582 45.8863 53.5199 45.8513C53.485 45.8198 53.4502 45.7901 53.4154 45.7603C53.3753 45.7271 53.3353 45.6938 53.2953 45.6606C53.2587 45.6308 53.2239 45.6028 53.1856 45.5748C53.1438 45.5433 53.102 45.5118 53.0602 45.4803C53.0236 45.4523 52.9853 45.4261 52.947 45.3998C52.9035 45.3701 52.86 45.3403 52.8164 45.3123C52.7781 45.2861 52.7398 45.2616 52.6998 45.2371C52.6545 45.2091 52.6092 45.1828 52.564 45.1548C52.5239 45.1321 52.4839 45.1076 52.4438 45.0848C52.3968 45.0586 52.3498 45.0341 52.3028 45.0096C52.261 44.9886 52.221 44.9658 52.1792 44.9466C52.1322 44.9221 52.0834 44.9011 52.0347 44.8783C51.9929 44.8591 51.9511 44.8398 51.9093 44.8206C51.8605 44.7996 51.81 44.7786 51.7595 44.7593C51.716 44.7418 51.6742 44.7243 51.6307 44.7086C51.5802 44.6893 51.528 44.6718 51.4775 44.6543C51.4339 44.6386 51.3904 44.6228 51.3451 44.6088C51.2929 44.5913 51.2389 44.5773 51.1867 44.5616C51.1432 44.5493 51.0996 44.5353 51.0544 44.5231C51.0004 44.5091 50.9447 44.4968 50.889 44.4828C50.8454 44.4723 50.8019 44.4618 50.7566 44.4531C50.6992 44.4408 50.6417 44.4303 50.5825 44.4198C50.539 44.4128 50.4972 44.4041 50.4537 44.3971C50.3927 44.3866 50.33 44.3796 50.2674 44.3726C50.2273 44.3673 50.1873 44.3621 50.1455 44.3568C50.0758 44.3498 50.0062 44.3446 49.9365 44.3411C49.9017 44.3393 49.8686 44.3358 49.8338 44.3341C49.7293 44.3288 49.6231 44.3253 49.5169 44.3253C49.4246 44.3253 49.3341 44.3271 49.2436 44.3323C49.2035 44.3341 49.1635 44.3376 49.1252 44.3411C49.0747 44.3446 49.0242 44.3463 48.9737 44.3516C48.9197 44.3568 48.8675 44.3638 48.8135 44.3691C48.7787 44.3726 48.7421 44.3761 48.7073 44.3813C48.6498 44.3883 48.5941 44.3988 48.5384 44.4076C48.507 44.4128 48.4757 44.4163 48.4444 44.4216C48.3921 44.4303 48.3399 44.4426 48.2877 44.4531C48.2528 44.4601 48.2198 44.4671 48.1849 44.4741C48.1379 44.4846 48.0909 44.4968 48.0422 44.5091C48.0038 44.5178 47.9673 44.5266 47.929 44.5371C47.8889 44.5476 47.8489 44.5616 47.8088 44.5721C47.7653 44.5843 47.7218 44.5966 47.6782 44.6106C47.6504 44.6193 47.6208 44.6298 47.5929 44.6403C47.5407 44.6578 47.4885 44.6753 47.4362 44.6946C46.7833 44.9361 46.1826 45.2878 45.6567 45.7288L44.1976 44.5003C44.7374 43.7409 45.1988 42.9219 45.5784 42.0591C45.5784 42.0591 45.5784 42.0591 45.5784 42.0609C45.5923 42.0276 45.6045 41.9926 45.6202 41.9594C45.6829 41.8141 45.7421 41.6689 45.7995 41.5219C45.8204 41.4694 45.8413 41.4151 45.8622 41.3626C45.9371 41.1649 46.0067 40.9654 46.0711 40.7641C46.0764 40.7466 46.0816 40.7309 46.0868 40.7134C46.146 40.5279 46.2 40.3424 46.2505 40.1534C46.2662 40.0939 46.2818 40.0326 46.2975 39.9714C46.3375 39.8174 46.3741 39.6616 46.4089 39.5059C46.4211 39.4464 46.4351 39.3886 46.4472 39.3291C46.4908 39.1191 46.5308 38.9074 46.5639 38.6939C46.5639 38.6834 46.5674 38.6729 46.5691 38.6624C46.6005 38.4594 46.6266 38.2564 46.6492 38.0499C46.6562 37.9851 46.6614 37.9204 46.6684 37.8556C46.684 37.6964 46.6962 37.5354 46.7067 37.3726C46.7102 37.3079 46.7154 37.2431 46.7189 37.1784C46.7293 36.9579 46.7363 36.7374 46.7363 36.5151C46.7363 35.0539 46.5099 33.6451 46.0903 32.3239C45.8727 31.6396 45.0595 31.3614 44.4693 31.7656C44.0827 32.0316 43.9086 32.5216 44.0514 32.9714C44.4066 34.0879 44.5999 35.2779 44.5999 36.5151C44.5999 36.7006 44.5946 36.8861 44.5859 37.0699C44.5825 37.1294 44.579 37.1871 44.5755 37.2449C44.5685 37.3709 44.5581 37.4969 44.5476 37.6211C44.5407 37.6876 44.5337 37.7541 44.5267 37.8224C44.5145 37.9396 44.4989 38.0551 44.4832 38.1724C44.4745 38.2389 44.464 38.3054 44.4536 38.3719C44.4344 38.4909 44.4136 38.6099 44.3909 38.7289C44.3787 38.7884 44.3683 38.8479 44.3561 38.9056C44.3265 39.0509 44.2917 39.1944 44.2569 39.3379C44.2499 39.3676 44.2429 39.3974 44.236 39.4271C44.1924 39.5986 44.1437 39.7701 44.0914 39.9381C44.0758 39.9871 44.0584 40.0361 44.0427 40.0869C43.4733 41.8561 42.4965 43.4399 41.2203 44.7226C39.1309 46.8226 36.2423 48.1228 33.0542 48.1228C31.1911 48.1228 29.4325 47.6801 27.8742 46.8926C27.4546 46.6808 26.9444 46.7823 26.624 47.1288C26.1383 47.6556 26.2932 48.5026 26.9322 48.8228C28.7744 49.7503 30.8533 50.2718 33.0542 50.2718C36.8325 50.2718 40.2556 48.7318 42.7333 46.2416L42.8326 46.1418L44.2917 47.3703C43.7867 48.2558 43.496 49.2831 43.496 50.3786C43.496 53.8523 46.4072 56.6436 49.9104 56.4248C51.4514 56.3286 52.846 55.6321 53.8611 54.5698C53.8646 54.5716 53.8664 54.5733 53.8698 54.5768C54.636 53.7753 55.1844 52.7603 55.4212 51.6316C55.4247 51.6193 55.4264 51.6053 55.4299 51.5931C55.4404 51.5441 55.4473 51.4951 55.456 51.4461C55.4648 51.3971 55.4735 51.3498 55.4822 51.3008C55.4874 51.2658 55.4909 51.2291 55.4961 51.1941C55.5048 51.1328 55.5118 51.0716 55.5187 51.0103C55.5222 50.9753 55.5257 50.9386 55.5274 50.9036C55.5309 50.8581 55.5361 50.8126 55.5396 50.7671C55.5396 50.7531 55.5396 50.7391 55.5396 50.7268C55.5431 50.6656 55.5448 50.6043 55.5466 50.5431C55.5466 50.4993 55.5501 50.4556 55.5501 50.4118C55.5501 50.4013 55.5501 50.3926 55.5501 50.3821C55.5501 50.3313 55.5483 50.2823 55.5466 50.2316ZM49.543 53.7753C47.8106 53.7753 46.4055 52.3631 46.4055 50.6218C46.4055 49.0153 47.6016 47.6906 49.1495 47.4963C49.1844 47.4911 49.2192 47.4876 49.254 47.4841C49.3498 47.4753 49.4455 47.4701 49.5448 47.4701C51.2772 47.4701 52.6824 48.8823 52.6824 50.6236C52.6824 50.7286 52.6771 50.8301 52.6667 50.9316C52.6632 50.9648 52.658 50.9981 52.6528 51.0313C52.6441 51.0978 52.6354 51.1661 52.6232 51.2308C52.6162 51.2693 52.6058 51.3078 52.597 51.3463C52.5831 51.4058 52.5692 51.4636 52.5518 51.5213C52.5396 51.5616 52.5257 51.6001 52.5135 51.6403C52.4943 51.6946 52.4752 51.7488 52.4543 51.8013C52.4386 51.8398 52.4212 51.8783 52.4038 51.9168C52.3811 51.9676 52.3568 52.0183 52.3306 52.0673C52.3115 52.1058 52.2906 52.1426 52.2697 52.1793C52.2418 52.2283 52.214 52.2756 52.1844 52.3211C52.1618 52.3561 52.1391 52.3911 52.1147 52.4261C52.0834 52.4716 52.0486 52.5153 52.0155 52.5591C51.9894 52.5923 51.965 52.6238 51.9389 52.6553C51.3626 53.3396 50.5042 53.7736 49.5448 53.7736L49.543 53.7753Z" fill="url(#paint2_linear_269_952)"/>
<path d="M35.4082 24.267V24.3317C35.4082 24.7955 35.7112 25.2085 36.1552 25.3327C37.5533 25.723 38.847 26.3722 39.977 27.2245C40.3357 27.4957 40.8232 27.5132 41.1941 27.2595L41.2481 27.2227C41.8366 26.8185 41.854 25.954 41.2829 25.5217C39.93 24.498 38.3839 23.721 36.7071 23.2555C36.0524 23.0735 35.4082 23.5827 35.4082 24.2652V24.267Z" fill="url(#paint3_linear_269_952)"/>
<path d="M33.0037 44.7558C37.5272 44.7558 41.1941 41.0703 41.1941 36.5239C41.1941 31.9775 37.5272 28.2919 33.0037 28.2919C28.4802 28.2919 24.8132 31.9775 24.8132 36.5239C24.8132 41.0703 28.4802 44.7558 33.0037 44.7558Z" fill="url(#paint4_linear_269_952)"/>
<defs>
<linearGradient id="paint0_linear_269_952" x1="18.423" y1="18.9679" x2="39.7203" y2="43.5416" gradientUnits="userSpaceOnUse">
<stop stop-color="white" stop-opacity="0.9"/>
<stop offset="0.19" stop-color="#F5F5F5" stop-opacity="0.53"/>
<stop offset="0.31" stop-color="#EFEFEF" stop-opacity="0.3"/>
</linearGradient>
<linearGradient id="paint1_linear_269_952" x1="21.2594" y1="26.073" x2="9.46811" y2="37.8031" gradientUnits="userSpaceOnUse">
<stop stop-color="white" stop-opacity="0.6"/>
<stop offset="0.08" stop-color="#FAFAFA" stop-opacity="0.52"/>
<stop offset="0.31" stop-color="#EFEFEF" stop-opacity="0.3"/>
</linearGradient>
<linearGradient id="paint2_linear_269_952" x1="35.5197" y1="39.4131" x2="50.9064" y2="57.1686" gradientUnits="userSpaceOnUse">
<stop stop-color="white" stop-opacity="0.9"/>
<stop offset="0.19" stop-color="#F5F5F5" stop-opacity="0.53"/>
<stop offset="0.31" stop-color="#EFEFEF" stop-opacity="0.3"/>
</linearGradient>
<linearGradient id="paint3_linear_269_952" x1="36.4442" y1="22.888" x2="40.656" y2="27.7477" gradientUnits="userSpaceOnUse">
<stop stop-color="white" stop-opacity="0.9"/>
<stop offset="0.19" stop-color="#F5F5F5" stop-opacity="0.53"/>
<stop offset="0.31" stop-color="#EFEFEF" stop-opacity="0.3"/>
</linearGradient>
<linearGradient id="paint4_linear_269_952" x1="27.6548" y1="30.2904" x2="38.4147" y2="42.7053" gradientUnits="userSpaceOnUse">
<stop stop-color="white" stop-opacity="0.9"/>
<stop offset="0.19" stop-color="#F5F5F5" stop-opacity="0.53"/>
<stop offset="0.31" stop-color="#EFEFEF" stop-opacity="0.3"/>
</linearGradient>
</defs>
</svg>
