<svg width="30" height="30" viewBox="0 0 30 30" fill="none" xmlns="http://www.w3.org/2000/svg">
<rect width="30" height="30" rx="12" fill="#07F4E2"/>
<path d="M17.8828 17.7556C17.4938 17.7587 17.1192 17.6141 16.8432 17.3541L15.3368 15.939C15.2263 15.84 15.0537 15.8416 14.9439 15.9414L13.4502 17.3808C13.1774 17.6448 12.8052 17.7941 12.4163 17.7956L12.1212 17.7972L14.0293 19.5894C14.625 20.1488 15.585 20.1425 16.1735 19.576L18.0633 17.754H17.8828V17.7556Z" fill="#003A38"/>
<path d="M12.3837 12.7514C12.7758 12.7491 13.1448 12.8921 13.4232 13.1529L14.9352 14.5735C15.0441 14.6764 15.2207 14.6756 15.3281 14.5711L16.8162 13.1372C17.089 12.8732 17.4612 12.7239 17.8494 12.7223H18.0299L16.1163 10.9239C15.5206 10.3644 14.5606 10.3707 13.972 10.9372L12.087 12.7538L12.3821 12.7522L12.3837 12.7514Z" fill="#003A38"/>
<path d="M19.6142 14.2081L18.4578 13.1215C18.4323 13.1317 18.4045 13.1372 18.3767 13.1372L17.8541 13.1403C17.5837 13.1419 17.3196 13.248 17.1311 13.431L15.643 14.8649C15.3655 15.1337 14.9121 15.1376 14.6298 14.8736C14.629 14.8728 14.6282 14.872 14.6274 14.8712L13.1154 13.4499C12.9213 13.2684 12.6597 13.167 12.3877 13.1678L11.7458 13.1718C11.7196 13.1718 11.6925 13.167 11.6679 13.1584L10.521 14.2639C9.93239 14.8304 9.93876 15.7441 10.5337 16.3043L11.6941 17.3949C11.7188 17.3855 11.7442 17.38 11.7713 17.3792L12.4139 17.3753C12.6851 17.3737 12.9476 17.2684 13.1377 17.0853L14.6305 15.6451C14.9137 15.3851 15.3607 15.3827 15.6478 15.6389L17.1542 17.0539C17.3459 17.2346 17.6107 17.3368 17.8812 17.3352L18.4037 17.332C18.4323 17.332 18.4602 17.3383 18.4848 17.3478L19.627 16.247C20.2155 15.6805 20.2092 14.7659 19.6142 14.2065V14.2081Z" fill="#003A38"/>
<path d="M7.39767 14.1075C8.14053 11.1391 10.257 8.89282 13.059 8.09848C15.3854 7.43927 17.8462 7.88634 19.8736 9.28724L19.2254 9.37367C18.8229 9.42789 18.5406 9.79324 18.5955 10.1916C18.6503 10.5892 19.0202 10.8681 19.4234 10.8139L21.8564 10.4878C22.2589 10.4336 22.5412 10.0682 22.4863 9.66988L22.1563 7.26642C22.1014 6.86885 21.7315 6.58993 21.3283 6.64414C20.925 6.69836 20.6435 7.06371 20.6984 7.46206L20.801 8.21005C19.6294 7.36856 18.2161 6.78321 16.7399 6.54436C16.5236 6.50979 16.3064 6.48229 16.0877 6.46265C13.7366 6.24972 11.2806 6.99142 9.35026 8.49761C7.36904 10.0439 6.14419 12.1873 5.90241 14.5342C5.86582 14.8924 5.93501 15.1965 6.09249 15.3678C6.21418 15.4998 6.39473 15.5634 6.64447 15.5619C7.05805 15.5587 7.16304 15.4039 7.30302 14.5852C7.33007 14.4273 7.3579 14.2639 7.39687 14.1075H7.39767Z" fill="#003A38"/>
<path d="M23.9712 16.1629C23.8647 16.0184 23.6921 15.9359 23.4439 15.9107C23.0319 15.8691 22.911 16.0113 22.6804 16.8096C22.6358 16.9636 22.5897 17.1231 22.534 17.2739C21.4659 20.1441 19.1132 22.1476 16.2396 22.6324C13.8543 23.0355 11.4579 22.3244 9.59841 20.7121L10.2522 20.6964C10.6586 20.6862 10.9791 20.3531 10.9696 19.9524C10.9593 19.5509 10.622 19.2342 10.2164 19.2437L7.76194 19.3034C7.35551 19.3136 7.03498 19.6467 7.04453 20.0474L7.10497 22.4721C7.11531 22.8736 7.45254 23.1902 7.85817 23.1808C8.2646 23.1706 8.58513 22.8375 8.57558 22.4368L8.55649 21.6817C9.62784 22.645 10.9672 23.3804 12.4084 23.7772C12.6192 23.8353 12.8323 23.8864 13.0471 23.9296C15.3607 24.3955 17.8836 23.9249 19.9698 22.6379C22.1109 21.3163 23.5664 19.3183 24.0675 17.0123C24.1438 16.6603 24.1088 16.3507 23.9712 16.1629Z" fill="#003A38"/>
</svg>
