<svg width="65" height="65" viewBox="0 0 65 65" fill="none" xmlns="http://www.w3.org/2000/svg">
<path d="M58.1086 11.1306C58.0789 10.4555 57.6609 9.85663 57.0442 9.60406C54.0685 8.39207 50.9769 7.40405 47.8587 6.66859C44.8548 5.96014 41.7663 5.47089 38.6795 5.21674C38.6591 5.21515 38.6403 5.21356 38.62 5.21356L33.1757 5.00071C33.1553 5.00071 33.135 4.99912 33.1162 5.00071C28.1681 5.02771 23.2435 5.6345 18.4755 6.80678C15.362 7.57242 12.2798 8.58904 9.3119 9.8328C8.69672 10.0901 8.28503 10.6937 8.26155 11.3688C7.88587 22.5945 9.35417 32.5986 12.6242 41.1048C12.632 41.127 12.6414 41.1493 12.6508 41.1715L14.8345 46.0942C14.8439 46.1164 14.8548 46.1386 14.8658 46.1609C20.4776 57.2086 28.2621 62.5808 32.4024 64.7999C32.6513 64.9333 32.9221 65 33.1945 65C33.4669 65 33.7377 64.9333 33.985 64.8014C38.2005 62.549 44.274 58.2411 49.2707 50.5053C49.2926 50.4704 49.3129 50.4354 49.3317 50.4005L51.9286 45.4889C51.9349 45.4778 51.9411 45.4651 51.9458 45.454C56.681 35.8597 58.6941 24.6325 58.1039 11.1322L58.1086 11.1306Z" fill="#28B4AD"/>
<path d="M44.4279 46.115C49.5077 37.6952 52.0822 27.1661 52.0822 14.82C52.0822 14.5026 51.8889 14.2322 51.6029 14.1473L51.54 14.1285C43.73 11.8447 37.0973 11.3654 32.907 11.3654C26.6468 11.3654 16.9522 13.2452 14.4862 14.1866C14.2284 14.2857 14.054 14.5324 14.054 14.7996C14.054 21.4685 14.8838 27.7539 16.5184 33.4813C17.8591 38.1793 19.7531 42.5471 22.1469 46.4608C23.9418 49.3952 26.0055 52.0625 28.2845 54.3871C30.1203 56.2622 31.6245 57.4237 32.2657 57.9203C32.3616 57.9942 32.4402 58.0555 32.5015 58.1042C32.6241 58.2017 32.7703 58.2504 32.918 58.2504C33.0485 58.2504 33.1805 58.2111 33.2952 58.1325C37.6144 55.1824 41.4636 51.0267 44.4279 46.1134V46.115Z" fill="url(#paint0_linear_269_951)"/>
<path d="M32.9195 58.2519C32.7717 58.2519 32.6255 58.2031 32.503 58.1057C32.4417 58.057 32.3631 57.9957 32.2672 57.9218C31.6243 57.4251 30.1218 56.262 28.286 54.3885C26.0085 52.0624 23.9432 49.3951 22.1483 46.4622C19.7546 42.5486 17.8606 38.1823 16.5199 33.4828C14.8853 27.7538 14.0554 21.4684 14.0554 14.8011C14.0554 14.5339 14.2299 14.2871 14.4876 14.1881C16.9537 13.2466 26.6466 11.3668 32.9085 11.3668C37.0987 11.3668 43.7315 11.8462 51.5415 14.1299L51.6043 14.1488C51.892 14.2321 52.0837 14.5024 52.0837 14.8215C52.0837 27.1675 49.5076 37.6966 44.4293 46.1165C41.465 51.0297 37.6158 55.1854 33.2967 58.1356C33.1819 58.2141 33.0499 58.2534 32.9195 58.2534V58.2519ZM32.9556 57.6357C37.204 54.7343 40.9919 50.6415 43.9107 45.8037C48.9324 37.4797 51.4786 27.0559 51.4786 14.8199C51.4786 14.8121 51.4786 14.7414 51.433 14.7288L51.3701 14.7099C43.6293 12.445 37.0579 11.9704 32.9069 11.9704C26.7095 11.9704 17.1329 13.825 14.7014 14.7524C14.6763 14.7618 14.6574 14.7822 14.6574 14.8011C14.6574 21.4134 15.4794 27.6422 17.0983 33.3178C18.4249 37.9638 20.2968 42.2798 22.6607 46.1479C24.4321 49.043 26.4675 51.6741 28.7135 53.9673C30.5194 55.8125 31.9466 56.9159 32.6334 57.4456C32.7324 57.521 32.8126 57.5855 32.8755 57.6342C32.8975 57.6515 32.9289 57.653 32.9525 57.6373L32.9556 57.6357Z" fill="white"/>
<path d="M44.9842 24.1513C44.1889 23.3576 42.9001 23.3576 42.1064 24.1513L33.2905 32.9672C32.9824 33.2753 32.4826 33.2753 32.1745 32.9672L28.3049 29.0976C27.5096 28.3039 26.2208 28.3039 25.427 29.0976C24.6317 29.8929 24.6317 31.1817 25.427 31.977L30.947 37.497C31.9341 38.484 33.5341 38.484 34.5211 37.497L44.9874 27.0308C45.7827 26.2355 45.7827 24.9466 44.9874 24.1513H44.9842Z" fill="white"/>
<g opacity="0.69">
<path d="M58.1082 11.557C58.0784 10.889 57.6587 10.2965 57.0394 10.0466C54.0516 8.84735 50.9474 7.86973 47.8165 7.14201C44.8003 6.44101 41.6992 5.95692 38.5998 5.70544C38.5793 5.70387 38.5605 5.70229 38.54 5.70229L33.0735 5.49325C33.0531 5.49325 33.0327 5.49168 33.0138 5.49325C28.0455 5.51997 23.1008 6.12038 18.3133 7.28032C15.1871 8.0379 12.0923 9.04382 9.11232 10.2745C8.49463 10.5291 8.08126 11.1264 8.05768 11.7944C7.68047 22.9019 9.15476 32.8007 12.4381 41.2174C12.446 41.2394 12.4554 41.2614 12.4648 41.2834L14.6574 46.1542C14.6669 46.1762 14.6779 46.1982 14.6889 46.2202C20.3236 57.1517 28.1398 62.4673 32.2971 64.663C32.547 64.7951 32.8189 64.8611 33.0924 64.8611C33.3659 64.8611 33.6378 64.7951 33.8861 64.6646C38.1188 62.4359 44.2172 58.1733 49.2342 50.5189C49.2562 50.4844 49.2766 50.4498 49.2955 50.4152L51.903 45.5554C51.9093 45.5444 51.9156 45.5318 51.9203 45.5208C56.6748 36.0275 58.6961 24.9184 58.1035 11.5602L58.1082 11.557ZM44.4278 46.1149C41.4635 51.0282 37.6143 55.1839 33.2951 58.134C33.1804 58.2126 33.0484 58.2519 32.9179 58.2519C32.7702 58.2519 32.624 58.2032 32.5014 58.1057C32.4401 58.057 32.3615 57.9957 32.2656 57.9218C31.6228 57.4252 30.1202 56.2621 28.2844 54.3886C26.007 52.0624 23.9417 49.3951 22.1468 46.4623C19.753 42.5486 17.8591 38.1823 16.5184 33.4828C14.8838 27.7538 14.0539 21.4684 14.0539 14.8011C14.0539 14.5339 14.2283 14.2871 14.4861 14.1881C16.9522 13.2467 26.6451 11.3669 32.9069 11.3669C37.0972 11.3669 43.7299 11.8462 51.5399 14.13L51.6028 14.1488C51.8904 14.2321 52.0822 14.5025 52.0822 14.8215C52.0822 27.1676 49.5061 37.6967 44.4278 46.1165V46.1149Z" fill="url(#paint1_radial_269_951)"/>
</g>
<defs>
<linearGradient id="paint0_linear_269_951" x1="19.423" y1="5.3283" x2="54.8202" y2="55.8928" gradientUnits="userSpaceOnUse">
<stop stop-color="#FEFEFE" stop-opacity="0.89"/>
<stop offset="0.06" stop-color="#FAFAFA" stop-opacity="0.75"/>
<stop offset="0.11" stop-color="#F7F7F7" stop-opacity="0.63"/>
<stop offset="0.18" stop-color="#F5F5F5" stop-opacity="0.53"/>
<stop offset="0.25" stop-color="#F2F2F2" stop-opacity="0.44"/>
<stop offset="0.34" stop-color="#F1F1F1" stop-opacity="0.38"/>
<stop offset="0.44" stop-color="#EFEFEF" stop-opacity="0.33"/>
<stop offset="0.59" stop-color="#EFEFEF" stop-opacity="0.31"/>
<stop offset="1" stop-color="#EFEFEF" stop-opacity="0.3"/>
</linearGradient>
<radialGradient id="paint1_radial_269_951" cx="0" cy="0" r="1" gradientUnits="userSpaceOnUse" gradientTransform="translate(56.7471 54.1387) scale(52.262 52.262)">
<stop stop-color="#0C9594" stop-opacity="0.3"/>
<stop offset="0.1" stop-color="#2EA4A3" stop-opacity="0.36"/>
<stop offset="0.32" stop-color="#78C4C3" stop-opacity="0.49"/>
<stop offset="0.54" stop-color="#B2DDDD" stop-opacity="0.59"/>
<stop offset="0.73" stop-color="#DCEFEF" stop-opacity="0.66"/>
<stop offset="0.89" stop-color="#F5FBFA" stop-opacity="0.7"/>
<stop offset="1" stop-color="white" stop-opacity="0.72"/>
</radialGradient>
</defs>
</svg>
