<svg width="30" height="30" viewBox="0 0 30 30" fill="none" xmlns="http://www.w3.org/2000/svg">
<rect width="30" height="30" rx="12" fill="#07F4E2"/>
<path d="M24.107 6.42847V9.08729H23.0715V7.4645H21.4482V6.42847H24.107Z" fill="#003A38"/>
<path d="M6.42847 24.107V21.4482H7.4645V23.0715H9.08729V24.107H6.42847Z" fill="#003A38"/>
<path d="M24.107 21.4482V24.107H21.4482V23.0715H23.0715V21.4482H24.107Z" fill="#003A38"/>
<path d="M9.95035 22.6222C10.2654 22.6102 10.5846 22.6388 10.8997 22.6222C14.7292 22.4183 17.7446 19.3951 17.9282 15.5627C17.9706 14.6729 17.984 13.4741 17.9282 12.5903C17.7755 10.1552 14.744 9.13849 13.1968 11.039C12.0021 12.5068 13.1304 14.4561 12.2572 15.9691C11.7987 16.7635 10.8803 17.3207 9.95035 17.2709V16.287L10.0075 16.2404C10.7991 16.251 11.5007 15.5853 11.5727 14.8016C11.7023 13.391 11.2927 12.2088 12.0635 10.8724C13.9072 7.67531 18.7548 8.86587 18.9642 12.5561C19.1594 15.9945 18.8909 19.0592 16.2182 21.4842C14.5073 23.0369 12.2627 23.774 9.95035 23.6587V22.6222Z" fill="#003A38"/>
<path d="M10.4684 14.6462H9.48445C9.43509 14.6157 9.43693 14.5774 9.43094 14.5272C9.36128 13.933 9.40695 12.7559 9.46738 12.1433C9.92266 7.54707 15.3321 5.26604 18.9439 8.19056C21.421 10.1962 21.2125 13.1046 21.0686 16.0106C21.0612 16.1592 21.0797 16.3114 21.0681 16.459C20.8509 19.1893 19.4905 21.8454 17.3258 23.5189L16.685 22.7435C18.4808 21.266 19.7309 19.0989 19.9938 16.7658C20.135 15.5125 20.1686 13.4284 20.0279 12.182C19.5362 7.81185 13.8661 6.35743 11.3379 9.97387C10.3304 11.4149 10.4541 12.9634 10.4684 14.6462Z" fill="#003A38"/>
<path d="M9.95035 21.5174V20.4814C12.3698 20.5907 14.6042 19.0998 15.441 16.8391C15.9507 15.4626 15.7629 14.0138 15.7703 12.5723C15.6126 12.016 14.8127 12.0736 14.7495 12.6604C14.6776 13.3343 14.7892 14.1425 14.7509 14.8371C14.6116 17.3673 12.5137 19.4518 9.94989 19.4107V18.4268C10.1113 18.3466 10.3517 18.3669 10.5486 18.335C12.3093 18.05 13.6088 16.5817 13.7149 14.8026C13.761 14.0276 13.558 12.6774 13.868 12.0206C14.5221 10.6335 16.6698 11.009 16.8207 12.5224C16.894 13.2559 16.8608 14.4958 16.8225 15.2514C16.6431 18.8129 13.5225 21.6839 9.94989 21.5165L9.95035 21.5174Z" fill="#003A38"/>
<path d="M9.08729 6.42847V7.4645H7.4645V9.08729H6.42847V6.42847H9.08729Z" fill="#003A38"/>
</svg>
