<svg width="27" height="24" viewBox="0 0 27 24" fill="none" xmlns="http://www.w3.org/2000/svg">
<path fill-rule="evenodd" clip-rule="evenodd" d="M21.3333 0C22.804 0 24 1.196 24 2.66667V5.33333C25.4707 5.33333 26.6667 6.52933 26.6667 8V21.3333C26.6667 22.804 25.4707 24 24 24H4C2.392 24 0 22.9347 0 20V4C0 1.79467 1.79467 0 4 0H21.3333ZM21.3333 2.66667H4C3.65669 2.68202 3.33254 2.82921 3.09504 3.07758C2.85753 3.32594 2.72498 3.65635 2.72498 4C2.72498 4.34365 2.85753 4.67406 3.09504 4.92242C3.33254 5.17079 3.65669 5.31798 4 5.33333H21.3333V2.66667ZM4.016 21.3333H24V8H4C3.52933 8 3.08533 7.904 2.66667 7.75333V20C2.66667 21.0733 3.4 21.3173 4.016 21.3333ZM21.3333 12H18.6667V17.3333H21.3333V12Z" fill="#003A38"/>
</svg>
