<svg width="26" height="27" viewBox="0 0 26 27" fill="none" xmlns="http://www.w3.org/2000/svg">
<path fill-rule="evenodd" clip-rule="evenodd" d="M9.44977 0H22.9498C24.4389 0 25.6499 1.21096 25.6499 2.70002V25.6502C25.6499 26.0082 25.5076 26.3516 25.2545 26.6048C25.0013 26.8579 24.6579 27.0002 24.2999 27.0002H2.69973C2.34168 27.0002 1.9983 26.8579 1.74513 26.6048C1.49195 26.3516 1.34972 26.0082 1.34972 25.6502V18.9001C1.08276 18.9001 0.821802 18.8209 0.599847 18.6725C0.377892 18.5242 0.204903 18.3133 0.102748 18.0667C0.000592572 17.82 -0.0261417 17.5487 0.0259249 17.2868C0.0779914 17.025 0.206521 16.7845 0.395265 16.5957L6.74975 10.2412V2.70002C6.74975 1.21096 7.96071 0 9.44977 0ZM4.04974 16.759V24.3002H12.1498V16.759L8.09976 12.709L4.04974 16.759ZM14.8498 24.3002H22.9498V2.70002H9.44977V10.2412L15.8043 16.5957C15.9937 16.7842 16.1228 17.0248 16.1752 17.2868C16.2277 17.5489 16.2011 17.8206 16.0988 18.0675C15.9965 18.3144 15.8232 18.5254 15.6008 18.6736C15.3785 18.8219 15.1171 18.9007 14.8498 18.9001V24.3002ZM14.8498 5.40003H12.1498V8.10005H14.8498V5.40003ZM20.2498 5.40003H17.5498V8.10005H20.2498V5.40003ZM20.2498 10.8419H17.5498V13.5001H20.2498V10.8419ZM20.2498 16.2001H17.5498V18.9001H20.2498V16.2001ZM9.44977 17.5501H6.74975V20.2501H9.44977V17.5501Z" fill="#003A38"/>
</svg>
