<svg width="13" height="19" viewBox="0 0 13 19" fill="none" xmlns="http://www.w3.org/2000/svg">
<path d="M4.96504 18.9998H11.4046C11.7753 18.9998 12.0952 18.7767 12.2338 18.458C12.3018 18.3024 12.3263 18.1243 12.2933 17.9386C12.2593 17.7465 12.1593 17.5815 12.0206 17.4568C11.8433 17.2974 11.6018 17.2037 11.3518 17.2037H4.96504C3.94524 17.2037 3.25374 17.0097 2.8528 16.6122C2.21601 15.9541 1.90658 15.3148 1.90658 14.6586V0.947741C1.90658 0.686198 1.79998 0.449029 1.62734 0.277479C1.45564 0.105929 1.21697 0 0.953763 0C0.690559 0 0.468863 0.0984301 0.29811 0.259668C0.11415 0.432155 0 0.676824 0 0.947741V14.3324C0 14.3324 0 14.3408 0 14.3455C0.0141508 17.2168 1.91319 18.9998 4.9641 18.9998H4.96504Z" fill="#009895"/>
</svg>
