<svg width="15" height="19" viewBox="0 0 15 19" fill="none" xmlns="http://www.w3.org/2000/svg">
<path d="M13.6766 0.0121869C13.136 -0.00374981 12.6926 0.425604 12.6926 0.95714C12.6926 0.95714 12.7181 15.2805 12.7181 15.4267C12.7181 15.8561 12.6964 16.1954 12.654 16.4495C12.654 16.4476 12.6521 16.4467 12.6511 16.4448C12.5747 16.8845 12.187 17.2201 11.7172 17.2201C11.3841 17.2201 11.0945 17.0513 10.9256 16.7973C10.8775 16.7242 10.7275 16.3811 10.6917 16.2761L9.56052 12.4625L7.04067 4.74539C6.98029 4.5654 6.8935 4.29072 6.78123 3.9223C6.38311 2.68768 5.98405 1.81772 5.58593 1.3115C5.43121 1.11463 4.92177 0.636531 4.60667 0.436853C4.15761 0.160305 3.62741 0 3.05948 0C2.15569 0 0.53963 0.477164 0.158492 2.40082C0.0528303 2.90704 0 3.54639 0 4.32072V18.0057C0 18.2982 0.125473 18.5775 0.333024 18.765C0.455667 18.8756 0.606612 18.9544 0.777369 18.9844C1.38304 19.0922 1.91041 18.6347 1.91041 18.0554V4.25604C1.91041 3.6795 1.93965 3.24265 1.96795 2.89486C1.97456 2.81517 2.00475 2.61549 2.14248 2.37551C2.33683 2.05584 2.68872 1.84022 3.09344 1.84022C3.40948 1.84022 3.69345 1.9724 3.89628 2.18239C3.96138 2.24051 4.02364 2.30426 4.07931 2.37738C4.33025 2.70362 4.62082 3.38514 4.95007 4.42197C5.06234 4.78195 5.15762 5.06975 5.23593 5.28349L8.87466 16.801C9.10863 17.4779 9.46807 18.0057 9.95298 18.3825C10.32 18.6769 10.7266 18.8625 11.1728 18.9422C11.3549 18.9694 11.5341 18.9844 11.7049 18.9844C11.7955 18.9844 11.8841 18.9806 11.9728 18.9722C12.0577 18.9637 12.1426 18.9525 12.2275 18.9366C12.236 18.9356 12.2436 18.9337 12.2521 18.9328C13.4408 18.7059 14.3672 17.7516 14.5436 16.5564C14.5927 16.1945 14.6181 15.7717 14.6181 15.2852L14.6049 0.996513C14.6049 0.479039 14.2021 0.0281236 13.6795 0.0121869H13.6766Z" fill="#009895"/>
</svg>
