<svg width="20" height="13" viewBox="0 0 20 13" fill="none" xmlns="http://www.w3.org/2000/svg">
<path d="M9.99992 0C14.9695 3.03666e-05 19.9988 1.54636 19.9988 4.50012V8.49988C19.9988 11.4536 14.9695 13 9.99992 13C5.0303 13 5.58269e-05 11.4536 0 8.49988V4.50012C0 1.54633 5.03028 0 9.99992 0ZM6.00016 10.6192C6.98885 10.8189 7.99232 10.9395 9.00024 10.9781V8.9787C7.97233 8.93571 6.95908 8.82254 6.00016 8.64855V10.6192ZM13.9997 8.64753C13.0086 8.82651 12.0059 8.93659 10.9996 8.97665V10.977C12.1325 10.9291 13.1327 10.7972 13.9997 10.6182V8.64753ZM2.00039 8.49988C2.00045 8.91782 2.68809 9.53009 3.99976 10.044V8.16255C3.30406 7.94966 2.63348 7.66185 2.00039 7.30334V8.49988ZM17.9994 7.30334C17.3664 7.6624 16.6952 7.95006 15.9991 8.16255V10.044C17.3119 9.53007 17.9994 8.91785 17.9994 8.49988V7.30334ZM9.99992 2.00039C4.82329 2.00039 2.00039 3.65118 2.00039 4.50012C2.00039 5.34906 4.82329 6.99984 9.99992 6.99984C15.1765 6.99981 17.9994 5.34905 17.9994 4.50012C17.9994 3.65119 15.1765 2.00043 9.99992 2.00039Z" fill="#003A38"/>
</svg>
