<svg width="27" height="22" viewBox="0 0 27 22" fill="none" xmlns="http://www.w3.org/2000/svg">
<path d="M25.6503 0C26.0082 0 26.3513 0.142544 26.6045 0.395517C26.8577 0.648698 27 0.992641 27 1.35069V20.2505C27 20.6085 26.8577 20.9525 26.6045 21.2057C26.3513 21.4586 26.0082 21.6012 25.6503 21.6012H1.3497C0.991808 21.6012 0.648666 21.4586 0.395517 21.2057C0.142337 20.9525 0 20.6085 0 20.2505V1.35069C0 0.992641 0.142337 0.648698 0.395517 0.395517C0.648666 0.142543 0.991808 3.19443e-08 1.3497 0H25.6503ZM6.74951 2.7004C6.74951 3.77439 6.32328 4.80443 5.56394 5.56394C4.8044 6.32348 3.77356 6.75049 2.69941 6.75049V14.8507C3.77356 14.8507 4.8044 15.2777 5.56394 16.0372C6.32328 16.7968 6.74951 17.8268 6.74951 18.9008H20.2505C20.2505 17.8268 20.6767 16.7968 21.4361 16.0372C22.1956 15.2777 23.2264 14.8507 24.3006 14.8507V6.75049C23.2264 6.75049 22.1956 6.32348 21.4361 5.56394C20.6767 4.80443 20.2505 3.77439 20.2505 2.7004H6.74951ZM13.5 5.40079C16.4782 5.40079 18.8998 7.82242 18.8998 10.8006C18.8998 13.7788 16.4782 16.2004 13.5 16.2004C10.5218 16.2004 8.1002 13.7788 8.1002 10.8006C8.1002 7.82242 10.5218 5.40079 13.5 5.40079ZM13.5 8.1002C12.0109 8.1002 10.7996 9.31151 10.7996 10.8006C10.7996 12.2897 12.0109 13.501 13.5 13.501C14.9891 13.501 16.2004 12.2897 16.2004 10.8006C16.2004 9.31151 14.9891 8.1002 13.5 8.1002Z" fill="#003A38"/>
</svg>
