<svg width="20" height="15" viewBox="0 0 20 15" fill="none" xmlns="http://www.w3.org/2000/svg">
<path d="M7.00014 8.99959C7.65662 8.99959 8.30693 9.12881 8.91346 9.38C9.51996 9.63122 10.0714 9.99965 10.5356 10.4638C10.9998 10.928 11.3681 11.4795 11.6194 12.0859C11.8706 12.6924 11.9997 13.3428 11.9998 13.9992V15H10.0003V13.9992C10.0002 13.2039 9.68395 12.4413 9.12161 11.8788C8.55902 11.3162 7.79576 11.0001 7.00014 11.0001H5.00068C4.20506 11.0001 3.44181 11.3162 2.87921 11.8788C2.3168 12.4413 2.00058 13.2038 2.00048 13.9992V15H0V13.9992C9.98679e-05 12.6733 0.527675 11.4014 1.46524 10.4638C2.40286 9.52637 3.67481 8.99959 5.00068 8.99959H7.00014ZM17.0005 3.99993V7.00014H19.9997V8.99959H17.0005V11.9998H15V8.99959H11.9998V7.00014H15V3.99993H17.0005ZM6.1983 0C6.65979 0.0126244 7.11611 0.107844 7.54563 0.279923C8.03635 0.476577 8.48222 0.77048 8.85604 1.1443C9.22987 1.51815 9.52377 1.96396 9.72042 2.45471C9.91707 2.94557 10.0127 3.47129 10.0003 3.99993C10.0127 4.52857 9.91707 5.0543 9.72042 5.54515C9.52377 6.0359 9.22987 6.48172 8.85604 6.85556C8.48221 7.22939 8.03636 7.52329 7.54563 7.71994C7.11611 7.89202 6.65979 7.98724 6.1983 7.99986H5.80252C5.34096 7.98726 4.88477 7.89204 4.45519 7.71994C3.96442 7.5233 3.51864 7.2294 3.14478 6.85556C2.77088 6.48165 2.47603 6.036 2.27938 5.54515C2.10731 5.11563 2.01309 4.65932 2.00048 4.19783V3.80204C2.01309 3.34054 2.10731 2.88424 2.27938 2.45471C2.47603 1.96386 2.77088 1.51821 3.14478 1.1443C3.51864 0.770457 3.96442 0.476569 4.45519 0.279923C4.88477 0.10782 5.34096 0.0126032 5.80252 0H6.1983ZM5.80149 2.00048C5.60279 2.01158 5.40652 2.05361 5.22011 2.12557C4.97166 2.22152 4.74606 2.36893 4.55773 2.55725C4.36939 2.74559 4.22201 2.97116 4.12605 3.21963C4.03013 3.46806 3.98707 3.73394 3.99993 3.99993C3.98708 4.26593 4.03013 4.5318 4.12605 4.78023C4.22201 5.0287 4.36939 5.25427 4.55773 5.44261C4.74606 5.63093 4.97167 5.77834 5.22011 5.87429C5.40652 5.94625 5.6028 5.98828 5.80149 5.99938H6.19933C6.39802 5.98826 6.59431 5.94627 6.78071 5.87429C7.02918 5.77833 7.25475 5.63095 7.44309 5.44261C7.63137 5.25433 7.77779 5.02861 7.87374 4.78023C7.94575 4.59378 7.98874 4.39759 7.99986 4.19885V3.80101C7.98875 3.60226 7.94575 3.40609 7.87374 3.21963C7.7778 2.97125 7.63137 2.74554 7.44309 2.55725C7.25475 2.36891 7.02918 2.22153 6.78071 2.12557C6.59431 2.05359 6.39802 2.0116 6.19933 2.00048H5.80149Z" fill="#003A38"/>
</svg>
