<svg width="16" height="19" viewBox="0 0 16 19" fill="none" xmlns="http://www.w3.org/2000/svg">
<path d="M7.70805 1.88793C8.44482 1.88793 9.40987 2.19634 9.82495 3.66525L12.5965 14.2814L13.638 18.286C13.6861 18.4697 13.7852 18.6347 13.9191 18.7603C14.054 18.8859 14.2238 18.9703 14.4125 18.9928C15.0587 19.0668 15.5549 18.4791 15.3974 17.8754L14.487 14.3826L11.7588 3.91648C11.1089 1.27862 9.78533 0 7.70899 0C5.63265 0 4.30817 1.27956 3.66103 3.91085L0.0309712 17.8332C-0.0284605 18.0619 -0.000158543 18.3 0.0970077 18.5006C0.207381 18.7265 0.405486 18.9065 0.66491 18.9712C1.16678 19.0968 1.64695 18.795 1.76959 18.3263L2.58843 15.1785L5.5902 3.67557C6.00717 2.19728 6.97223 1.88887 7.70899 1.88887L7.70805 1.88793Z" fill="#009895"/>
</svg>
